<svg xmlns="http://www.w3.org/2000/svg" width="59" height="31.515" viewBox="0 0 59 31.515">
  <g id="Icon-_-Illustration-_-Rivendite-_-Servizi-_-Opportunita-_-Incasso-e-Pagamento-_-Bonifico-ISP" data-name="Icon-/-Illustration-/-Rivendite-/-Servizi-/-Opportunita-/-Incasso-e-Pagamento-/-Bonifico-ISP" transform="translate(-4.222 -1.182)">
    <g id="Group-6" transform="translate(4.222 1.013)">
      <path id="Fill-1" d="M32.808,10.587a.337.337,0,0,0,.468.095l1.664-1.1a2.388,2.388,0,0,0,.955.229l3.1,4.624a.338.338,0,0,0,.561-.376l-3.2-4.775a.341.341,0,0,0-.3-.149,1.72,1.72,0,0,1-.965-.235.338.338,0,0,0-.358.01L32.9,10.119A.338.338,0,0,0,32.808,10.587Zm-1.9,4.736a.509.509,0,0,0-.494-.394.517.517,0,0,0-.115.013.508.508,0,1,0,.609.381Zm.658-.152a1.184,1.184,0,0,1-.887,1.42,1.193,1.193,0,0,1-.269.031,1.184,1.184,0,1,1,1.156-1.451Zm4.658,2.3a1.518,1.518,0,0,0-.68-1.084,1.434,1.434,0,0,0-.766-.216,1.709,1.709,0,0,0-.506.079,2.239,2.239,0,0,0-1.5,2.393,1.466,1.466,0,0,0,1.953,1.22,2.238,2.238,0,0,0,1.5-2.393Zm.668-.1a2.912,2.912,0,0,1-1.963,3.141,2.388,2.388,0,0,1-.709.11A2.1,2.1,0,0,1,33.1,20.3a2.183,2.183,0,0,1-.99-1.554A2.913,2.913,0,0,1,34.074,15.6,2.14,2.14,0,0,1,36.9,17.367Zm1.185-1.134a.338.338,0,0,0-.1-.466l-7.658-4.851a.339.339,0,0,0-.337-.014,1.973,1.973,0,0,1-1.119.213.339.339,0,0,0-.322.157l-2.691,4.307a.338.338,0,0,0,0,.358,1.966,1.966,0,0,1,.3,1.1.338.338,0,0,0,.16.3l9.816,6.094a.338.338,0,0,0,.356-.574l-9.659-6a2.64,2.64,0,0,0-.293-1.089L29.006,11.8a2.645,2.645,0,0,0,1.106-.214l7.5,4.752A.338.338,0,0,0,38.08,16.233ZM29.823,6.391a1.4,1.4,0,1,0-1.4-1.4A1.4,1.4,0,0,0,29.823,6.391ZM41.93,15.32a5.048,5.048,0,0,0-1.34,9.915l-.855,1.422-2.693-1.675H16.767v2.734H42.878v-2.3l-.363-.035A5.047,5.047,0,0,0,41.93,15.32ZM7.558,20.871a1.708,1.708,0,1,0,1.708,1.708A1.708,1.708,0,0,0,7.558,20.871ZM51.237,5.086A1.234,1.234,0,1,0,52.471,6.32,1.233,1.233,0,0,0,51.237,5.086ZM29,9.081l.069.074,2.192,1.292L33.575,8.9,29.157,8.81l.005-.009h-12.4v2.734H27.583Zm9.586,2.455L36.883,8.8h6v2.734Z" fill="#e8f1ec" fill-rule="evenodd"/>
      <g id="Group-5" transform="translate(0 0.101)">
        <path id="Fill-3" d="M40.144,14.1a.338.338,0,0,0,.281-.525l-4.291-6.42a.338.338,0,0,0-.463-.1L31.732,9.58a.338.338,0,1,0,.364.569l3.659-2.342,4.107,6.144A.338.338,0,0,0,40.144,14.1ZM38.654,15.44a.338.338,0,0,0,.358-.573l-9.762-6.1a.338.338,0,0,0-.465.108L23.893,16.7a.338.338,0,0,0,.108.466l15.556,9.674a.338.338,0,0,0,.179.051.342.342,0,0,0,.079-.009.337.337,0,0,0,.21-.155l.369-.615a.338.338,0,0,0-.579-.348l-.192.321L24.646,16.774,29.177,9.52ZM29.823,5.952a1.064,1.064,0,1,0-1.064-1.064A1.065,1.065,0,0,0,29.823,5.952Zm0,.676a1.739,1.739,0,1,1,1.739-1.739A1.741,1.741,0,0,1,29.823,6.627ZM44.578,19.169a.338.338,0,0,0-.234.416,2.5,2.5,0,0,1-2.414,3.191,2.5,2.5,0,0,1-1.059-.236l.213-.019a.338.338,0,0,0-.059-.673l-1.135.1-.008,0a.326.326,0,0,0-.05.009l-.017.005a.325.325,0,0,0-.044.018l-.018.01a.352.352,0,0,0-.036.024l-.019.016-.017.014-.012.014-.017.02a.356.356,0,0,0-.022.033l-.012.023c-.006.012-.011.023-.015.035s-.005.018-.008.027a.281.281,0,0,0-.011.065c0,.012,0,.024,0,.036s0,.009,0,.014l.1,1.135a.338.338,0,0,0,.336.308h.03a.338.338,0,0,0,.307-.366l-.033-.376a3.183,3.183,0,0,0,4.793-2.748,3.21,3.21,0,0,0-.121-.864A.337.337,0,0,0,44.578,19.169Zm-5.158,1.1a2.507,2.507,0,0,1,3.567-2.274l-.211.019a.338.338,0,0,0,.029.674h.03l1.1-.1a.338.338,0,0,0,.1-.015h0a.327.327,0,0,0,.058-.024l0,0a.334.334,0,0,0,.048-.032l.008-.007a.263.263,0,0,0,.023-.018c.006-.006.01-.012.015-.019l.009-.011a.343.343,0,0,0,.028-.041l.008-.015a.3.3,0,0,0,.018-.042c0-.007,0-.015.007-.022a.31.31,0,0,0,.008-.039c0-.01,0-.02,0-.029a.3.3,0,0,0,0-.035c0-.005,0-.01,0-.016l-.1-1.135a.338.338,0,0,0-.673.059l.033.377a3.18,3.18,0,0,0-4.672,3.611.338.338,0,1,0,.65-.183A2.518,2.518,0,0,1,39.42,20.267Zm7.22,0a4.71,4.71,0,1,0-4.71,4.71A4.715,4.715,0,0,0,46.64,20.267Zm.676,0a5.386,5.386,0,1,1-5.386-5.386A5.392,5.392,0,0,1,47.316,20.267Zm-3.409,7.686H15.738v2.742h28.17Zm-25.436-3.41H20.53V11.863H18.471Zm26.111,3.072v3.417a.338.338,0,0,1-.338.338H15.4a.338.338,0,0,1-.338-.338V27.615a.338.338,0,0,1,.338-.338h1.029v-2.4a.338.338,0,0,1,.338-.338H17.8V11.773H16.767a.338.338,0,0,1-.338-.338V8.7s0,0,0-.005,0-.026,0-.039,0-.019,0-.028.006-.02.01-.031.006-.022.01-.032a.3.3,0,0,1,.015-.027c.006-.01.01-.02.017-.03s.013-.016.02-.024a.341.341,0,0,1,.023-.027l.021-.017a.336.336,0,0,1,.032-.024l0,0L29.643.212,29.662.2A.357.357,0,0,1,29.7.186l.03-.01.032-.009.032,0,.032,0,.032,0,.033,0,.032.009.03.01A.354.354,0,0,1,29.984.2L30,.212l13.055,8.2,0,0a.333.333,0,0,1,.031.024l.021.018a2.21,2.21,0,0,1,.042.05.307.307,0,0,1,.016.028.283.283,0,0,1,.015.028.3.3,0,0,1,.01.03c0,.011.008.021.01.032s0,.018,0,.027a.341.341,0,0,1,0,.04s0,0,0,.005v2.734a.338.338,0,0,1-.338.338H41.849V13.82a.338.338,0,1,1-.676,0V11.773h-.822a.338.338,0,0,1,0-.676H42.54V9.039H38.346a.338.338,0,0,1,0-.676h3.36L29.823.9,17.939,8.363h8.753a.338.338,0,1,1,0,.676H17.1V11.1h8.511a.338.338,0,0,1,0,.676h-.354v.379a.338.338,0,1,1-.676,0v-.379h-3.38v12.77h3.38v-5.8a.338.338,0,1,1,.676,0v5.8H27.32V20.449a.338.338,0,1,1,.676,0v4.094H31.65V23.42a.338.338,0,0,1,.676,0v1.123h1.657a.338.338,0,0,1,0,.676H17.1v2.059H42.54v-.6a.338.338,0,0,1,.676,0v.6h1.029A.338.338,0,0,1,44.583,27.615ZM10.6,30.16a.712.712,0,1,0,.711.712A.712.712,0,0,0,10.6,30.16ZM8.928,22.478a1.37,1.37,0,1,0-1.37,1.371A1.372,1.372,0,0,0,8.928,22.478Zm.676,0a2.046,2.046,0,1,1-2.046-2.046A2.048,2.048,0,0,1,9.6,22.478ZM5.291,28.2H3.152V26.06a.338.338,0,1,0-.676,0V28.2H.338a.338.338,0,0,0,0,.676H2.477v2.139a.338.338,0,1,0,.676,0V28.875H5.291a.338.338,0,1,0,0-.676ZM55.365,9.635a.712.712,0,1,0,.712.712A.712.712,0,0,0,55.365,9.635ZM52.133,6.219a.9.9,0,1,0-.9.9A.9.9,0,0,0,52.133,6.219Zm.676,0a1.571,1.571,0,1,1-1.572-1.572A1.573,1.573,0,0,1,52.808,6.219ZM59,2.233a.338.338,0,0,1-.338.338H57.173V4.059a.338.338,0,0,1-.676,0V2.57H55.009a.338.338,0,1,1,0-.676H56.5V.406a.338.338,0,0,1,.676,0V1.895h1.489A.338.338,0,0,1,59,2.233Z" fill="#077942" fill-rule="evenodd"/>
      </g>
    </g>
  </g>
</svg>
