<svg xmlns="http://www.w3.org/2000/svg" viewBox="0 0 44.26 47.28"><g data-name="Livello 2"><g data-name="Livello 1"><g data-name="Livello 2"><path d="m37.06 14.45 2.2-5.1 5-2.15-5-2.05L37.06 0l-2.25 5.15-5 2.05 5 2.15 2.25 5.1z"/><path d="M41.23 19.2a25.77 25.77 0 0 0-1.12-3.8l-2.4 5.4a8.23 8.23 0 0 1 .17 1.05A12.66 12.66 0 0 1 38 23.3a16.69 16.69 0 0 1-5 12.2 16.55 16.55 0 0 1-12.12 5 16.38 16.38 0 0 1-12.15-5.1 17.06 17.06 0 0 1-5-12.4 21.69 21.69 0 0 0 7.45-4.83 21.68 21.68 0 0 0 4.8-7 23.85 23.85 0 0 0 8.3 6.17 21.51 21.51 0 0 0 11.35 1.38l-3.05-7-9.9-4.85 6.45-2.7a32.4 32.4 0 0 0-4.2-1.22 19.92 19.92 0 0 0-4.05-.38 20.47 20.47 0 0 0-8.25 1.65A20.63 20.63 0 0 0 0 22.73v-.05 24.6h41.61V22.72a20.19 20.19 0 0 0-.38-3.52Z"/><path d="M16.6 33.14c1.5.53 2.76 1.22 4.21 1.2s2.72-.67 4.21-1.2l.07.11a6.15 6.15 0 0 1-4.28 2.55 6.13 6.13 0 0 1-4.28-2.55l.07-.11Zm-6.21-9.47c1.38.68 2.54 1.57 3.88 1.55s2.5-.87 3.88-1.55l.06.14c-1.09 1.8-2.45 3.25-3.94 3.28s-2.85-1.48-3.94-3.28l.06-.14Zm13.08 0c1.38.68 2.54 1.57 3.88 1.55s2.5-.87 3.88-1.55l.06.14c-1.09 1.8-2.45 3.25-3.94 3.28s-2.85-1.48-3.94-3.28l.06-.14Zm-6.04-2.06a10 10 0 0 0-3-.78 9.41 9.41 0 0 0-3 .78v-.07a4.51 4.51 0 0 1 3.09-1.64 4.59 4.59 0 0 1 3.09 1.64l-.05.07Zm12.83 0a10 10 0 0 0-3-.78 9.41 9.41 0 0 0-3 .78l-.05-.07a4.51 4.51 0 0 1 3.09-1.64 4.59 4.59 0 0 1 3.09 1.64v.07Z"/></g></g></g></svg>