<svg xmlns="http://www.w3.org/2000/svg" width="907.482" height="237.427" viewBox="0 0 907.482 237.427">
  <g id="Raggruppa_2840" data-name="Raggruppa 2840" transform="translate(-493.765 -1311.289)">
    <path id="Tracciato_2892" data-name="Tracciato 2892" d="M596.457,1437.471a34.355,34.355,0,1,1-34.355-34.355V1367a69.3,69.3,0,0,0-68.265,66.216l-.072-.1v115.6h34.544v-52.458a69.314,69.314,0,0,0,104.05-58.787Z" fill="#00837d"/>
    <path id="Tracciato_2893" data-name="Tracciato 2893" d="M657.018,1367H632.359v-25.173H596.91V1367H572.5v35.149H596.91v24.516h35.449v-24.516h24.659Z" fill="#25ad97"/>
    <circle id="Ellisse_697" data-name="Ellisse 697" cx="28.941" cy="28.941" r="28.941" transform="translate(1343.365 1449.585)" fill="#00837d"/>
    <g id="Raggruppa_2839" data-name="Raggruppa 2839">
      <path id="Tracciato_2894" data-name="Tracciato 2894" d="M666.385,1311.289h22.8v78.233h.518a42.335,42.335,0,0,1,16.321-16.062,46.936,46.936,0,0,1,23.315-6.475c16.84,0,43.781,10.362,43.781,53.622v74.61h-22.8V1423.2c0-20.206-7.514-37.3-29.014-37.3-14.766,0-26.424,10.362-30.569,22.8-1.3,3.108-1.555,6.475-1.555,10.879v75.645h-22.8Z" fill="#171a1c"/>
      <path id="Tracciato_2895" data-name="Tracciato 2895" d="M879.577,1495.217l-1.813-15.8h-.776c-7,9.845-20.467,18.651-38.341,18.651-25.388,0-38.341-17.876-38.341-36.008,0-30.311,26.943-46.89,75.386-46.63v-2.591c0-10.362-2.85-29.015-28.5-29.015a62.463,62.463,0,0,0-32.641,9.326l-5.181-15.023c10.362-6.736,25.387-11.14,41.19-11.14,38.34,0,47.666,26.163,47.666,51.292v46.89c0,10.879.518,21.5,2.073,30.05Zm-3.367-63.987c-24.87-.518-53.107,3.886-53.107,28.237,0,14.766,9.844,21.762,21.5,21.762,16.321,0,26.683-10.362,30.309-20.984a23.771,23.771,0,0,0,1.3-7.253Z" fill="#171a1c"/>
      <path id="Tracciato_2896" data-name="Tracciato 2896" d="M935.005,1408.95c0-14.763-.259-27.459-1.036-39.117h19.948l.776,24.611h1.037c5.7-16.837,19.43-27.459,34.714-27.459a24.554,24.554,0,0,1,6.478.778v21.5a34.168,34.168,0,0,0-7.774-.778c-16.062,0-27.461,12.176-30.568,29.273a64.06,64.06,0,0,0-1.037,10.622v66.836H935.005Z" fill="#171a1c"/>
      <path id="Tracciato_2897" data-name="Tracciato 2897" d="M1020.746,1403.77c0-12.953-.258-23.575-1.036-33.937h19.949l1.035,20.206h.778c7-11.914,18.653-23.054,39.377-23.054,17.1,0,30.05,10.362,35.49,25.128h.518a51.691,51.691,0,0,1,13.988-16.322c7.514-5.7,15.805-8.806,27.72-8.806,16.579,0,41.19,10.879,41.19,54.4v73.832h-22.28v-70.98c0-24.093-8.806-38.6-27.2-38.6-12.953,0-23.057,9.587-26.941,20.727a37.479,37.479,0,0,0-1.813,11.4v77.458h-22.28V1420.09c0-19.946-8.809-34.455-26.166-34.455-14.246,0-24.608,11.4-28.237,22.8a31.422,31.422,0,0,0-1.814,11.14v75.645h-22.279Z" fill="#171a1c"/>
      <path id="Tracciato_2898" data-name="Tracciato 2898" d="M1306.211,1495.217l-1.813-15.8h-.778c-6.993,9.845-20.464,18.651-38.339,18.651-25.388,0-38.341-17.876-38.341-36.008,0-30.311,26.941-46.89,75.384-46.63v-2.591c0-10.362-2.848-29.015-28.494-29.015a62.469,62.469,0,0,0-32.642,9.326l-5.182-15.023c10.365-6.736,25.388-11.14,41.19-11.14,38.341,0,47.668,26.163,47.668,51.292v46.89c0,10.879.518,21.5,2.071,30.05Zm-3.366-63.987c-24.871-.518-53.108,3.886-53.108,28.237,0,14.766,9.844,21.762,21.5,21.762,16.323,0,26.685-10.362,30.311-20.984a23.862,23.862,0,0,0,1.3-7.253Z" fill="#171a1c"/>
    </g>
  </g>
</svg>
