<svg xmlns="http://www.w3.org/2000/svg" width="138" height="89" viewBox="0 0 138 89">
  <g id="Raggruppa_2815" data-name="Raggruppa 2815" transform="translate(-195.288 -160)">
    <g id="Group_8540" data-name="Group 8540" transform="translate(8.288 -30)">
      <rect id="Rectangle_17433" data-name="Rectangle 17433" width="138" height="89" rx="5" transform="translate(187 190)" fill="#83cdf0"/>
      <path id="Path_5406" data-name="Path 5406" d="M.5,0A.533.533,0,0,1,.853.13l4,3.556a.41.41,0,0,1,0,.628l-4,3.556A.533.533,0,0,1,.5,8a.533.533,0,0,1-.354-.13.41.41,0,0,1,0-.628L3.793,4,.146.759A.421.421,0,0,1,0,.444.421.421,0,0,1,.146.13.533.533,0,0,1,.5,0Z" transform="translate(311 203)" fill="#fff"/>
    </g>
    <path id="Vector" d="M53.125,14.56a20.163,20.163,0,0,1-4.806-1.582c-.315-.158-.614-.325-.909-.508-2.674-1.676-4.5-4.445-6.638-6.653C31.6-3.635,15.514-.644,7.095,8.173A25.606,25.606,0,0,0,.3,21.78c-1.59,10.211,3.108,21.088,14.242,23.828,6.711,1.651,13.179-.172,19.838-.887a28.24,28.24,0,0,1,5.4-.035c.805.064,1.611.163,2.411.281,1.342.2,2.674.468,3.99.779,1.12.261,2.23.557,3.324.867.2.054.4.113.6.172,3,.892,6.143,2.1,9.323,3,.1.03.206.059.31.084A27.562,27.562,0,0,0,66.82,51c10.882.059,16.147-11.853,13.509-20.738-2.622-8.827-11.646-12.587-20.323-14.455-.49-.1-.976-.207-1.461-.3s-.95-.177-1.42-.261c-.3-.054-.594-.1-.893-.148-.325-.054-.65-.108-.97-.158l-.387-.059Q53.992,14.745,53.125,14.56Z" transform="translate(245.288 191)" fill="#afe5ff"/>
    <g id="Mask_Group" data-name="Mask Group" transform="translate(8.288 -30)">
      <path id="Vector-2" data-name="Vector" d="M53.125,14.56a20.163,20.163,0,0,1-4.806-1.582c-.315-.158-.614-.325-.909-.508-2.674-1.676-4.5-4.445-6.638-6.653C31.6-3.635,15.514-.644,7.095,8.173A25.606,25.606,0,0,0,.3,21.78c-1.59,10.211,3.108,21.088,14.242,23.828,6.711,1.651,13.179-.172,19.838-.887a28.24,28.24,0,0,1,5.4-.035c.805.064,1.611.163,2.411.281,1.342.2,2.674.468,3.99.779,1.12.261,2.23.557,3.324.867.2.054.4.113.6.172,3,.892,6.143,2.1,9.323,3,.1.03.206.059.31.084A27.562,27.562,0,0,0,66.82,51c10.882.059,16.147-11.853,13.509-20.738-2.622-8.827-11.646-12.587-20.323-14.455-.49-.1-.976-.207-1.461-.3s-.95-.177-1.42-.261c-.3-.054-.594-.1-.893-.148-.325-.054-.65-.108-.97-.158l-.387-.059Q53.992,14.745,53.125,14.56Z" transform="translate(187 193)" fill="#afe5ff" opacity="0.5" style="mix-blend-mode: multiply;isolation: isolate"/>
    </g>
    <g id="Frame" transform="translate(264.288 204.5)">
      <g id="Group">
        <path id="Vector-3" data-name="Vector" d="M9.667,3.238A1.612,1.612,0,0,1,8.054,4.856H1.613A1.612,1.612,0,0,1,0,3.238V1.619A1.617,1.617,0,0,1,1.613,0H8.054A1.617,1.617,0,0,1,9.667,1.619Z" transform="translate(6.441)" fill="#2d2d2d"/>
        <path id="Vector-4" data-name="Vector" d="M54.775,0H3.225A3.229,3.229,0,0,0,0,3.238V32.348a3.229,3.229,0,0,0,3.225,3.238H54.775A3.235,3.235,0,0,0,58,32.348V3.238A3.235,3.235,0,0,0,54.775,0Z" transform="translate(0 2.424)" fill="#2a87b2"/>
        <g id="Group-2" data-name="Group">
          <path id="Vector-5" data-name="Vector" d="M0,15.365A15.306,15.306,0,1,0,15.306,0,15.334,15.334,0,0,0,0,15.365Z" transform="translate(22.559 4.847)" fill="#d8d7d6"/>
          <path id="Vector-6" data-name="Vector" d="M11.676,23.449A11.725,11.725,0,1,1,23.36,11.729,11.707,11.707,0,0,1,11.676,23.449Z" transform="translate(26.18 8.492)" fill="#eee"/>
          <path id="Vector-7" data-name="Vector" d="M16.108,8.085A8.054,8.054,0,1,1,8.054,0,8.069,8.069,0,0,1,16.108,8.085Z" transform="translate(29.802 12.127)" fill="#2eaeb7"/>
          <path id="Vector-8" data-name="Vector" d="M9.667,5.652a.814.814,0,0,1-.811.814H.8A.806.806,0,0,1,0,5.652V.8A.8.8,0,0,1,.8,0H8.856a.812.812,0,0,1,.811.8Z" transform="translate(33.027 16.993)" fill="#586273"/>
        </g>
        <g id="Group-3" data-name="Group">
          <path id="Vector-9" data-name="Vector" d="M16.117,3.228A1.612,1.612,0,0,1,14.5,4.847H1.613A1.612,1.612,0,0,1,0,3.228V1.619A1.612,1.612,0,0,1,1.613,0H14.5a1.612,1.612,0,0,1,1.613,1.619Z" transform="translate(4.829 7.28)" fill="#2d2d2d"/>
          <path id="Vector-10" data-name="Vector" d="M0,0H9.667V4.856H0Z" transform="translate(8.054 7.28)" fill="#ffb468"/>
        </g>
        <path id="Vector-11" data-name="Vector" d="M4.829,2.424A2.414,2.414,0,1,1,2.414,0,2.419,2.419,0,0,1,4.829,2.424Z" transform="translate(12.892 15.365)" fill="#f8d08e"/>
      </g>
    </g>
  </g>
</svg>
