<svg xmlns="http://www.w3.org/2000/svg" width="60" height="60" viewBox="0 0 60 60">
  <g id="Group_8925" data-name="Group 8925" transform="translate(-213 -339)">
    <g id="Group_356" data-name="Group 356">
      <rect id="Rectangle_17431" data-name="Rectangle 17431" width="60" height="60" rx="10" transform="translate(213 339)" fill="#5285f5"/>
      <path id="Vector" d="M10.034,0,20.5,1.5,22,11.968l-9.723,9.723a1.058,1.058,0,0,1-1.5,0L.31,11.22a1.058,1.058,0,0,1,0-1.5Zm.748,2.245L2.553,10.472l8.976,8.975,8.227-8.227L18.635,3.366,10.781,2.245Zm2.242,6.732a2.116,2.116,0,1,1,1.5.62,2.116,2.116,0,0,1-1.5-.62Z" transform="translate(232 358)" fill="#fff"/>
    </g>
  </g>
</svg>
