<svg xmlns="http://www.w3.org/2000/svg" width="25" height="21.131" viewBox="0 0 25 21.131">
  <g id="Frame" transform="translate(0 10.417)">
    <path id="Vector" d="M0,0H25V10.714H0Z" fill="none"/>
    <path id="Vector-2" data-name="Vector" d="M15.625,2.083h4.167a1.042,1.042,0,0,1,1.042,1.042V19.792a1.042,1.042,0,0,1-1.042,1.042H1.042A1.042,1.042,0,0,1,0,19.792V3.125A1.042,1.042,0,0,1,1.042,2.083H5.208V0H7.292V2.083h6.25V0h2.083Zm3.125,8.333H2.083V18.75H18.75Zm-5.208-6.25H7.292V6.25H5.208V4.167H2.083V8.333H18.75V4.167H15.625V6.25H13.542ZM4.167,12.5H6.25v2.083H4.167Zm5.208,0h2.083v2.083H9.375Zm5.208,0h2.083v2.083H14.583Z" transform="translate(2.083 -10.417)" fill="#fff"/>
  </g>
</svg>
