<svg xmlns="http://www.w3.org/2000/svg" width="60" height="60" viewBox="0 0 60 60">
  <g id="Group_357" data-name="Group 357" transform="translate(-305 -339)">
    <g id="Group_8926" data-name="Group 8926" transform="translate(305 339)">
      <rect id="Rectangle_17428" data-name="Rectangle 17428" width="60" height="60" rx="10" fill="#ee7d54"/>
    </g>
    <g id="Group_359" data-name="Group 359" transform="translate(-0.503 -0.503)">
      <g id="coronavirus" transform="translate(323.6 357.6)">
        <g id="XMLID_427_" transform="translate(0 0)">
          <g id="Group_51" data-name="Group 51">
            <path id="Path_24" data-name="Path 24" d="M24.373,17.578a.8.8,0,0,1,.619.939l-.31,1.611a.784.784,0,0,1-.957.622.815.815,0,0,1-.577-.952l.009-.043-2.044.1a.148.148,0,0,0-.134.1,9.061,9.061,0,0,1-.78,1.75.154.154,0,0,0,.014.175l.9,1.1a.929.929,0,0,1,1.223-.067.977.977,0,0,1,.176,1.35l-.262.349a.946.946,0,0,1-1.3.227.974.974,0,0,1-.359-1.1l-1.3-.584a.147.147,0,0,0-.17.038,8.925,8.925,0,0,1-2.082,1.721.153.153,0,0,0-.072.156l.333,2.074.288-.118a.78.78,0,0,1,1.033.482.819.819,0,0,1-.47,1.011l-1.474.6a.78.78,0,0,1-1.032-.482.82.82,0,0,1,.47-1.012l.04-.016-1.189-1.7a.147.147,0,0,0-.159-.058,8.713,8.713,0,0,1-4,.106.149.149,0,0,0-.156.067l-1.189,1.9.042.015a.972.972,0,0,1,.627.914.99.99,0,0,1-.058.334.667.667,0,0,1-.953.681l-1.462-.544a.971.971,0,0,1,.677-1.819l.034.012.242-2.231a.153.153,0,0,0-.08-.152,8.892,8.892,0,0,1-2.455-1.913.147.147,0,0,0-.166-.038l-1.784.746a.867.867,0,0,1-.28,1.119A.846.846,0,0,1,2.683,24.8l-.457-.671a.884.884,0,0,1,.156-1.181.829.829,0,0,1,1.191.156l1.256-1.449a.154.154,0,0,0,.018-.174,9.082,9.082,0,0,1-1.02-3.121.15.15,0,0,0-.113-.128l-2.008-.473,0,.24a.881.881,0,0,1-.255.615.847.847,0,0,1-.605.254A.853.853,0,0,1,0,18l.013-1.488a.879.879,0,0,1,.875-.884.861.861,0,0,1,.829.873l1.993-.477a.15.15,0,0,0,.113-.128,9.08,9.08,0,0,1,1.1-3.285.155.155,0,0,0-.015-.174L3.957,11.3l-.083.111a.738.738,0,0,1-1.075.126.788.788,0,0,1-.1-1.063l.633-.854a.738.738,0,0,1,1.047-.148.773.773,0,0,1,.18,1.017l1.329.586a.148.148,0,0,0,.169-.038A8.9,8.9,0,0,1,8.231,9.265a.154.154,0,0,0,.074-.155L8,7.031l-.29.114a.78.78,0,0,1-1.026-.5.818.818,0,0,1,.484-1.005l1.481-.581a.78.78,0,0,1,1.026.5A.818.818,0,0,1,9.19,6.564l-.04.015,1.166,1.715a.147.147,0,0,0,.158.061A8.685,8.685,0,0,1,12.584,8.1h0a.149.149,0,0,0,.142-.1l.386-1.1a1.012,1.012,0,0,1,.444-1.965l.53.068a1.024,1.024,0,0,1,.887,1.116,1.006,1.006,0,0,1-.735.869l.134,1.194a.15.15,0,0,0,.116.131A8.684,8.684,0,0,1,17,9.3a.146.146,0,0,0,.168-.013l1.6-1.325-.243-.2a.81.81,0,0,1-.1-1.153A.786.786,0,0,1,19.52,6.53l1.243,1.007a.81.81,0,0,1,.1,1.153.787.787,0,0,1-1.094.085l-.034-.027-.857,1.9a.153.153,0,0,0,.029.17,9.038,9.038,0,0,1,1.519,2.138.149.149,0,0,0,.153.081l1.215-.173a.969.969,0,0,1,.6-1.242.955.955,0,0,1,1.187.6l.28.765a.989.989,0,0,1-.5,1.244.935.935,0,0,1-1.185-.383l-1.008.7a.153.153,0,0,0-.059.166,9.208,9.208,0,0,1,.318,2.406q0,.209-.01.415a.153.153,0,0,0,.089.147l1.89.842.059-.311A.785.785,0,0,1,24.373,17.578Z" transform="translate(0 -4.921)" fill="#fff"/>
          </g>
        </g>
        <ellipse id="Ellipse_3" data-name="Ellipse 3" cx="1.248" cy="1.065" rx="1.248" ry="1.065" transform="translate(15.175 6.69)" fill="#ee7d54"/>
        <ellipse id="Ellipse_4" data-name="Ellipse 4" cx="1.364" cy="1.392" rx="1.364" ry="1.392" transform="translate(10.555 12.994)" fill="#ee7d54"/>
        <ellipse id="Ellipse_5" data-name="Ellipse 5" cx="0.977" cy="0.997" rx="0.977" ry="0.997" transform="translate(16.259 12.664)" fill="#ee7d54"/>
        <ellipse id="Ellipse_6" data-name="Ellipse 6" cx="0.95" cy="0.969" rx="0.95" ry="0.969" transform="translate(12.679 17.555)" fill="#ee7d54"/>
        <g id="Group_52" data-name="Group 52" transform="translate(0 0.089)">
          <path id="Path_25" data-name="Path 25" d="M7.208,18.322a10.735,10.735,0,0,1,4.132-8.5,8.636,8.636,0,0,0-.866.17.147.147,0,0,1-.158-.061L9.15,8.217,9.19,8.2A.818.818,0,0,0,9.674,7.2a.78.78,0,0,0-1.026-.5l-1.481.581a.818.818,0,0,0-.484,1.005.78.78,0,0,0,1.026.5L8,8.668l.306,2.079a.154.154,0,0,1-.074.155,8.9,8.9,0,0,0-2.178,1.773.148.148,0,0,1-.169.038l-1.329-.586a.773.773,0,0,0-.18-1.017.738.738,0,0,0-1.047.148l-.633.854a.788.788,0,0,0,.1,1.063.738.738,0,0,0,1.075-.126l.083-.111.95,1.139a.155.155,0,0,1,.015.174,9.08,9.08,0,0,0-1.1,3.285.15.15,0,0,1-.113.128l-1.993.477a.861.861,0,0,0-.829-.873.879.879,0,0,0-.875.884L0,19.64a.853.853,0,0,0,.844.869.847.847,0,0,0,.605-.254A.881.881,0,0,0,1.7,19.64l0-.24,2.008.473A.15.15,0,0,1,3.827,20a9.082,9.082,0,0,0,1.02,3.121.154.154,0,0,1-.018.174L3.573,24.744a.829.829,0,0,0-1.191-.156.884.884,0,0,0-.156,1.181l.457.671a.846.846,0,0,0,1.165.247.867.867,0,0,0,.28-1.119l1.784-.746a.147.147,0,0,1,.166.038,8.892,8.892,0,0,0,2.455,1.913.153.153,0,0,1,.08.152l-.242,2.231-.034-.012a.971.971,0,0,0-.677,1.819l1.462.544a.667.667,0,0,0,.953-.681.99.99,0,0,0,.058-.334.972.972,0,0,0-.627-.914l-.042-.015,1.189-1.9a.149.149,0,0,1,.156-.067,8.7,8.7,0,0,0,1.774.183l.215,0A10.705,10.705,0,0,1,7.208,18.322Z" transform="translate(0 -6.647)" fill="#fff"/>
        </g>
        <ellipse id="Ellipse_7" data-name="Ellipse 7" cx="0.989" cy="1.009" rx="0.989" ry="1.009" transform="translate(6.696 15.197)" fill="#ee7d54"/>
        <g id="Group_53" data-name="Group 53" transform="translate(14.295 10.992)">
          <path id="Path_26" data-name="Path 26" d="M284.242,219.381h-.334a.386.386,0,0,1,0-.772h.334a.386.386,0,0,1,0,.772Z" transform="translate(-283.53 -218.609)" fill="#ee7d54"/>
        </g>
        <g id="Group_54" data-name="Group 54" transform="translate(9.833 17.736)">
          <path id="Path_27" data-name="Path 27" d="M195.744,350.481H195.4a.386.386,0,0,1,0-.772h.343a.386.386,0,0,1,0,.772Z" transform="translate(-195.022 -349.709)" fill="#ee7d54"/>
        </g>
        <g id="Group_55" data-name="Group 55" transform="translate(6.318 12.117)">
          <path id="Path_28" data-name="Path 28" d="M126.024,241.259h-.331a.386.386,0,0,1,0-.772h.331a.386.386,0,0,1,0,.772Z" transform="translate(-125.315 -240.487)" fill="#ee7d54"/>
        </g>
        <g id="Group_56" data-name="Group 56" transform="translate(12.905 5.368)">
          <path id="Path_29" data-name="Path 29" d="M256.791,110.042h-.46a.386.386,0,0,1,0-.772h.46a.386.386,0,0,1,0,.772Z" transform="translate(-255.952 -109.27)" fill="#ee7d54"/>
        </g>
        <g id="Group_57" data-name="Group 57" transform="translate(15.881 16.48)">
          <path id="Path_30" data-name="Path 30" d="M315.864,326.066h-.508a.386.386,0,0,1,0-.772h.508a.386.386,0,0,1,0,.772Z" transform="translate(-314.977 -325.294)" fill="#ee7d54"/>
        </g>
        <path id="Path_31" data-name="Path 31" d="M2.646,0a2.385,2.385,0,0,1,2.6,2.177A2.5,2.5,0,0,1,2.6,4.4,2.385,2.385,0,0,1,0,2.228,2.5,2.5,0,0,1,2.646,0Z" transform="translate(6.23 8.713) rotate(-38.257)" fill="#ee7d54"/>
      </g>
    </g>
  </g>
</svg>
