<?xml version="1.0" encoding="UTF-8" standalone="no"?>
<svg
   id="Livello_1"
   data-name="Livello 1"
   viewBox="0 0 426.50733 251.03358"
   version="1.1"
   width="426.50732"
   height="251.03358"
   xmlns="http://www.w3.org/2000/svg"
   xmlns:svg="http://www.w3.org/2000/svg">
  <g
     id="Livello_1-2"
     data-name="Livello 1-2"
     transform="matrix(1.057667,0,0,1,-12.346557,2.4e-4)">
    <g
       class="cls-2"
       id="g1107">
      <g
         id="Group">
        <path
           id="Vector"
           class="cls-3"
           d="m 318.62,132.79976 h -12.68 v -12 a 5.31,5.31 0 0 0 -5.45,-5.16 h -15.23 a 5.31,5.31 0 0 0 -5.45,5.16 v 12 h -12.7 a 5.33,5.33 0 0 0 -5.46,5.16 v 14.4 a 5.32,5.32 0 0 0 5.46,5.16 h 12.7 v 12 a 5.32,5.32 0 0 0 5.45,5.17 h 15.19 a 5.32,5.32 0 0 0 5.49,-5.13 v -12 h 12.71 a 5.31,5.31 0 0 0 5.45,-5.16 v -14.4 a 5.37,5.37 0 0 0 -5.48,-5.2 z m 3,19.55 a 2.9,2.9 0 0 1 -2.92957,2.87011 l -0.0104,-1.2e-4 h -14 a 1.18,1.18 0 0 0 -1.20978,1.14945 v 0 l -2.1e-4,0.0106 v 0 13.15 a 2.92,2.92 0 0 1 -2.96847,2.8707 l -0.0315,-7e-4 h -15.21 a 2.89,2.89 0 0 1 -3,-2.77 v -0.09 0 -13.2 a 1.19,1.19 0 0 0 -1.22,-1.15 h -13.93 a 3,3 0 0 1 -3,-2.85 v 0 -14.34 a 2.9,2.9 0 0 1 2.94912,-2.85 H 281.06 a 1.18,1.18 0 0 0 1.21,-1.14924 v 0 -7.6e-4 0 -13.24 a 2.9,2.9 0 0 1 2.93945,-2.86 H 300.48 a 2.9,2.9 0 0 1 3,2.78 v 0.08 0 13.24 a 1.18,1.18 0 0 0 1.20923,1.15 H 318.63 a 2.91,2.91 0 0 1 3,2.78 v 0.07 0 z" />
        <path
           id="Vector-2"
           class="cls-3"
           d="m 317.28,138.10976 h -17 v -16 a 1.18,1.18 0 0 0 -1.19965,-1.16 H 286.64 a 1.21,1.21 0 0 0 -1.23,1.15 v 0 16 h -16.92 a 1.18,1.18 0 0 0 -1.21948,1.13914 v 0 l -5.2e-4,0.0208 v 0 11.74 a 1.18,1.18 0 0 0 1.19943,1.16023 v 0 l 0.0106,-2.2e-4 h 16.93 v 16.05 a 1.18,1.18 0 0 0 1.209,1.15031 h 1.2e-4 l 0.011,-3.2e-4 h 12.45 a 1.18,1.18 0 0 0 1.21,-1.14923 v 0 -7.6e-4 0 -16 h 17 a 1.18,1.18 0 0 0 1.21948,-1.13915 v 0 l 4.6e-4,-0.0209 v 0 -11.78 a 1.19,1.19 0 0 0 -1.21,-1.16 z m -1.22,11.79 h -17 a 1.19,1.19 0 0 0 -1.22,1.15922 v 0 7.8e-4 0 16 h -10 v -16 a 1.18,1.18 0 0 0 -1.209,-1.15032 v 0 l -0.011,3.3e-4 h -16.91 v -9.47 h 16.93 a 1.19,1.19 0 0 0 1.22,-1.15922 v 0 -7.8e-4 0 -16.06 h 10 v 16.05 a 1.18,1.18 0 0 0 1.20922,1.15 H 316 Z" />
      </g>
      <path
         id="Vector-4"
         class="cls-3"
         d="m 383.83,39.10976 a 3.51,3.51 0 0 1 -3,-0.94 v 0 a 2.8,2.8 0 0 0 0.86,-3.72 l -0.18,-0.28 -2.51,-3.17 a 3.18,3.18 0 0 0 -4.26,-0.64 l -21.42,14.71 a 2.81,2.81 0 0 0 -0.86,3.73 2.53513,2.53513 0 0 0 0.18,0.27 l 2.47,3.21 a 3.13,3.13 0 0 0 3.78,0.9 3.08,3.08 0 0 1 0,3 5.45,5.45 0 0 0 0.48,6 l 17.37,22.69 a 6.77,6.77 0 0 0 9.14,1.37 l 19.69,-13.47 a 6,6 0 0 0 1.73,-8.30705 v 0 0 q -0.11856,-0.18093 -0.24991,-0.35294 L 389.67,41.41976 a 6.19,6.19 0 0 0 -5.84,-2.31 z m -29,8.48 a 0.39,0.39 0 0 1 0.06,-0.54 v 0 l 21.38,-14.75 a 0.45,0.45 0 0 1 0.6,0.09 l 2.46,3.21 a 0.4,0.4 0 0 1 -0.05,0.55 v 0 l -21.5,14.78 a 0.43,0.43 0 0 1 -0.6,-0.09 z m 50.17,17.94 a 3.64,3.64 0 0 1 -0.47,4.91 2.699,2.699 0 0 1 -0.4,0.29 l -19.74,13.57 a 4.07,4.07 0 0 1 -5.48,-0.83 l -2.75,-3.58 26,-17.9 z m -15.31,-20 -6,4.14 a 1.22,1.22 0 0 0 -0.45,1.59 l 0.08,0.13 a 1.35,1.35 0 0 0 1.82,0.35 l 0.08,-0.06 6,-4.14 9.45,12.39 -26,17.9 -9.46,-12.39 15,-10.33 a 1.18,1.18 0 0 0 0.35,-1.58 1.2976,1.2976 0 0 0 -0.1,-0.15 1.37,1.37 0 0 0 -1.78,-0.27 l -15.13,10.36 -2.07,-2.71 a 3.16,3.16 0 0 1 -0.28,-3.4 5.42,5.42 0 0 0 -0.18,-5.6 l 17.59,-12.1 a 6.17,6.17 0 0 0 5.57,1.91 3.5,3.5 0 0 1 3.32,1.3 z m -53.52,24.23 -2.54,1.75 a 2.17,2.17 0 0 0 -0.69,2.88 1.43035,1.43035 0 0 0 0.16,0.24 l 3.08,4 -4.25,2.91 a 2.18,2.18 0 0 0 -0.67,2.89 1.81893,1.81893 0 0 0 0.15,0.23 l 1.85,2.4 a 2.44,2.44 0 0 0 3.29,0.5 l 4.23,-2.91 3.07,4 a 2.45,2.45 0 0 0 3.29,0.5 l 2.55,-1.75 a 2.16,2.16 0 0 0 0.68,-2.88 l -0.16,-0.24 -3.07,-4 4.23,-2.91 a 2.16,2.16 0 0 0 0.71,-2.84 2.74824,2.74824 0 0 0 -0.19,-0.28 v 0 l -1.84,-2.41 a 2.45,2.45 0 0 0 -3.29,-0.49 l -4.23,2.91 -3.08,-4 a 2.44,2.44 0 0 0 -3.28,-0.5 z m 11.92,3.75 1.54,2 -4.63,3.2 a 1.67,1.67 0 0 0 -0.54,2.22 1.37,1.37 0 0 0 0.13,0.2 v 0 l 3.36,4.43 -2.16,1.44 -3.38,-4.42 a 1.9,1.9 0 0 0 -2.56,-0.39 v 0 l -4.66,3.21 -1.53,-2 4.65,-3.2 a 1.65,1.65 0 0 0 0.55,-2.2 l -0.14,-0.22 v 0 l -3.38,-4.42 2.18,-1.46 3.38,4.41 a 1.87,1.87 0 0 0 2.55,0.39 v 0 z m -21.47,-30.09 -2.27,-3 a 2.92,2.92 0 0 0 0.49,-3.94 v -0.06 l -3.35,-4.31 a 5.3,5.3 0 0 0 -7.14,-1.06 l -12.85,8.76 a 4.7,4.7 0 0 0 -1.5,6.19 4.0643,4.0643 0 0 0 0.37,0.55 l 3.34,4.36 a 3.33,3.33 0 0 0 4.19,0.85 l 2.27,3 -2.17,12.35 a 6.31008,6.31008 0 0 0 1.24,5 l 11.81,15.42 a 1.35,1.35 0 0 0 1.84,0.2 1.18,1.18 0 0 0 0.33,-1.58 l -0.05,-0.08 -6.62,-8.64 30.77,-21.2 19.38,25.31 -30.7,21.16 -9.18,-12 a 1.35,1.35 0 0 0 -1.83,-0.21 1.21,1.21 0 0 0 -0.33,1.61 l 0.05,0.06 14.08,18.38 a 7.26,7.26 0 0 0 9.8,1.45 l 23.63,-16.23 a 6.42,6.42 0 0 0 2.09,-8.51 7.801,7.801 0 0 0 -0.5,-0.77 l -29.54,-38.48 a 7,7 0 0 0 -4.58,-2.66 z m 45,44.52 a 4.07,4.07 0 0 1 -0.59,5.5 2.83219,2.83219 0 0 1 -0.45,0.32 l -23.58,16.24 a 4.53,4.53 0 0 1 -6.14,-0.9 l -3.31,-4.4 30.76,-21.15 z m -65.81,-38.46 -3.35,-4.37 a 2.29,2.29 0 0 1 0.32,-3.1 l 0.26,-0.2 12.81,-8.81 a 2.61,2.61 0 0 1 3.49,0.51 l 3.34,4.36 a 0.56,0.56 0 0 1 -0.08,0.75 h -0.06 l -15.9,10.98 a 0.6,0.6 0 0 1 -0.83,-0.12 z m 16.44,-7.55 1.8,2.36 -12.24,8.42 -1.81,-2.36 z m 23.55,12.29 -30.8,21.16 -3.65,-4.78 a 3.99993,3.99993 0 0 1 -0.78,-3.09 l 2.12,-12.4 13.46,-9.25 13.08,1.93 a 4.39,4.39 0 0 1 2.83,1.66 z" />
      <path
         id="Vector-5"
         class="cls-3"
         d="m 127.45,136.34977 a 1.12,1.12 0 0 0 0.78,-1.34 0.29015,0.29015 0 0 0 0,-0.09 14.20005,14.20005 0 0 1 -0.79,-4.65 c 0,-5.71 8.4,-16.13 15.71,-23.44 7.32,7.31 15.71,17.72 15.71,23.44 0,8.22 -7,14.89 -15.7,14.89 a 16.06,16.06 0 0 1 -12.52,-5.89 1.24,1.24 0 0 0 -1.64,-0.27 1.17327,1.17327 0 0 0 -0.31,1.58 l 0.07,0.09 a 18.79,18.79 0 0 0 25.38,3.26 16.84,16.84 0 0 0 7.14,-13.64 c 0,-8.12 -12.75,-21.42 -16.66,-25.3 a 2.09,2.09 0 0 0 -2.84,0 v 0 c -4,3.88 -16.74,17.18 -16.74,25.3 a 16.37935,16.37935 0 0 0 1,5.32 1.23,1.23 0 0 0 1.51,0.72 z m 33.69,18.38 a 5.74,5.74 0 0 0 -4.18,-1.36 l -25.82,2 a 4.79,4.79 0 0 0 -1.27,-5.19 l -12.49,-11.64 a 6.38,6.38 0 0 0 -4.35,-1.68 H 86.39 a 1.1,1.1 0 0 0 -1.18,1 v 0 a 1.14,1.14 0 0 0 1,1.25 H 113 a 3.86,3.86 0 0 1 2.67,1 l 12.49,11.62 a 2.58,2.58 0 0 1 0.38,3.49 2.61,2.61 0 0 1 -0.27,0.31 3,3 0 0 1 -4,0.11 l -0.13,-0.11 -5.24,-5 a 1.23,1.23 0 0 0 -1.69,0 1,1 0 0 0 -0.19,1.4 0.89,0.89 0 0 0 0.19,0.2 v 0 l 5.24,5.08 a 5.49,5.49 0 0 0 6.7,0.62 l 28,-2.3 a 3.10013,3.10013 0 0 1 2.35,0.77 2.84,2.84 0 0 1 0.44,3.84 v 0.06 a 3.13986,3.13986 0 0 1 -1.59,1.06 l -12.35,3.6 a 1.11,1.11 0 0 0 -0.81,1.34 v 0.07 a 1.22,1.22 0 0 0 1.49,0.77 v 0 l 12.32,-3.54 a 5.50014,5.50014 0 0 0 2.84,-1.88 5.08,5.08 0 0 0 -0.64,-6.86 z m -16.41,-35.35 h -3.17 a 2.19,2.19 0 0 0 -2.25992,2.11777 l -8e-5,0.002 v 0 5.13 h -5.4 a 2.2,2.2 0 0 0 -2.25,2.13 v 3 a 2.22,2.22 0 0 0 2.25,2.14 h 5.41 v 5.1 a 2.2,2.2 0 0 0 2.25,2.14 h 3.17 a 2.21,2.21 0 0 0 2.27,-2.14 v -5.12 h 5.43 a 2.21,2.21 0 0 0 2.26,-2.14 v -3 a 2.2,2.2 0 0 0 -2.26,-2.13 H 147 v -5.13 a 2.2,2.2 0 0 0 -2.25,-2.13 z m 7.56,9.52 v 2.74 h -5.93 a 1.66,1.66 0 0 0 -1.71936,1.59843 l -6.4e-4,0.0215 v 0 5.63 h -2.9 v -5.63 a 1.67,1.67 0 0 0 -1.70845,-1.63065 v 0 l -0.0216,6.6e-4 h -5.93 v -2.73 H 140 a 1.68,1.68 0 0 0 1.72,-1.63 v 0 -5.63 h 2.9 v 5.63 a 1.68,1.68 0 0 0 1.72,1.63 z m -11.55,37.54 -12.15,3.56 a 11.7,11.7 0 0 1 -10.59,-2.13 l -16,-12.83 a 6.31011,6.31011 0 0 0 -4,-1.38 H 86.39 a 1.1,1.1 0 0 0 -1.18,1 v 0 a 1.14,1.14 0 0 0 1,1.25 h 11.84 a 3.84,3.84 0 0 1 2.43,0.84 l 16,12.82 a 14.21,14.21 0 0 0 12.8,2.51 l 12.15,-3.5 a 1.14,1.14 0 0 0 0.83,-1.33 0.2403,0.2403 0 0 1 0,-0.08 1.21,1.21 0 0 0 -1.49,-0.76 v 0 z" />
      <g
         id="Group-6">
        <path
           id="Vector-8"
           class="cls-3"
           d="m 55.13,165.53975 a 28.63,28.63 0 0 0 -16.36,4.19 l -3.37,2.07 -0.12,0.07 a 5.85994,5.85994 0 0 0 -3.34,0.88 l -0.76,0.47 a 9.81,9.81 0 0 0 -4.78,7.64 l -2.14,1.32 a 1.42,1.42 0 0 0 -0.52,1.87 1.74274,1.74274 0 0 0 0.11,0.18 1.63,1.63 0 0 0 2.1,0.43 l 2.14,-1.32 a 11,11 0 0 0 9.39,-1 l 0.72,-0.48 a 5.58989,5.58989 0 0 0 2.26,-2.66 l 3.37,-2.08 a 19.25,19.25 0 0 1 7.61,-2.66 19,19 0 0 1 18,7.88 l 1.26,1.85 a 17,17 0 0 1 -4.41,23.6 v 0 c -0.32,0.21 -0.64,0.42 -1,0.62 l -6.18,3.8 -0.72,-1 a 24.5,24.5 0 0 0 4.21,-32.42 l -1.14,-1.66 a 1.59,1.59 0 0 0 -2.15,-0.44 v 0 l -42.42,26.05 a 1.42,1.42 0 0 0 -0.51,1.88 l 0.06,0.12 v 0 l 1.14,1.67 c 7.09,10.33 21,14.35 33,9.56 l 0.88,1.29 -1.15,0.71 a 7.57,7.57 0 0 0 -2.73,10.35 v 0 c 0.09,0.16 0.19,0.31 0.29,0.46 a 8.54,8.54 0 0 0 11.41,2.31 l 1.16,-0.71 0.85,1.24 -4.73,2.89 a 9.1,9.1 0 0 0 -3.37044,12.42015 v 0 l 0.04044,0.0698 v 0 c 0.11,0.19 0.23,0.37 0.36,0.56 a 1.6,1.6 0 0 0 2.14,0.44 l 31.33,-19.17 a 1.43,1.43 0 0 0 0.53,-1.89 0.41074,0.41074 0 0 0 -0.07,-0.11 v 0 A 10.27,10.27 0 0 0 75,223.3697 l -1,-1.51 a 8.62,8.62 0 0 0 -7.42,-3.67 l 3.79,-2.33 c 12.85,-8 16.49,-24.25 8.14,-36.44 l -1.26,-1.85 a 28.19,28.19 0 0 0 -22.07,-12 z m -18.62,13.88 -0.73,0.44 a 7.74,7.74 0 0 1 -6.23,0.81 6.9,6.9 0 0 1 3.32,-5 l 0.76,-0.47 a 2.73,2.73 0 0 1 3.65,0.74 2.44,2.44 0 0 1 -0.5,3.28 l -0.27,0.18 z m -11.09,30.86 24.78,-15.23 a 1.43,1.43 0 0 0 0.58,-1.87 0.53967,0.53967 0 0 0 -0.07,-0.13 1.59,1.59 0 0 0 -2.13,-0.49 H 48.51 L 23,208.22976 a 23.68986,23.68986 0 0 1 -2.83,-3.42 l -0.3,-0.43 39.79,-24.44 0.3,0.44 c 7.12,10.41 4,24.32 -7,31.07 a 24.81,24.81 0 0 1 -27.54,-1.17 z m 30.51,2.81 4.92,7.19 -2.61,1.58 -4.92,-7.19 c 0.45,-0.25 0.9,-0.5 1.33,-0.77 0.43,-0.27 0.86,-0.52999 1.28,-0.80999 z m 19.52,13.35 a 7.12,7.12 0 0 1 8.45,0.76 l -28.35,17.45 a 6.31,6.31 0 0 1 2.72,-7.65 z m -11.61,3.61 -0.84,-1.25 4.23,-2.62 a 0.8,0.8 0 0 1 1.09,0.22 0.72,0.72 0 0 1 -0.16,1 h -0.07 z m 7.49,-6.59 1,1.4 -1,0.6 a 4,4 0 0 0 -5.06,-2.09 3.19037,3.19037 0 0 0 -0.7,0.33 l -8,4.94 a 5.32,5.32 0 0 1 -7.11,-1.43 4.75,4.75 0 0 1 1,-6.39 4.61972,4.61972 0 0 1 0.55,-0.35 v 0 l 1.16,-0.71 2.55,3.72 -0.5,0.3 a 0.33,0.33 0 0 1 -0.44,-0.09 1.6,1.6 0 0 0 -2.14,-0.48 1.43,1.43 0 0 0 -0.55,1.94 v 0 0.06 l 0.05,0.07 a 3.58,3.58 0 0 0 4.73,1 l 7,-4.31 a 5.57,5.57 0 0 1 7.48,1.51 z m -2.7,-10.08 -6.14,3.8 -1.68,-2.47 6.19,-3.85 c 10,-6.17 12.79,-18.82 6.29,-28.28 l -1.3,-1.81 a 22.37,22.37 0 0 0 -29.84,-6.09 l -1.59,1 a 5.24026,5.24026 0 0 0 -1.65,-2.48 l 1.63,-1 c 11.44,-7 26.71,-3.91 34.11,6.94 v 0 l 1.22,1.86 c 7.41,10.86001 4.18,25.32002 -7.24,32.38002 z" />
      </g>
      <g
         id="XMLID_987"
         data-name="XMLID 987">
        <g
           id="XMLID_488"
           data-name="XMLID 488">
          <path
             id="XMLID_504"
             data-name="XMLID 504"
             class="cls-3"
             d="m 352.83,193.29976 a 22.49,22.49 0 0 0 -30.57,0 19.77,19.77 0 0 0 -1.05069,27.93926 v 0 l 7e-4,7.5e-4 v 0 c 0.34,0.37 0.69,0.72 1.05,1.06 a 22.47,22.47 0 0 0 30.57,0 19.77,19.77 0 0 0 1.06106,-27.93885 l -0.001,-0.001 v 0 C 353.55,193.99976 353.2,193.63976 352.83,193.29976 Z m -2.73,2.59 a 16.18,16.18 0 0 1 1.68,21.93 l -0.4,0.48 -24.94,-23.63 a 18.52,18.52 0 0 1 23.66,1.22 z m -25.1,23.78 a 16.2,16.2 0 0 1 -1.69,-21.94 c 0.13,-0.16 0.26,-0.32 0.4,-0.47 l 24.94,23.64 a 18.49,18.49 0 0 1 -23.65,-1.23 z" />
          <path
             id="XMLID_950"
             data-name="XMLID 950"
             class="cls-3"
             d="m 410,196.33976 a 17.41,17.41 0 0 0 -15.12,-4.34 1.83,1.83 0 0 0 -1.46,2.11 v 0.1 a 2,2 0 0 0 2.19,1.39 c 7,-1.29 13.82,3 15.19,9.7 a 11.83,11.83 0 0 1 -3.56,11 l -13,12.37 -18.35,-17.37 6.9,-6.54 a 1.77,1.77 0 0 0 0,-2.41 1.70935,1.70935 0 0 0 -0.2,-0.18 2,2 0 0 0 -2.56,0 l -22.68,21.5 a 15.36,15.36 0 0 0 -1.92,20.8 12.92315,12.92315 0 0 0 1.57,1.73 17.48,17.48 0 0 0 23.79,0.32 l 0.33,-0.31 28.88,-27.34 a 15.41,15.41 0 0 0 1.59,-20.87 14.788,14.788 0 0 0 -1.59,-1.67 z m -31.58,47.27 a 13.46,13.46 0 0 1 -18.31,0.15 11.85,11.85 0 0 1 -1.38,-16 10.28133,10.28133 0 0 1 1.27,-1.36 l 0.15,-0.15 13.06,-12.36 18.32,17.35 z" />
          <path
             id="XMLID_1162"
             data-name="XMLID 1162"
             class="cls-3"
             d="m 356.15,186.64976 a 30.30007,30.30007 0 0 0 32.94,0 14.28,14.28 0 0 0 5.67,-18.65 13.54026,13.54026 0 0 0 -5.67,-6 30.22,30.22 0 0 0 -32.94,0 14.253,14.253 0 0 0 -5.65,18.71 13.5,13.5 0 0 0 5.65,5.94 z m 16.47,-25.9 c 10.87,0 19.72,6.07 19.72,13.55 0,7.48 -8.85,13.56 -19.72,13.56 -10.87,0 -19.71,-6.08 -19.71,-13.56 0,-7.48 8.84,-13.55 19.71,-13.55 z" />
          <path
             id="XMLID_1221"
             data-name="XMLID 1221"
             class="cls-3"
             d="m 387.59,195.79976 a 1.81,1.81 0 0 0 -1.60025,1.99785 v 0 l 2.4e-4,0.002 a 1.79,1.79 0 0 0 1.87,1.7 v 0 a 1.85,1.85 0 0 0 1.59,-2.07 1.87,1.87 0 0 0 -0.55,-1.09 2,2 0 0 0 -1.30999,-0.54 z" />
        </g>
      </g>
      <g
         id="Group-10">
        <path
           id="Vector-10"
           class="cls-3"
           d="m 190.24,92.61976 a 0.88,0.88 0 0 1 -1.06,-0.57 0.82,0.82 0 0 1 0.55,-1 h 0.06 a 0.85,0.85 0 0 1 1.05,0.57 0.77,0.77 0 0 1 -0.08,0.61 0.91009,0.91009 0 0 1 -0.49,0.39 z" />
      </g>
      <g
         id="Group-11">
        <g
           id="Group-12">
          <path
             id="Vector-11"
             class="cls-3"
             d="m 283.89,27.55976 a 2,2 0 0 0 -2.73,0 l -13,12.28 a 6.16,6.16 0 0 0 -6.71,1.07 l -4.17,4 -1.59,-1.5 a 11.13,11.13 0 0 0 -15.12,0 l -26.37,25.09 -3.41,-3.21 a 6.33,6.33 0 0 0 -8.66,-0.28 5.6,5.6 0 0 0 -0.86,7.57 6.74536,6.74536 0 0 0 0.56,0.64 l 0.29,0.27 11.8,11.19 -14.02,13.32 -5.24,-5 a 5.6,5.6 0 0 0 -7.56,0.25 4.9,4.9 0 0 0 -0.33,6.65 3.61088,3.61088 0 0 0 0.33,0.35 l 20.13,19.12 a 5.6,5.6 0 0 0 7.61,0.22 4.93,4.93 0 0 0 0.72,-6.66 4.27971,4.27971 0 0 0 -0.49,-0.55 l -0.23,-0.22 -5.25,-5 14,-13.21 11.8,11.19 a 6.36,6.36 0 0 0 8.68,0 5.61,5.61 0 0 0 0.59,-7.6 5.75829,5.75829 0 0 0 -0.59,-0.62 v 0 l -3.39,-3.22 26.46,-25 v 0 a 9.8,9.8 0 0 0 1,-13.27 9.53933,9.53933 0 0 0 -1,-1 l -1.58,-1.5 4.2,-4 a 5.33,5.33 0 0 0 1.13,-6.35 l 13,-12.29 a 1.76,1.76 0 0 0 0.25,-2.39 1.19962,1.19962 0 0 0 -0.25,-0.34 z m -71.77,87.14 a 1.4,1.4 0 0 1 0.1,1.89 l -0.1,0.11 a 1.59,1.59 0 0 1 -2.15,0 l -20.19,-19.1 a 1.39,1.39 0 0 1 -0.11,-1.88 l 0.11,-0.12 a 1.57,1.57 0 0 1 2.14,0 z m -5.26,-10.15 -4.21,-4 14,-13.29 4.23,4 z m 59.54,-43.13 a 6.27017,6.27017 0 0 1 -0.81,3.08 l -2.95,-2.79 a 2,2 0 0 0 -2.73,-0.14 1.77,1.77 0 0 0 -0.33,2.38 l 0.18,0.21 0.15,0.14 3.14,3 -2.84,2.7 -7.61,-7.26 a 2,2 0 0 0 -2.74,0.15 1.75,1.75 0 0 0 -0.06,2.37 l 0.06,0.07 7.64,7.24 -2.83,2.68 -3.13,-3 a 2,2 0 0 0 -2.74,0.14 1.76,1.76 0 0 0 -0.09,2.41 l 0.11,0.12 3.11,3 -2.83,2.68 -7.63,-7.23 a 2,2 0 0 0 -2.74,-0.13 1.77,1.77 0 0 0 -0.32,2.38 c 0.06,0.07 0.11,0.14 0.18,0.21 l 0.15,0.14 7.63,7.23 -2.84,2.68 -3.11,-3 a 2,2 0 0 0 -2.74,0.15 1.76,1.76 0 0 0 0,2.4 v 0 l 3.11,3 -2.79,2.7 -7.61,-7.21 a 2,2 0 0 0 -2.74,0.14 1.76,1.76 0 0 0 0,2.41 v 0 l 9,8.39 v 0 l 4.78,4.51 a 2.09,2.09 0 0 1 0.17,2.82 l -0.17,0.18 a 2.38,2.38 0 0 1 -3.21,0 l -33.38,-31.47 a 2.09,2.09 0 0 1 -0.17,-2.83 l 0.17,-0.17 a 2.35,2.35 0 0 1 3.2,0 v 0 l 4.78,4.52 a 2,2 0 0 0 1.38,0.54 v 0 a 2.00006,2.00006 0 0 0 1.37,-0.54 l 27.77,-26.42 a 7.11,7.11 0 0 1 9.66,0 l 11.45,10.9 a 6.22,6.22 0 0 1 2,4.57 z m 0.6,-15.23 -4.2,4 -2.8,-2.68 4.21,-4 a 2.08,2.08 0 0 1 2.84,-0.19 1.84,1.84 0 0 1 0.37,2.47 1.57077,1.57077 0 0 1 -0.17,0.21 l -0.2,0.19 z" />
        </g>
      </g>
      <g
         id="Group-13">
        <g
           id="Group-14">
          <path
             id="Vector-12"
             class="cls-3"
             d="m 248.53,58.89976 v 0 a 2,2 0 0 0 -2.74,0 1.76,1.76 0 0 0 -0.19,2.39 1.90208,1.90208 0 0 0 0.19,0.21 v 0 a 2,2 0 0 0 2.74,0 1.78,1.78 0 0 0 0.2,-2.4 z" />
        </g>
      </g>
      <g
         id="Group-15">
        <g
           id="Group-16">
          <path
             id="Vector-13"
             class="cls-3"
             d="m 237.41,69.40977 v 0 a 2,2 0 0 0 -2.74,0.08 1.77,1.77 0 0 0 -0.1,2.41 l 0.1,0.11 v 0 a 2,2 0 0 0 2.74,-0.09 1.78,1.78 0 0 0 0.1,-2.41 z" />
        </g>
      </g>
      <g
         id="Group-17">
        <g
           id="Group-18">
          <path
             id="Vector-14"
             class="cls-3"
             d="m 226.27,79.99976 v 0 a 2,2 0 0 0 -2.74,-0.15 1.77,1.77 0 0 0 -0.31,2.39 1.55957,1.55957 0 0 0 0.16,0.2 c 0,0.06 0.11,0.1 0.15,0.15 v 0 a 2,2 0 0 0 2.73,0.19 1.75,1.75 0 0 0 0.38,-2.36 1.23977,1.23977 0 0 0 -0.18,-0.22 0.89946,0.89946 0 0 0 -0.19,-0.2 z" />
        </g>
      </g>
      <path
         class="cls-3"
         d="m 227.27,18.76976 -14.41,-18.77 h -3.25 l 0.19,0.25 -6,4.14 a 1.21,1.21 0 0 0 -0.47,1.61 l 0.09,0.14 a 1.35,1.35 0 0 0 1.81,0.35 l 0.09,-0.06 6,-4.14 9.45,12.38 -26,17.9 -9.45,-12.39 15.11,-10.39 a 1.2,1.2 0 0 0 0.33,-1.6 0.71033,0.71033 0 0 0 -0.1,-0.14 1.34,1.34 0 0 0 -1.77,-0.26 l -15.1,10.36 -2.08,-2.71 a 3.08,3.08 0 0 1 -0.26,-3.4 5.44,5.44 0 0 0 -0.2,-5.6 l 9.35,-6.44 h -4.46 l -8.14,5.59 a 0.45,0.45 0 0 1 -0.6,-0.09 l -2.46,-3.21 a 0.4,0.4 0 0 1 0,-0.55 v 0 l 2.58,-1.74 h -4.4 a 2.82,2.82 0 0 0 -0.49,3.43 2.68052,2.68052 0 0 0 0.18,0.28 l 2.48,3.29 a 3.15,3.15 0 0 0 3.78,0.9 3.07,3.07 0 0 1 0,3 5.43,5.43 0 0 0 0.47,6 l 17.37,22.68 a 6.8,6.8 0 0 0 9.18,1.42 l 19.69,-13.53 a 6,6 0 0 0 2,-7.91 6.71886,6.71886 0 0 0 -0.51,-0.79 z m -2.64,6.36 a 4.00055,4.00055 0 0 1 -0.39,0.29 l -19.65,13.58 a 4.06,4.06 0 0 1 -5.48,-0.82 l -2.75,-3.59 26,-17.94 2.75,3.58 a 3.62,3.62 0 0 1 -0.48,4.9 z"
         id="path1095" />
      <path
         class="cls-3"
         d="m 193.94,41.12976 -29.49,-38.47 a 7.00005,7.00005 0 0 0 -4.59,-2.66 h -17.09 l -10.83,7.42 -1.75,-2.42 7.27,-5 H 133 l -6.2,4.26 a 0.62,0.62 0 0 1 -0.83,-0.12 l -3.16,-4.14 h -2.94 a 4.99694,4.99694 0 0 0 0.29,0.67 4.169,4.169 0 0 0 0.37,0.56 l 3.33,4.37 a 3.33,3.33 0 0 0 4.19,0.85 l 2.27,3 -2.12,12.37 a 6.25,6.25 0 0 0 1.25,4.95 l 11.81,15.37 a 1.37,1.37 0 0 0 1.89,0.21 1.2,1.2 0 0 0 0.31,-1.61 v -0.05 l -6.62,-8.64 30.77,-21.16 19.39,25.3 -30.86,21.16 -9.19,-12 a 1.35,1.35 0 0 0 -1.83,-0.21 1.19,1.19 0 0 0 -0.33,1.59 l 0.05,0.07 14.09,18.39 a 7.27,7.27 0 0 0 9.79,1.45 l 23.63,-16.24 a 6.41,6.41 0 0 0 2.09,-8.5 6.7812,6.7812 0 0 0 -0.5,-0.77 z m -58.73,-11.13 -3.65,-4.77 a 3.9,3.9 0 0 1 -0.78,-3.09 l 2.11,-12.38 13.49,-9.24 13.08,1.93 a 4.34,4.34 0 0 1 2.83,1.65 l 3.71,4.78 z m 56,18.09 a 3.72066,3.72066 0 0 1 -0.45,0.33 l -23.58,16.24 a 4.54,4.54 0 0 1 -6.14,-0.91 l -3.37,-4.39 30.77,-21.16 3.37,4.4 a 4.06,4.06 0 0 1 -0.55,5.49 z"
         id="path1097" />
      <path
         class="cls-3"
         d="m 151.47,39.04976 a 2.131,2.131 0 0 0 0.16,0.25 l 1.89,2.41 a 2.43,2.43 0 0 0 3.28,0.49 l 4.2,-2.91 3.08,4 a 2.45,2.45 0 0 0 3.29,0.5 l 2.63,-1.79 a 2.15,2.15 0 0 0 0.69,-2.85 2.32533,2.32533 0 0 0 -0.17,-0.26 l -3.07,-4 4.06,-2.89 a 2.14,2.14 0 0 0 0.71,-2.84 2.68312,2.68312 0 0 0 -0.18,-0.28 l -1.89,-2.4 a 2.45,2.45 0 0 0 -3.29,-0.5 l -4.24,2.92 -3.07,-4 a 2.46,2.46 0 0 0 -3.29,-0.49 h 0.13 l -2.55,1.75 a 2.15,2.15 0 0 0 -0.69,2.85 2.32533,2.32533 0 0 0 0.17,0.26 l 3.07,4 -4.23,2.91 a 2.15,2.15 0 0 0 -0.69,2.87 z m 7.09,-4.18 a 1.68,1.68 0 0 0 0.53,-2.24 l -0.12,-0.18 -3.43,-4.45 2.12,-1.45 3.34,4.45 a 1.9,1.9 0 0 0 2.56,0.39 l 4.71,-3.22 1.53,2 -4.66,3.21 a 1.67,1.67 0 0 0 -0.53,2.22 0.85949,0.85949 0 0 0 0.13,0.2 l 3.38,4.41 -2.12,1.46 -3.38,-4.41 a 1.9,1.9 0 0 0 -2.56,-0.39 l -4.66,3.2 -1.54,-2 z"
         id="path1099" />
      <path
         class="cls-3"
         d="m 325.87,2.64976 -7.2,-2.13 h -7 a 5.20044,5.20044 0 0 0 1.6,0.79 l 11.91,3.51 a 1.18,1.18 0 0 0 1.45,-0.75 v -0.06 a 1.15,1.15 0 0 0 -0.76,-1.36 z"
         id="path1101" />
      <path
         class="cls-3"
         d="m 359.32,0.51976 -6.2,5.12 a 11.08,11.08 0 0 1 -10.27,2.08 l -11.85,-3.5 v 0 a 1.19,1.19 0 0 0 -1.45,0.76 v 0.02 a 1.13,1.13 0 0 0 0.79,1.35 l 11.82,3.5 a 13.49,13.49 0 0 0 12.45,-2.51 l 8.3,-6.82 z"
         id="path1103" />
      <path
         class="cls-3"
         d="m 123,66.07976 v 0 a 16.84,16.84 0 0 0 -20,2.92 l -10.36,-5.66 c 4.56,-11.16 -1.28,-23.7 -13.06,-28 a 23.36957,23.36957 0 0 0 -4.72,-1.21 v -11.31 c 8.71,-1.82 14.14,-10 12.28,-18.27 a 14.56026,14.56026 0 0 0 -1.9,-4.55 H 75.18 a 8.67,8.67 0 0 1 5.3,7.86 9.18,9.18 0 0 1 -18.34,0 8.66,8.66 0 0 1 5.3,-7.86 h -10 a 14.67,14.67 0 0 0 -1.94,11.18 15.78,15.78 0 0 0 12.33,11.64 v 11.29 c -12.48,1.83 -21,12.89 -19.1,24.71 a 21.40036,21.40036 0 0 0 1.27,4.52 l -10.31,5.66 a 16.77,16.77 0 0 0 -22.81,-0.91 14.76,14.76 0 0 0 -2.4,19.91 13.82959,13.82959 0 0 0 1.46,1.69 16.78,16.78 0 0 0 22.8,0.91 14.72,14.72 0 0 0 4.47,-15.87 l 10.33,-5.65 a 23.46,23.46 0 0 0 35.61,0 l 10.32,5.65 c -2.69,8.07 2,16.68 10.56,19.22 8.56,2.54 17.59,-1.95 20.28,-9.95 a 15,15 0 0 0 -7.31,-17.92 z m -86.38,15.5 a 9.2,9.2 0 0 1 -11.21,6.1 A 8.62,8.62 0 0 1 18.88748,77.381 v 0 0 L 18.89,77.36982 v 0 a 0.50514,0.50514 0 0 1 0.07,-0.31 9.15,9.15 0 0 1 11.22,-6.06 9,9 0 0 1 5.53,4 8.27,8.27 0 0 1 0.91,6.57994 z m 34.7,-11 c -8.75,0 -15.86,-6.73 -15.86,-15 0,-8.27 7.1,-15 15.86,-15 8.76,0 15.86,6.72 15.86,15 0,8.28 -7.1,14.95 -15.86,14.95 z m 51.48,13.11 v 0 a 9.45,9.45 0 0 1 -12.52,3.18 8.43,8.43 0 0 1 -3.63263,-11.35489 l 0.003,-0.0051 a 4.67091,4.67091 0 0 1 0.27,-0.49 9.45,9.45 0 0 1 12.52,-3.18 8.45,8.45 0 0 1 3.63,11.38 v 0 c -0.09,0.16 -0.18,0.33 -0.28,0.49 z"
         id="path1105" />
    </g>
  </g>
</svg>
