<svg xmlns="http://www.w3.org/2000/svg" xmlns:xlink="http://www.w3.org/1999/xlink" width="375" height="288" viewBox="0 0 375 288">
  <defs>
    <clipPath id="clip-path">
      <rect id="Rectangle_1594" data-name="Rectangle 1594" width="375" height="288" fill="#fff" stroke="#707070" stroke-width="1"/>
    </clipPath>
    <clipPath id="clip-path-2">
      <path id="Path_228" data-name="Path 228" d="M54.518-15.436H41.442V-28.511H23.813v13.075H10.738V2.193H23.813V15.268H41.442V2.195H54.517Z" transform="translate(-10.738 28.511)" fill="none"/>
    </clipPath>
    <clipPath id="clip-path-3">
      <path id="Path_230" data-name="Path 230" d="M53.169,10.351A17.715,17.715,0,1,1,35.453-7.363v-17.63A35.384,35.384,0,0,0,.112,10.346v57.9H17.74V40.916A35.12,35.12,0,0,0,35.453,45.7,35.384,35.384,0,0,0,70.792,10.357H53.169Z" transform="translate(-0.112 24.994)" fill="none"/>
    </clipPath>
  </defs>
  <g id="Mask_Group_48" data-name="Mask Group 48" clip-path="url(#clip-path)">
    <g id="mask_100" data-name="mask 100" transform="translate(-1053.915 813.048)">
      <g id="Group_8237" data-name="Group 8237" transform="translate(906.011 -1084.667)">
        <path id="Shaped_subtraction" data-name="Shaped subtraction" d="M364.939,389.4h-68.3a17.319,17.319,0,0,1-17.212-15.291h-.22a89.132,89.132,0,0,0-176.149,0h-.223A17.317,17.317,0,0,1,85.622,389.4H17.333A17.321,17.321,0,0,1,.122,374.114H0V0H382.269V374.115h-.12a17.316,17.316,0,0,1-17.208,15.291Z" transform="translate(147.904 137.213)" fill="#19b2a5"/>
        <g id="Group_7" data-name="Group 7" transform="translate(150.363 138.263)" opacity="0.3">
          <g id="cross_1" data-name="cross 1" transform="translate(234.045 255.435)">
            <g id="Group">
              <path id="Vector" d="M53.966,17.2H41.92V5.163A5.168,5.168,0,0,0,36.759,0H22.366A5.168,5.168,0,0,0,17.2,5.163V17.2H5.163A5.168,5.168,0,0,0,0,22.366V36.759a5.168,5.168,0,0,0,5.163,5.163H17.2V53.966a5.168,5.168,0,0,0,5.163,5.163H36.759a5.168,5.168,0,0,0,5.163-5.163V41.922H53.966a5.168,5.168,0,0,0,5.163-5.163V22.366A5.168,5.168,0,0,0,53.966,17.2Zm2.859,19.555a2.859,2.859,0,0,1-2.859,2.859h-13.2a1.154,1.154,0,0,0-1.154,1.154V53.966a2.859,2.859,0,0,1-2.859,2.859H22.366a2.859,2.859,0,0,1-2.859-2.859v-13.2a1.154,1.154,0,0,0-1.154-1.154H5.163A2.859,2.859,0,0,1,2.3,36.752V22.366a2.859,2.859,0,0,1,2.859-2.859h13.2a1.154,1.154,0,0,0,1.154-1.154V5.163A2.859,2.859,0,0,1,22.373,2.3H36.765a2.859,2.859,0,0,1,2.859,2.859v13.2a1.154,1.154,0,0,0,1.154,1.154H53.966a2.859,2.859,0,0,1,2.859,2.859Z" fill="#00837d"/>
              <path id="Vector-2" data-name="Vector" d="M47.345,17.2H31.295V1.154A1.154,1.154,0,0,0,30.142,0H18.357A1.154,1.154,0,0,0,17.2,1.154V17.2H1.154A1.154,1.154,0,0,0,0,18.357V30.142a1.154,1.154,0,0,0,1.154,1.153H17.2v16.05A1.154,1.154,0,0,0,18.357,48.5H30.142a1.154,1.154,0,0,0,1.153-1.154V31.295h16.05A1.154,1.154,0,0,0,48.5,30.141V18.357A1.154,1.154,0,0,0,47.345,17.2ZM46.191,28.99H30.142a1.154,1.154,0,0,0-1.154,1.154V46.193H19.517V30.142a1.154,1.154,0,0,0-1.154-1.154H2.311V19.517H18.359a1.154,1.154,0,0,0,1.154-1.154V2.311h9.471V18.359a1.154,1.154,0,0,0,1.154,1.154H46.187Z" transform="translate(5.313 5.313)" fill="#00837d"/>
            </g>
          </g>
          <path id="Vector-3" data-name="Vector" d="M76.481,45.254a3.217,3.217,0,0,1-1.76-2.434h.038a2.9,2.9,0,0,0,2.891-2.891V35.962a2.9,2.9,0,0,0-2.891-2.891H49.643a2.9,2.9,0,0,0-2.891,2.891v3.967a2.9,2.9,0,0,0,2.389,2.845,3.216,3.216,0,0,1-1.765,2.48,5.691,5.691,0,0,0-3.159,5.12V78.406a6.2,6.2,0,0,0,6.2,6.2H73.456a6.2,6.2,0,0,0,6.2-6.2V50.374a5.691,5.691,0,0,0-3.172-5.12ZM49.23,35.962a.415.415,0,0,1,.413-.413H74.762a.415.415,0,0,1,.413.413v3.967a.415.415,0,0,1-.413.413H49.643a.415.415,0,0,1-.413-.413ZM77.171,78.411a3.722,3.722,0,0,1-3.717,3.717H50.419A3.722,3.722,0,0,1,46.7,78.411V73.98H77.171Zm0-24.687H70.123a1.24,1.24,0,1,0,0,2.478h7.048V71.508H46.7V56.2H64.341a1.24,1.24,0,0,0,0-2.479H46.7V50.374a3.227,3.227,0,0,1,1.787-2.9,5.688,5.688,0,0,0,3.143-4.646H72.236a5.688,5.688,0,0,0,3.143,4.646,3.227,3.227,0,0,1,1.787,2.9ZM21.979,43.53H19a2.234,2.234,0,0,0-2.23,2.23v4.957H11.812a2.234,2.234,0,0,0-2.23,2.23v2.975a2.234,2.234,0,0,0,2.23,2.23h4.959V63.11A2.234,2.234,0,0,0,19,65.342h2.979a2.234,2.234,0,0,0,2.23-2.23V58.153h4.953A2.234,2.234,0,0,0,31.4,55.921V52.947a2.234,2.234,0,0,0-2.23-2.23H24.206V45.758a2.234,2.234,0,0,0-2.227-2.232ZM28.92,53.2v2.479H23.463a1.733,1.733,0,0,0-1.733,1.733v5.454H19.247V57.409a1.733,1.733,0,0,0-1.733-1.733H12.062V53.2h5.45a1.733,1.733,0,0,0,1.733-1.733V46.009h2.478v5.456A1.733,1.733,0,0,0,23.457,53.2Zm1.215-36.3v-3.66a3.038,3.038,0,0,0,2.711-3.018V4.834A4.85,4.85,0,0,0,27.987,0h-15A4.85,4.85,0,0,0,8.132,4.834v5.391a3.038,3.038,0,0,0,2.711,3.018V16.9l-8.89,8.833A6.571,6.571,0,0,0,0,30.43V49.479a1.24,1.24,0,0,0,2.478,0V38.8H38.5V70.07H2.479V55.261a1.24,1.24,0,0,0-2.478,0V77.982a6.653,6.653,0,0,0,6.662,6.626H34.309a6.653,6.653,0,0,0,6.665-6.626V30.43a6.572,6.572,0,0,0-1.95-4.7ZM38.5,77.982a4.173,4.173,0,0,1-4.187,4.151H6.662a4.173,4.173,0,0,1-4.18-4.151V72.55H38.5ZM10.611,10.225V4.834a2.368,2.368,0,0,1,2.377-2.355h15a2.368,2.368,0,0,1,2.375,2.355v5.391a.563.563,0,0,1-.568.558H11.179a.563.563,0,0,1-.568-.558Zm17.04,3.038v2.913H13.322V13.263ZM38.494,36.314H2.479v-5.9A4.11,4.11,0,0,1,3.7,27.483l8.892-8.842H28.38l8.894,8.844A4.11,4.11,0,0,1,38.5,30.419Z" transform="translate(101.86 135.455) rotate(-35.97)" fill="#00837d"/>
          <path id="Vector-4" data-name="Vector" d="M76.481,45.254a3.217,3.217,0,0,1-1.76-2.434h.038a2.9,2.9,0,0,0,2.891-2.891V35.962a2.9,2.9,0,0,0-2.891-2.891H49.643a2.9,2.9,0,0,0-2.891,2.891v3.967a2.9,2.9,0,0,0,2.389,2.845,3.216,3.216,0,0,1-1.765,2.48,5.691,5.691,0,0,0-3.159,5.12V78.406a6.2,6.2,0,0,0,6.2,6.2H73.456a6.2,6.2,0,0,0,6.2-6.2V50.374a5.691,5.691,0,0,0-3.172-5.12ZM49.23,35.962a.415.415,0,0,1,.413-.413H74.762a.415.415,0,0,1,.413.413v3.967a.415.415,0,0,1-.413.413H49.643a.415.415,0,0,1-.413-.413ZM77.171,78.411a3.722,3.722,0,0,1-3.717,3.717H50.419A3.722,3.722,0,0,1,46.7,78.411V73.98H77.171Zm0-24.687H70.123a1.24,1.24,0,1,0,0,2.478h7.048V71.508H46.7V56.2H64.341a1.24,1.24,0,0,0,0-2.479H46.7V50.374a3.227,3.227,0,0,1,1.787-2.9,5.688,5.688,0,0,0,3.143-4.646H72.236a5.688,5.688,0,0,0,3.143,4.646,3.227,3.227,0,0,1,1.787,2.9ZM21.979,43.53H19a2.234,2.234,0,0,0-2.23,2.23v4.957H11.812a2.234,2.234,0,0,0-2.23,2.23v2.975a2.234,2.234,0,0,0,2.23,2.23h4.959V63.11A2.234,2.234,0,0,0,19,65.342h2.979a2.234,2.234,0,0,0,2.23-2.23V58.153h4.953A2.234,2.234,0,0,0,31.4,55.921V52.947a2.234,2.234,0,0,0-2.23-2.23H24.206V45.758a2.234,2.234,0,0,0-2.227-2.232ZM28.92,53.2v2.479H23.463a1.733,1.733,0,0,0-1.733,1.733v5.454H19.247V57.409a1.733,1.733,0,0,0-1.733-1.733H12.062V53.2h5.45a1.733,1.733,0,0,0,1.733-1.733V46.009h2.478v5.456A1.733,1.733,0,0,0,23.457,53.2Zm1.215-36.3v-3.66a3.038,3.038,0,0,0,2.711-3.018V4.834A4.85,4.85,0,0,0,27.987,0h-15A4.85,4.85,0,0,0,8.132,4.834v5.391a3.038,3.038,0,0,0,2.711,3.018V16.9l-8.89,8.833A6.571,6.571,0,0,0,0,30.43V49.479a1.24,1.24,0,0,0,2.478,0V38.8H38.5V70.07H2.479V55.261a1.24,1.24,0,0,0-2.478,0V77.982a6.653,6.653,0,0,0,6.662,6.626H34.309a6.653,6.653,0,0,0,6.665-6.626V30.43a6.572,6.572,0,0,0-1.95-4.7ZM38.5,77.982a4.173,4.173,0,0,1-4.187,4.151H6.662a4.173,4.173,0,0,1-4.18-4.151V72.55H38.5ZM10.611,10.225V4.834a2.368,2.368,0,0,1,2.377-2.355h15a2.368,2.368,0,0,1,2.375,2.355v5.391a.563.563,0,0,1-.568.558H11.179a.563.563,0,0,1-.568-.558Zm17.04,3.038v2.913H13.322V13.263ZM38.494,36.314H2.479v-5.9A4.11,4.11,0,0,1,3.7,27.483l8.892-8.842H28.38l8.894,8.844A4.11,4.11,0,0,1,38.5,30.419Z" transform="translate(263.606 172.688) rotate(-35.97)" fill="#00837d"/>
          <g id="Group-2" data-name="Group" transform="translate(69.924 241.165)">
            <path id="Vector-5" data-name="Vector" d="M40.044,31.951a1.133,1.133,0,0,0,.715-1.43,14.869,14.869,0,0,1-.74-4.646c0-5.718,7.952-16.129,14.884-23.447,6.932,7.316,14.884,17.728,14.884,23.447a14.884,14.884,0,0,1-26.74,9,1.133,1.133,0,1,0-1.8,1.372A17.155,17.155,0,0,0,72.055,25.873c0-8.125-12.082-21.417-15.786-25.3a1.908,1.908,0,0,0-2.73,0c-3.7,3.881-15.786,17.174-15.786,25.3a17.126,17.126,0,0,0,.852,5.361,1.133,1.133,0,0,0,1.43.715ZM71.957,50.331A5.213,5.213,0,0,0,68,48.975l-24.465,2.05a4.987,4.987,0,0,0-1.2-5.193L30.5,34.216a5.852,5.852,0,0,0-4.123-1.685H1.133a1.133,1.133,0,0,0,0,2.266H26.374a3.6,3.6,0,0,1,2.536,1.036L40.744,47.449a2.691,2.691,0,1,1-3.808,3.8l-4.975-5.082a1.133,1.133,0,1,0-1.619,1.585l4.975,5.082a5,5,0,0,0,6.349.618L68.2,51.234a2.911,2.911,0,0,1,2.23.765,2.963,2.963,0,0,1,.372,3.9,2.92,2.92,0,0,1-1.5,1.061L57.644,60.506a1.133,1.133,0,1,0,.659,2.168L69.952,59.13a5.182,5.182,0,0,0,2.663-1.878A5.257,5.257,0,0,0,71.957,50.331ZM56.414,14.98h-3a2.144,2.144,0,0,0-2.144,2.134v5.125H46.154a2.144,2.144,0,0,0-2.135,2.135v3a2.144,2.144,0,0,0,2.135,2.135h5.123v5.123a2.144,2.144,0,0,0,2.135,2.135h3a2.144,2.144,0,0,0,2.135-2.135V29.51h5.123a2.144,2.144,0,0,0,2.135-2.135v-3a2.144,2.144,0,0,0-2.135-2.135H58.548V17.113a2.144,2.144,0,0,0-2.135-2.135ZM63.541,24.5v2.739H57.915a1.631,1.631,0,0,0-1.631,1.631V34.5H53.543V28.875a1.631,1.631,0,0,0-1.631-1.631H46.282V24.5h5.624a1.631,1.631,0,0,0,1.631-1.631V17.246h2.739v5.627A1.631,1.631,0,0,0,57.908,24.5ZM52.6,62.041,41.082,65.547a10.631,10.631,0,0,1-10.007-2.073L15.947,50.642a5.811,5.811,0,0,0-3.763-1.381H1.133a1.133,1.133,0,0,0,0,2.266H12.185a3.547,3.547,0,0,1,2.3.844L29.608,65.2a12.909,12.909,0,0,0,12.13,2.512l11.513-3.5a1.133,1.133,0,1,0-.659-2.168Z" transform="translate(0 0)" fill="#00837d"/>
          </g>
          <g id="Group-3" data-name="Group" transform="translate(290.303 75.531)">
            <path id="Vector-6" data-name="Vector" d="M38.936,36.319a1.14,1.14,0,0,1,.7,1.43,15.257,15.257,0,0,0-.715,4.646c0,5.718,7.734,16.129,14.474,23.447,6.739-7.316,14.474-17.728,14.474-23.447A14.7,14.7,0,0,0,53.4,27.511a14.237,14.237,0,0,0-11.523,5.877,1.08,1.08,0,0,1-1.551.223,1.154,1.154,0,0,1-.211-1.589A16.411,16.411,0,0,1,53.4,25.247,16.937,16.937,0,0,1,70.072,42.4c0,8.125-11.747,21.417-15.348,25.3a1.832,1.832,0,0,1-2.661-.005c-3.6-3.881-15.348-17.174-15.348-25.3a17.576,17.576,0,0,1,.829-5.361,1.086,1.086,0,0,1,1.383-.724ZM69.965,17.938a4.982,4.982,0,0,1-3.847,1.355L42.329,17.245a5.089,5.089,0,0,1-1.169,5.193L29.653,34.053a5.607,5.607,0,0,1-4.008,1.685H1.1a1.132,1.132,0,0,1,0-2.264h24.54a3.449,3.449,0,0,0,2.464-1.036L39.615,20.822a2.773,2.773,0,0,0,.027-3.813,2.6,2.6,0,0,0-3.729.011l-4.834,5.075a1.079,1.079,0,0,1-1.558.018A1.156,1.156,0,0,1,29.5,20.5l4.836-5.082a4.76,4.76,0,0,1,6.174-.618L66.3,17.03a2.782,2.782,0,0,0,2.168-.765,3.024,3.024,0,0,0,.357-3.9,2.841,2.841,0,0,0-1.46-1.061L56.035,7.76A1.138,1.138,0,0,1,55.3,6.346a1.111,1.111,0,0,1,1.381-.754L68.012,9.136A5.036,5.036,0,0,1,70.6,11.014a5.361,5.361,0,0,1-.64,6.921ZM54.86,53.289H51.931a2.107,2.107,0,0,1-2.075-2.134V46.031H44.874A2.107,2.107,0,0,1,42.8,43.9v-3a2.107,2.107,0,0,1,2.075-2.135h4.982V33.635A2.107,2.107,0,0,1,51.931,31.5H54.86a2.107,2.107,0,0,1,2.075,2.135v5.123h4.982a2.107,2.107,0,0,1,2.075,2.135v3a2.107,2.107,0,0,1-2.075,2.135H56.927v5.125A2.109,2.109,0,0,1,54.86,53.289Zm6.932-9.524V41.026H56.312a1.608,1.608,0,0,1-1.589-1.631V33.771H52.059v5.624a1.608,1.608,0,0,1-1.589,1.631H45v2.739h5.47A1.608,1.608,0,0,1,52.061,45.4V51.02h2.664V45.4a1.608,1.608,0,0,1,1.589-1.631ZM51.146,6.228l-11.2-3.506A10.118,10.118,0,0,0,30.212,4.8L15.505,17.625a5.561,5.561,0,0,1-3.658,1.381H1.1a1.132,1.132,0,0,1,0-2.262H11.848a3.4,3.4,0,0,0,2.232-.843L28.786,3.072A12.287,12.287,0,0,1,40.58.56l11.2,3.5a1.138,1.138,0,0,1,.733,1.413,1.107,1.107,0,0,1-1.381.754Z" transform="translate(71.577 68.27) rotate(180)" fill="#00837d"/>
          </g>
          <g id="Group-4" data-name="Group" transform="translate(0 3.074)">
            <g id="Group-5" data-name="Group" transform="translate(102.489 0)">
              <path id="Vector-7" data-name="Vector" d="M52.122,5.911A26.154,26.154,0,0,0,36.826.988h-3.8a.838.838,0,0,0-.134,0A5.418,5.418,0,0,0,29.764,0H28.9a9.918,9.918,0,0,0-7.936,3.931h-2.43a1.474,1.474,0,0,0,0,2.947h2.414a9.9,9.9,0,0,0,8,4.022h.815a5.423,5.423,0,0,0,3.242-1.072h3.819a17.488,17.488,0,0,1,4.194.511,17.29,17.29,0,0,1,3.3,1.182,17.555,17.555,0,0,1,9.966,15.85v2.2A17.525,17.525,0,0,1,36.824,47.12H29.842V45.869a25.453,25.453,0,0,0,20.99-25.028V18.858a1.472,1.472,0,0,0-1.472-1.472H1.472A1.472,1.472,0,0,0,0,18.858v1.989A25.453,25.453,0,0,0,21,45.864V47.4H19.692a7.815,7.815,0,0,0,0,15.631H21v1.487H15.7a9.439,9.439,0,0,0-9.428,9.428,1.472,1.472,0,0,0,1.465,1.478H43.091a1.472,1.472,0,0,0,1.472-1.472,9.44,9.44,0,0,0-8.134-9.337V62.858a8.073,8.073,0,0,0-3.9-6.9h4.289a26.372,26.372,0,0,0,26.3-26.379V27.371a26.481,26.481,0,0,0-11-21.46ZM29.764,7.95h-.815a6.969,6.969,0,0,1-5.4-2.536A6.987,6.987,0,0,1,28.9,2.941h.867a2.5,2.5,0,1,1,0,5ZM4.162,28.134h28a1.474,1.474,0,1,0,0-2.947H3.37a22.48,22.48,0,0,1-.424-4.346v-.516H47.88v.516A22.467,22.467,0,0,1,4.162,28.134ZM26.887,46.216v8.577H23.945V46.216c.488.027.979.045,1.472.045S26.4,46.243,26.887,46.216Zm8.25,21.265a6.494,6.494,0,0,1,6.313,5H9.378a6.494,6.494,0,0,1,6.312-5ZM23.945,64.527V63.04H28.77a.743.743,0,1,1,0,1.487Zm9.544-1.665v1.665H32.38a3.692,3.692,0,0,0-3.61-4.433H19.694a4.869,4.869,0,1,1,0-9.738H21V54.79h-.554a.306.306,0,0,1-.306-.306,1.474,1.474,0,1,0-2.947,0,3.261,3.261,0,0,0,3.254,3.254h7.92a5.13,5.13,0,0,1,5.12,5.125Zm3.34-9.852H29.842V50.065h6.992a20.473,20.473,0,0,0,20.4-20.489V27.371a20.5,20.5,0,0,0-11.642-18.5,20.227,20.227,0,0,0-3.869-1.387,20.43,20.43,0,0,0-4.9-.6h-1.8a5.427,5.427,0,0,0-.03-2.956h1.835a23.382,23.382,0,0,1,23.352,23.44v2.2A23.423,23.423,0,0,1,36.826,53.012Z" transform="matrix(0.839, -0.544, 0.544, 0.839, 0, 34.341)" fill="#00837d"/>
            </g>
            <g id="Group-6" data-name="Group" transform="translate(0 280.018)">
              <path id="Vector-8" data-name="Vector" d="M52.122,5.911A26.154,26.154,0,0,0,36.826.988h-3.8a.838.838,0,0,0-.134,0A5.418,5.418,0,0,0,29.764,0H28.9a9.918,9.918,0,0,0-7.936,3.931h-2.43a1.474,1.474,0,0,0,0,2.947h2.414a9.9,9.9,0,0,0,8,4.022h.815a5.423,5.423,0,0,0,3.242-1.072h3.819a17.488,17.488,0,0,1,4.194.511,17.29,17.29,0,0,1,3.3,1.182,17.555,17.555,0,0,1,9.966,15.85v2.2A17.525,17.525,0,0,1,36.824,47.12H29.842V45.869a25.453,25.453,0,0,0,20.99-25.028V18.858a1.472,1.472,0,0,0-1.472-1.472H1.472A1.472,1.472,0,0,0,0,18.858v1.989A25.453,25.453,0,0,0,21,45.864V47.4H19.692a7.815,7.815,0,0,0,0,15.631H21v1.487H15.7a9.439,9.439,0,0,0-9.428,9.428,1.472,1.472,0,0,0,1.465,1.478H43.091a1.472,1.472,0,0,0,1.472-1.472,9.44,9.44,0,0,0-8.134-9.337V62.858a8.073,8.073,0,0,0-3.9-6.9h4.289a26.372,26.372,0,0,0,26.3-26.379V27.371a26.481,26.481,0,0,0-11-21.46ZM29.764,7.95h-.815a6.969,6.969,0,0,1-5.4-2.536A6.987,6.987,0,0,1,28.9,2.941h.867a2.5,2.5,0,1,1,0,5ZM4.162,28.134h28a1.474,1.474,0,1,0,0-2.947H3.37a22.48,22.48,0,0,1-.424-4.346v-.516H47.88v.516A22.467,22.467,0,0,1,4.162,28.134ZM26.887,46.216v8.577H23.945V46.216c.488.027.979.045,1.472.045S26.4,46.243,26.887,46.216Zm8.25,21.265a6.494,6.494,0,0,1,6.313,5H9.378a6.494,6.494,0,0,1,6.312-5ZM23.945,64.527V63.04H28.77a.743.743,0,1,1,0,1.487Zm9.544-1.665v1.665H32.38a3.692,3.692,0,0,0-3.61-4.433H19.694a4.869,4.869,0,1,1,0-9.738H21V54.79h-.554a.306.306,0,0,1-.306-.306,1.474,1.474,0,1,0-2.947,0,3.261,3.261,0,0,0,3.254,3.254h7.92a5.13,5.13,0,0,1,5.12,5.125Zm3.34-9.852H29.842V50.065h6.992a20.473,20.473,0,0,0,20.4-20.489V27.371a20.5,20.5,0,0,0-11.642-18.5,20.227,20.227,0,0,0-3.869-1.387,20.43,20.43,0,0,0-4.9-.6h-1.8a5.427,5.427,0,0,0-.03-2.956h1.835a23.382,23.382,0,0,1,23.352,23.44v2.2A23.423,23.423,0,0,1,36.826,53.012Z" transform="matrix(0.839, -0.544, 0.544, 0.839, 0, 34.341)" fill="#00837d"/>
            </g>
          </g>
          <g id="bacterias_1" data-name="bacterias 1" transform="translate(8.137 125.905)">
            <g id="Group-7" data-name="Group" transform="translate(0 0)">
              <g id="Group-8" data-name="Group" transform="translate(0)">
                <path id="Vector-9" data-name="Vector" d="M105.471,73.516a15.339,15.339,0,0,0-18.942,2.918l-9.776-5.645A21.656,21.656,0,0,0,59.873,41.56V30.275a15.318,15.318,0,1,0-6.626,0V41.56a21.656,21.656,0,0,0-16.88,29.231l-9.78,5.643a15.293,15.293,0,1,0,3.322,5.741l9.785-5.649a21.622,21.622,0,0,0,33.732,0l9.785,5.649a15.321,15.321,0,1,0,22.267-8.661ZM23.678,89.03a8.663,8.663,0,1,1-.861-6.589A8.663,8.663,0,0,1,23.678,89.03ZM47.867,15.318a8.688,8.688,0,1,1,8.688,8.688A8.688,8.688,0,0,1,47.867,15.318Zm8.685,62.663A15.025,15.025,0,1,1,71.576,62.957,15.025,15.025,0,0,1,56.551,77.981Zm48.784,13.141a8.688,8.688,0,1,1-3.181-11.869,8.688,8.688,0,0,1,3.181,11.869Z" transform="translate(-0.033 -0.002)" fill="#00837d"/>
              </g>
            </g>
          </g>
          <g id="medicine_1_1" data-name="medicine (1) 1" transform="translate(279.197 284.997)">
            <g id="XMLID_987" data-name="XMLID 987" transform="translate(0 0)">
              <g id="XMLID_488" data-name="XMLID 488">
                <path id="XMLID_504" data-name="XMLID 504" d="M34.952,5.992a20.477,20.477,0,1,0,0,28.959,20.477,20.477,0,0,0,0-28.959ZM32.361,8.581a16.837,16.837,0,0,1,1.224,22.412L9.949,7.359A16.837,16.837,0,0,1,32.361,8.581ZM8.58,32.362A16.837,16.837,0,0,1,7.358,9.948L30.992,33.586A16.837,16.837,0,0,1,8.58,32.362Z" transform="translate(0.004 30.231)" fill="#00837d"/>
                <path id="XMLID_950" data-name="XMLID 950" d="M54.529,4.67A15.927,15.927,0,0,0,40.21.294a1.835,1.835,0,0,0,.7,3.6A12.273,12.273,0,0,1,51.933,24.62L39.571,36.991,22.214,19.634l6.537-6.54A1.835,1.835,0,0,0,26.165,10.5L4.664,32A15.938,15.938,0,1,0,27.2,54.539L54.529,27.2a15.954,15.954,0,0,0,0-22.537ZM24.61,51.944A12.273,12.273,0,1,1,7.255,34.587l12.37-12.365L36.981,39.573Z" transform="translate(34.6 34.586)" fill="#00837d"/>
                <path id="XMLID_1162" data-name="XMLID 1162" d="M6.74,29.563a26.079,26.079,0,0,0,15.605,4.873,26.077,26.077,0,0,0,15.605-4.873,15.459,15.459,0,0,0,6.74-12.344,15.443,15.443,0,0,0-6.74-12.344A26.077,26.077,0,0,0,22.348,0,26.079,26.079,0,0,0,6.74,4.874,15.459,15.459,0,0,0,0,17.221,15.457,15.457,0,0,0,6.74,29.563Zm15.607-25.9c10.3,0,18.683,6.076,18.683,13.558S32.649,30.78,22.348,30.78,3.663,24.694,3.663,17.221,12.046,3.665,22.348,3.665Z" transform="translate(31.362 0.002)" fill="#00837d"/>
                <path id="XMLID_1221" data-name="XMLID 1221" d="M1.837,0A1.835,1.835,0,1,0,3.129.536,1.835,1.835,0,0,0,1.837,0Z" transform="translate(66.054 38.716)" fill="#00837d"/>
              </g>
            </g>
          </g>
          <g id="medicine_1_2" data-name="medicine (1) 2" transform="translate(8.073 19.702)">
            <g id="XMLID_987-2" data-name="XMLID 987" transform="translate(0 0)">
              <g id="XMLID_488-2" data-name="XMLID 488">
                <path id="XMLID_504-2" data-name="XMLID 504" d="M34.952,5.992a20.477,20.477,0,1,0,0,28.959,20.477,20.477,0,0,0,0-28.959ZM32.361,8.581a16.837,16.837,0,0,1,1.224,22.412L9.949,7.359A16.837,16.837,0,0,1,32.361,8.581ZM8.58,32.362A16.837,16.837,0,0,1,7.358,9.948L30.992,33.586A16.837,16.837,0,0,1,8.58,32.362Z" transform="translate(0.004 30.231)" fill="#00837d"/>
                <path id="XMLID_950-2" data-name="XMLID 950" d="M54.529,4.67A15.927,15.927,0,0,0,40.21.294a1.835,1.835,0,0,0,.7,3.6A12.273,12.273,0,0,1,51.933,24.62L39.571,36.991,22.214,19.634l6.537-6.54A1.835,1.835,0,0,0,26.165,10.5L4.664,32A15.938,15.938,0,1,0,27.2,54.539L54.529,27.2a15.954,15.954,0,0,0,0-22.537ZM24.61,51.944A12.273,12.273,0,1,1,7.255,34.587l12.37-12.365L36.981,39.573Z" transform="translate(34.6 34.586)" fill="#00837d"/>
                <path id="XMLID_1162-2" data-name="XMLID 1162" d="M6.74,29.563a26.079,26.079,0,0,0,15.605,4.873,26.077,26.077,0,0,0,15.605-4.873,15.459,15.459,0,0,0,6.74-12.344,15.443,15.443,0,0,0-6.74-12.344A26.077,26.077,0,0,0,22.348,0,26.079,26.079,0,0,0,6.74,4.874,15.459,15.459,0,0,0,0,17.221,15.457,15.457,0,0,0,6.74,29.563Zm15.607-25.9c10.3,0,18.683,6.076,18.683,13.558S32.649,30.78,22.348,30.78,3.663,24.694,3.663,17.221,12.046,3.665,22.348,3.665Z" transform="translate(31.362 0.002)" fill="#00837d"/>
                <path id="XMLID_1221-2" data-name="XMLID 1221" d="M1.837,0A1.835,1.835,0,1,0,3.129.536,1.835,1.835,0,0,0,1.837,0Z" transform="translate(66.054 38.716)" fill="#00837d"/>
              </g>
            </g>
          </g>
          <g id="Group-9" data-name="Group" transform="translate(168.805 214.297)">
            <g id="Group-10" data-name="Group" transform="translate(0 0)">
              <path id="Vector-10" data-name="Vector" d="M11.794,4.226A1.6,1.6,0,0,0,11.4,7.368V9.283a3.326,3.326,0,1,1-6.649,0v-.65A3.172,3.172,0,0,0,7.266,6.762L8.517,3.937a2.534,2.534,0,0,0,.216-1.026V2.554A2.548,2.548,0,0,0,6.176,0H5.652V.784h.524A1.766,1.766,0,0,1,7.938,2.548v.357a1.753,1.753,0,0,1-.15.715L6.537,6.442a2.387,2.387,0,0,1-4.371,0L.915,3.617A1.753,1.753,0,0,1,.765,2.9V2.545A1.766,1.766,0,0,1,2.548.784h.524V0H2.548A2.548,2.548,0,0,0,0,2.548v.357A2.534,2.534,0,0,0,.216,3.931L1.467,6.756a3.172,3.172,0,0,0,2.5,1.876v.649a4.11,4.11,0,0,0,8.22,0V7.368a1.6,1.6,0,0,0-.395-3.141Zm0,2.405a.813.813,0,1,1,.577-.238A.813.813,0,0,1,11.794,6.631Z" transform="translate(0 3.602) rotate(-15.609)" fill="rgba(27,129,153,0.3)"/>
            </g>
          </g>
          <g id="injection_1" data-name="injection 1" transform="translate(173.899 152.48)">
            <g id="Group-11" data-name="Group" transform="translate(0 0)">
              <g id="Group-12" data-name="Group">
                <path id="Vector-11" data-name="Vector" d="M93.248.536a1.835,1.835,0,0,0-2.591,0L78.379,12.816a5.586,5.586,0,0,0-6.354,1.072l-3.981,3.981-1.5-1.5a10.139,10.139,0,0,0-14.312,0L27.2,41.47l-3.217-3.217a5.811,5.811,0,1,0-8.22,8.207L26.948,57.647,13.671,70.924,8.7,65.954a5.1,5.1,0,0,0-7.209,7.207L20.621,92.292a5.1,5.1,0,1,0,7.209-7.209l-4.973-4.971L36.133,66.835,47.319,78.022a5.812,5.812,0,0,0,8.22-8.22l-3.217-3.217L77.408,41.554h0a10.139,10.139,0,0,0,0-14.3l-1.5-1.5,3.983-3.983a5.572,5.572,0,0,0,1.072-6.353L93.248,3.127a1.835,1.835,0,0,0,0-2.591ZM25.238,87.675a1.434,1.434,0,0,1-2.026,2.03L4.079,70.572a1.434,1.434,0,0,1,2.028-2.028ZM20.267,77.523l-4-4.006L29.539,60.24l4.006,4.006ZM76.7,34.4a6.433,6.433,0,0,1-.774,3.075L73.137,34.69a1.835,1.835,0,1,0-2.591,2.591l2.975,2.975-2.68,2.68L63.6,35.7a1.835,1.835,0,0,0-2.591,2.591l7.237,7.237-2.68,2.68L62.6,45.242a1.835,1.835,0,0,0-2.591,2.591l2.956,2.956-2.68,2.68-7.23-7.228a1.835,1.835,0,1,0-2.582,2.6l7.225,7.225-2.68,2.68-2.95-2.956a1.835,1.835,0,0,0-2.591,2.591l2.948,2.948-2.68,2.68-7.214-7.214a1.835,1.835,0,0,0-2.591,2.591l8.5,8.506h0l4.519,4.519a2.148,2.148,0,1,1-3.038,3.038L18.349,43.873a2.148,2.148,0,1,1,3.038-3.038l4.525,4.523a1.835,1.835,0,0,0,1.3.536h0a1.835,1.835,0,0,0,1.3-.536l26.322-26.4a6.478,6.478,0,0,1,9.128,0L74.824,29.842A6.413,6.413,0,0,1,76.7,34.413Zm.6-15.236L73.32,23.15l-2.68-2.68,3.988-3.981a1.9,1.9,0,1,1,2.68,2.68Z" transform="translate(0.001 0)" fill="#00837d"/>
              </g>
            </g>
            <g id="Group-13" data-name="Group" transform="translate(56.655 31.339)">
              <g id="Group-14" data-name="Group" transform="translate(0 0)">
                <path id="Vector-12" data-name="Vector" d="M3.134.542,3.091.5A1.835,1.835,0,0,0,.5,3.1l.041.041A1.835,1.835,0,0,0,3.134.542Z" transform="translate(-0.044 -0.046)" fill="#00837d"/>
              </g>
            </g>
            <g id="Group-15" data-name="Group" transform="translate(46.105 41.876)">
              <g id="Group-16" data-name="Group" transform="translate(0 0)">
                <path id="Vector-13" data-name="Vector" d="M3.14.547,3.1.506A1.835,1.835,0,0,0,.506,3.1l.041.041A1.835,1.835,0,0,0,3.14.547Z" transform="translate(-0.041 -0.041)" fill="#00837d"/>
              </g>
            </g>
            <g id="Group-17" data-name="Group" transform="translate(35.414 52.271)">
              <g id="Group-18" data-name="Group" transform="translate(0 0)">
                <path id="Vector-14" data-name="Vector" d="M3.2.614,3.161.569A1.835,1.835,0,1,0,.569,3.159L.61,3.2A1.835,1.835,0,1,0,3.2.614Z" transform="translate(0.045 0.046)" fill="#00837d"/>
              </g>
            </g>
          </g>
          <g id="bacterias_2" data-name="bacterias 2" transform="translate(184.152 0)">
            <g id="Group-19" data-name="Group" transform="translate(0 0)">
              <g id="Group-20" data-name="Group">
                <path id="Vector-15" data-name="Vector" d="M105.471,73.516a15.339,15.339,0,0,0-18.942,2.918l-9.776-5.645A21.656,21.656,0,0,0,59.873,41.56V30.275a15.318,15.318,0,1,0-6.626,0V41.56a21.656,21.656,0,0,0-16.88,29.231l-9.78,5.643a15.293,15.293,0,1,0,3.322,5.741l9.785-5.649a21.622,21.622,0,0,0,33.732,0l9.785,5.649a15.321,15.321,0,1,0,22.267-8.661ZM23.678,89.03a8.663,8.663,0,1,1-.861-6.589A8.663,8.663,0,0,1,23.678,89.03ZM47.867,15.318a8.688,8.688,0,1,1,8.688,8.688A8.688,8.688,0,0,1,47.867,15.318Zm8.685,62.663A15.025,15.025,0,1,1,71.576,62.957,15.025,15.025,0,0,1,56.551,77.981Zm48.784,13.141a8.688,8.688,0,1,1-3.181-11.869,8.688,8.688,0,0,1,3.181,11.869Z" transform="translate(-0.033 -0.002)" fill="#00837d"/>
              </g>
            </g>
          </g>
        </g>
      </g>
      <g id="Group_168" data-name="Group 168" transform="translate(1206.978 -629.727)">
        <g id="Group_158" data-name="Group 158" transform="translate(31.252 -1.511)" clip-path="url(#clip-path-2)">
          <path id="Path_227" data-name="Path 227" d="M7.786-31.465H73.865V34.6H7.786Z" transform="translate(-18.937 20.312)" fill="#19b1a4"/>
        </g>
        <g id="Group_159" data-name="Group 159" transform="translate(-8.888 11.772)" clip-path="url(#clip-path-3)">
          <path id="Path_229" data-name="Path 229" d="M-2.843-27.946H90.15V87.587H-2.843Z" transform="translate(-8.311 16.797)" fill="#00837d"/>
        </g>
      </g>
    </g>
  </g>
</svg>
