<svg data-name="Livello 1" xmlns="http://www.w3.org/2000/svg" xmlns:xlink="http://www.w3.org/1999/xlink" viewBox="0 0 138 89"><defs><linearGradient id="g" x1="-845.09" y1="568.79" x2="-844.99" y2="569.77" gradientTransform="matrix(19.9 0 0 -32.74 16897 18701.99)" gradientUnits="userSpaceOnUse"><stop offset="0" stop-color="#ff5c1b"/><stop offset="1" stop-color="#e03347"/></linearGradient><linearGradient id="b" x1="-817.08" y1="394.19" x2="-816.09" y2="393.63" gradientTransform="matrix(12.13 0 0 -2.62 9989.17 1080.47)" gradientUnits="userSpaceOnUse"><stop offset=".02" stop-color="#d697e3"/><stop offset="1" stop-color="#ede5f3"/></linearGradient><linearGradient id="a" x1="-790.34" y1="566.79" x2="-789.95" y2="567.78" gradientTransform="matrix(8.9 0 0 -28.94 7107.73 16481.2)" gradientUnits="userSpaceOnUse"><stop offset="0"/><stop offset="1" stop-color="#c7ac75"/></linearGradient><linearGradient id="e" x1="-832.47" y1="562.35" x2="-831.43" y2="562.41" gradientTransform="matrix(15.38 0 0 -22.52 12875.58 12730.71)" gradientUnits="userSpaceOnUse"><stop offset="0" stop-color="#ededff"/><stop offset=".98" stop-color="#d1d1eb"/></linearGradient><linearGradient id="i" x1="-719.33" y1="563.44" x2="-718.9" y2="563.42" gradientTransform="matrix(5.19 0 0 -23.65 3821.06 13390.62)" xlink:href="#a"/><linearGradient id="j" x1="-872.26" y1="566.59" x2="-872.15" y2="567.56" gradientTransform="matrix(31.2 -14.42 -19.83 -42.91 38569.18 11816.13)" gradientUnits="userSpaceOnUse"><stop offset="0" stop-color="#ffb934"/><stop offset="1" stop-color="#ff8647"/></linearGradient><linearGradient id="k" x1="-862.11" y1="422.25" x2="-861.12" y2="421.62" gradientTransform="matrix(19.33 -8.94 -2.13 -4.6 17662.97 -5717.05)" xlink:href="#b"/><linearGradient id="d" x1="-867.93" y1="498.69" x2="-866.93" y2="498.88" gradientTransform="matrix(24.44 -11.29 -4.03 -8.72 23311.69 -5411.27)" gradientUnits="userSpaceOnUse"><stop offset="0" stop-color="#ede5f3"/><stop offset=".98" stop-color="#c7b5e3"/></linearGradient><linearGradient id="c" x1="-867.26" y1="385.12" x2="-867.12" y2="386.52" gradientTransform="matrix(24.15 -11.16 -1.74 -3.77 21720.86 -8192.21)" gradientUnits="userSpaceOnUse"><stop offset="0" stop-color="#fff3ff"/><stop offset=".98" stop-color="#e7e2ee"/></linearGradient><linearGradient id="l" x1="-864.48" y1="429.49" x2="-864.31" y2="430.65" gradientTransform="matrix(21.46 -9.92 -2.24 -4.84 19613.66 -6455.6)" xlink:href="#c"/><linearGradient id="m" x1="-864.87" y1="421.79" x2="-863.88" y2="422.1" gradientTransform="matrix(21.46 -9.92 -2.12 -4.6 19552.4 -6600.87)" xlink:href="#d"/><linearGradient id="n" x1="-859.26" y1="558.11" x2="-858.23" y2="558.15" gradientTransform="matrix(17.54 -8.11 -13.1 -28.34 22480.12 8923.24)" xlink:href="#e"/><linearGradient id="o" x1="-833.38" y1="554.22" x2="-832.3" y2="554.24" gradientTransform="matrix(9.52 -4.4 -11.41 -24.69 14381.9 10081.97)" gradientUnits="userSpaceOnUse"><stop offset="0" stop-color="#e3e3ff"/><stop offset=".98" stop-color="#e0d1eb"/></linearGradient><linearGradient id="p" x1="-820.32" y1="557.75" x2="-819.88" y2="557.74" gradientTransform="matrix(7.77 -3.59 -12.91 -27.94 13698.57 12698.01)" xlink:href="#a"/><linearGradient id="q" x1="-850.79" y1="563.57" x2="-850.39" y2="564.55" gradientTransform="matrix(13.84 -6.4 -16.9 -36.56 21405.21 15247.35)" xlink:href="#a"/><radialGradient id="f" cx="-821.57" cy="379.43" r=".39" gradientTransform="matrix(20.71 .29 2.55 -2.34 16130.25 1169.87)" gradientUnits="userSpaceOnUse"><stop offset="0" stop-color="#00e0ff"/><stop offset=".99" stop-color="#1f84ff"/></radialGradient><radialGradient id="h" cx="-750.42" cy="-160.04" r=".42" gradientTransform="matrix(18.7 .08 2.31 -.65 14486.46 1.48)" xlink:href="#f"/></defs><g data-name="Group 8538" fill="#5285f5"><rect data-name="Rectangle 17433" width="138" height="89" rx="5"/><path data-name="Path 5406" d="M124.5 13a.54.54 0 0 1 .35.13l4 3.56a.39.39 0 0 1 .05.57.12.12 0 0 1-.05 0l-4 3.56a.54.54 0 0 1-.35.13.49.49 0 0 1-.35-.13.4.4 0 0 1-.05-.58l.05-.05 3.64-3.19-3.64-3.24a.39.39 0 0 1-.15-.32.39.39 0 0 1 .15-.31.49.49 0 0 1 .35-.13Z"/></g><path d="M53.13 20.56A19.8 19.8 0 0 1 48.32 19c-.32-.16-.61-.33-.91-.51-2.67-1.68-4.5-4.45-6.64-6.65C31.6 2.37 15.51 5.36 7.1 14.17A25.55 25.55 0 0 0 .3 27.78C-1.29 38 3.41 48.87 14.54 51.61c6.71 1.65 13.18-.17 19.84-.89a28.65 28.65 0 0 1 5.4 0c.81.06 1.61.16 2.41.28q2 .3 4 .78c1.12.26 2.23.55 3.33.86l.6.17c3 .9 6.14 2.1 9.32 3l.31.09a27.84 27.84 0 0 0 7.07 1.1C77.7 57.06 83 45.15 80.33 36.26S68.68 23.67 60 21.81l-1.46-.3c-.49-.1-.95-.18-1.42-.26l-.9-.15-1-.16-.38-.06c-.55-.09-1.14-.2-1.71-.32Z" fill="#84aaff" opacity=".5" style="isolation:isolate" data-name="Mask Group"/><path data-name="Vector-2" d="M58.25 81.62a19.86 19.86 0 0 1 4.91-1.23h1c3.16 0 6.18 1.36 9.16 2.09 12.8 3.1 24.82-8 27.24-20a25.64 25.64 0 0 0-1.51-15.13C95 37.85 85.22 31.16 74.34 34.78 67.78 37 63.28 42 58 46.11A28.5 28.5 0 0 1 53.48 49q-1.08.57-2.19 1.05c-1.24.55-2.51 1-3.79 1.47-1.09.38-2.19.72-3.28 1l-.6.17c-3 .85-6.31 1.5-9.48 2.44l-.31.09a27.63 27.63 0 0 0-6.59 2.82c-9.24 5.81-7.34 18.69-.37 24.8s16.56 4.44 24.9 1.39l1.39-.52 1.34-.54.84-.35.9-.39.36-.15q.83-.36 1.65-.66Z" fill="#84aaff"/><path d="m88.35 51.09.19-1.53-6-.74-6-.74-.19 1.54a7.41 7.41 0 0 0-3.25 4l-2.47 24.49s2.23 1.77 7.86 2.46c6.09.75 8.39-.44 8.39-.44l3.65-24.4a7.38 7.38 0 0 0-2.18-4.64Z" fill="url(#g)"/><path d="M76.33 49.62a24.15 24.15 0 0 0 6.1 1.47 19.65 19.65 0 0 0 5.93 0l.1-.85-12-1.54Z" fill="url(#b)"/><path d="m75.46 45.16-.09 3.16s1.56.94 7 1.61 7.44.16 7.44.16l.8-3.07a50.19 50.19 0 0 1-8.12-.51c-5.39-.67-7.03-1.35-7.03-1.35Z" fill="url(#f)"/><path d="M75.46 45.16A36.69 36.69 0 0 1 90.63 47a50.19 50.19 0 0 1-8.12-.51c-5.51-.65-7.05-1.33-7.05-1.33Z" fill="#5ce5ff"/><path d="m76.7 45.06-.17-.81A43.59 43.59 0 0 1 90 45.82l-.34 1.08s-2.42-.12-6.83-.66a31.37 31.37 0 0 1-6.13-1.18Z" fill="#5ce5ff"/><path d="M76.53 44.25a51 51 0 0 0 6.6 1.19 46.67 46.67 0 0 0 6.89.39l-.28.92a39.85 39.85 0 0 1-6.9-.42 35.36 35.36 0 0 1-6.12-1.17Z" fill="url(#h)"/><path d="m75.67 48.19.12-2.73H76l-.18 2.72Zm1.21.48.12-2.73h.2l-.2 2.75Zm1.38.33.13-2.72h.2L78.4 49Zm1.46.27.12-2.73h.21l-.19 2.73Zm7.79.79.38-2.7h.2l-.43 2.69Zm-6.08-.58.23-2.72h.2l-.28 2.71Zm2.23.27.27-2.75h.21l-.33 2.71Zm5.43.19.49-2.68h.2L89.25 50Zm-3.37.06.3-2.71h.22L85.87 50Z" fill="#afa4c6" opacity=".3" style="isolation:isolate"/><path d="M76.27 50.1a8.2 8.2 0 0 0-2.65 3.22l-2.25 24.56A10.83 10.83 0 0 0 75.73 79l3.37-25a8.87 8.87 0 0 1 1.17-2.93Z" opacity=".5" fill="url(#a)" style="isolation:isolate"/><path d="M73.62 53.32a22.4 22.4 0 0 0 5.38 1.4 7.61 7.61 0 0 1 1.26-3.65l-4-1a9.17 9.17 0 0 0-2.64 3.25Z" fill="#fbf9fa" opacity=".6" style="isolation:isolate"/><path d="M76.94 56.7a44.22 44.22 0 0 0 11.35 1.2.73.73 0 0 1 .78.69.86.86 0 0 1 0 .16l-2.94 19.63a.74.74 0 0 1-.62.62 26.11 26.11 0 0 1-11.28-1.07.74.74 0 0 1-.53-.79L76 57.35a.75.75 0 0 1 .83-.66Z" fill="url(#e)"/><path d="m84.82 80.15 3.43-23.33 1.75-.31-3.6 23.32Z" opacity=".5" fill="url(#i)" style="isolation:isolate"/><path d="m116.86 38.43-.75-2.6-10.24 3-10.23 3 .75 2.6A13.08 13.08 0 0 0 93.86 53l10.18 31s4.81 1.31 14.41-1.47c10.37-3 13.29-6.51 13.29-6.51l-8.16-31.62a13 13 0 0 0-6.72-5.97Z" fill="url(#j)"/><path d="M96.39 44.36a42.28 42.28 0 0 0 10.88-1.82 34.53 34.53 0 0 0 9.59-4.11l-.41-1.43-20.52 5.81Z" fill="url(#k)"/><path d="m91.9 37.78 2 5.15s3.18.45 12.48-2.25 12.15-4.88 12.15-4.88l-.81-5.51a90 90 0 0 1-13.51 4.8C95 37.76 91.9 37.78 91.9 37.78Z" fill="url(#d)"/><path d="M91.9 37.78a65 65 0 0 1 25.85-7.5 87.39 87.39 0 0 1-13.5 4.8c-9.36 2.72-12.35 2.7-12.35 2.7Z" fill="url(#c)"/><path d="M93.85 36.76 93 35.57a76.56 76.56 0 0 1 22.91-6.77l.2 2s-4 1.48-11.51 3.66-10.75 2.3-10.75 2.3Z" fill="url(#l)"/><path d="M93 35.57a86.55 86.55 0 0 0 11.49-2.64 81.21 81.21 0 0 0 11.43-4.14l.18 1.68a72.7 72.7 0 0 1-11.46 4.09A61.27 61.27 0 0 1 94 36.9Z" fill="url(#m)"/><path d="M94.33 42.53 92.66 38l.35-.1 1.58 4.51Zm2.29-.08L95 38l.36-.1 1.57 4.51Zm2.45-.45-1.67-4.47.35-.1 1.57 4.51Zm2.55-.54L100 37l.35-.1 1.57 4.51Zm13.15-4.12-1.24-4.6.36-.1 1.11 4.63Zm-10.23 3.27-1.49-4.53.35-.11 1.4 4.57Zm3.79-1.09L106.92 35l.35-.11 1.32 4.59Zm8.93-3.45-1.05-4.66.34-.11 1 4.69Zm-5.41 2.43-1.37-4.57.35-.11 1.27 4.6Z" fill="#afa4c6" opacity=".3" style="isolation:isolate"/><path d="M95.08 56.73a61.12 61.12 0 0 0 14.28-2.27 2.74 2.74 0 0 1 3.37 1.9l5.67 21.48a2.75 2.75 0 0 1-1.81 3.3c-2.94 1-8.14 2.21-13.12 1.15Z" fill="url(#n)"/><path d="M124.53 47.71a17.11 17.11 0 0 1-4.36 3.39 1.79 1.79 0 0 0-.84 2.07l6.24 21.74a1.82 1.82 0 0 0 2.25 1.23 2.33 2.33 0 0 0 .33-.14 16.38 16.38 0 0 0 3.07-1.94Z" fill="url(#o)"/><path d="m128.41 77.54-7.79-29.8 2.65-1.74 7.47 29.91Z" opacity=".5" fill="url(#p)" style="isolation:isolate"/><path d="M96.62 45.18s-2.24 3.63-2.07 7l10.52 31s2.84.44 7.85-1.15l-9-32.51s-.68-3.48-.11-5.52Z" opacity=".5" fill="url(#q)" style="isolation:isolate"/><path d="M94.55 52.2a39.25 39.25 0 0 0 9.68-1.47 13.23 13.23 0 0 1-.47-6.75l-7.15 1.2S94.44 49 94.55 52.2Z" fill="#fbf9fa" opacity=".6" style="isolation:isolate"/><g data-name="Group 8532"><circle data-name="Ellipse 212" cx="64.64" cy="72.21" r="12" fill="#fff"/><path d="M63.7 77.56h-1.07a6.88 6.88 0 0 1-.72-.08c-.22 0-.44-.09-.65-.15a5.8 5.8 0 0 0-.63-.2 5 5 0 0 1 .13-.67c.07-.23.14-.44.22-.65a9.52 9.52 0 0 0 1.08.29 6 6 0 0 0 1.34.12 3.1 3.1 0 0 0 1.87-.47 1.75 1.75 0 0 0 .5-2 1.37 1.37 0 0 0-.38-.48 3 3 0 0 0-.67-.39l-.94-.4-.74-.3a6 6 0 0 1-.85-.4 2.66 2.66 0 0 1-.67-.53 2.33 2.33 0 0 1-.44-.72 2.8 2.8 0 0 1-.15-1 2.61 2.61 0 0 1 .72-1.88 3.5 3.5 0 0 1 2.05-.91v-1.47a2.46 2.46 0 0 1 .53-.06 2.6 2.6 0 0 1 .56.06v1.39a10.79 10.79 0 0 1 1.26.14 6.45 6.45 0 0 1 1.07.27 5.15 5.15 0 0 1-.33 1.24 4.68 4.68 0 0 0-1-.28 6.43 6.43 0 0 0-1.24-.12 2.68 2.68 0 0 0-1.49.36 1.27 1.27 0 0 0-.53 1.11 1.44 1.44 0 0 0 .14.62 1.39 1.39 0 0 0 .41.46 2.91 2.91 0 0 0 .64.36l.87.36.57.24a7 7 0 0 1 1 .47 2.86 2.86 0 0 1 .76.57 2.4 2.4 0 0 1 .49.77 2.65 2.65 0 0 1 .19 1.08 2.88 2.88 0 0 1-.74 2.07 3.82 3.82 0 0 1-2.11 1.05v1.72h-1.04v-1.59Z" fill="#3e6ff5"/></g><g data-name="Group 8533"><circle data-name="Ellipse 212-2" cx="99.64" cy="78.21" r="7" fill="#fff"/><path d="M99.09 81.32h-1.05a2.49 2.49 0 0 1-.37-.09l-.37-.12a2.7 2.7 0 0 1 .08-.39c0-.13.08-.25.12-.37.21.07.42.12.63.17a4.11 4.11 0 0 0 .78.07 1.82 1.82 0 0 0 1.09-.28.91.91 0 0 0 .37-.76 1 1 0 0 0-.07-.41.76.76 0 0 0-.22-.28 1.54 1.54 0 0 0-.39-.23l-.55-.23-.44-.17a4.44 4.44 0 0 1-.49-.24 1.45 1.45 0 0 1-.65-.73 1.85 1.85 0 0 1-.09-.58 1.51 1.51 0 0 1 .42-1.09 1.94 1.94 0 0 1 1.2-.53v-.85a1.26 1.26 0 0 1 .63 0V75a6 6 0 0 1 .74.08 4.85 4.85 0 0 1 .63.16 3.17 3.17 0 0 1-.2.73 2.78 2.78 0 0 0-.56-.17 3.54 3.54 0 0 0-.73-.07 1.65 1.65 0 0 0-.87.21.73.73 0 0 0-.3.65.66.66 0 0 0 .08.36.78.78 0 0 0 .24.27 1.36 1.36 0 0 0 .37.21l.5.21.34.14a6.11 6.11 0 0 1 .58.27 1.67 1.67 0 0 1 .45.34 1.57 1.57 0 0 1 .28.44 1.53 1.53 0 0 1 .11.63 1.68 1.68 0 0 1-.43 1.2 2.14 2.14 0 0 1-1.23.62v1a.4.4 0 0 1-.15 0h-.31a.51.51 0 0 1-.17 0v-.93Z" fill="#3e6ff5"/></g><path data-name="Path 5406" d="M125.74 14.66a.56.56 0 0 1 .35.13l4 3.56a.42.42 0 0 1 0 .58v.05l-4 3.55a.51.51 0 0 1-.35.13.53.53 0 0 1-.36-.13.41.41 0 0 1 0-.57v-.06l3.62-3.24-3.65-3.24a.41.41 0 0 1-.14-.31.43.43 0 0 1 .14-.32.59.59 0 0 1 .39-.13Z" fill="#fff"/></svg>