<svg xmlns="http://www.w3.org/2000/svg" xmlns:xlink="http://www.w3.org/1999/xlink" width="138" height="89" viewBox="0 0 138 89">
  <defs>
    <linearGradient id="linear-gradient" x2="3.96" y2="6.454" gradientUnits="objectBoundingBox">
      <stop offset="0" stop-color="#bc2f67"/>
      <stop offset="1" stop-color="#702bb4"/>
    </linearGradient>
    <linearGradient id="linear-gradient-2" x2="2.056" y2="7.847" xlink:href="#linear-gradient"/>
    <linearGradient id="linear-gradient-3" x1="4.962" x2="0.612" y2="0.322" gradientUnits="objectBoundingBox">
      <stop offset="0" stop-color="#9943cd"/>
      <stop offset="1" stop-color="#dc567b"/>
    </linearGradient>
  </defs>
  <g id="Raggruppa_331" data-name="Raggruppa 331" transform="translate(-38.288 -290)">
    <g id="Raggruppa_2817" data-name="Raggruppa 2817">
      <g id="Group_8538" data-name="Group 8538" transform="translate(10.288 -4)">
        <rect id="Rectangle_17433" data-name="Rectangle 17433" width="138" height="89" rx="5" transform="translate(28 294)" fill="#9f87f7"/>
        <path id="Path_5406" data-name="Path 5406" d="M.5,0A.533.533,0,0,1,.853.13l4,3.556a.41.41,0,0,1,0,.628l-4,3.556A.533.533,0,0,1,.5,8a.533.533,0,0,1-.354-.13.41.41,0,0,1,0-.628L3.793,4,.146.759A.421.421,0,0,1,0,.444.421.421,0,0,1,.146.13.533.533,0,0,1,.5,0Z" transform="translate(152 307)" fill="#fff"/>
      </g>
      <path id="Vector" d="M53.125,14.56a20.163,20.163,0,0,1-4.806-1.582c-.315-.158-.614-.325-.909-.508-2.674-1.676-4.5-4.445-6.638-6.653C31.6-3.635,15.514-.644,7.095,8.173A25.606,25.606,0,0,0,.3,21.78c-1.59,10.211,3.108,21.088,14.242,23.828,6.711,1.651,13.179-.172,19.838-.887a28.24,28.24,0,0,1,5.4-.035c.805.064,1.611.163,2.411.281,1.342.2,2.674.468,3.99.779,1.12.261,2.23.557,3.324.867.2.054.4.113.6.172,3,.892,6.143,2.1,9.323,3,.1.03.206.059.31.084A27.562,27.562,0,0,0,66.82,51c10.882.059,16.147-11.853,13.509-20.738-2.622-8.827-11.646-12.587-20.323-14.455-.49-.1-.976-.207-1.461-.3s-.95-.177-1.42-.261c-.3-.054-.594-.1-.893-.148-.325-.054-.65-.108-.97-.158l-.387-.059Q53.992,14.745,53.125,14.56Z" transform="translate(54.288 326)" fill="#d3c7ff"/>
      <g id="Mask_Group" data-name="Mask Group" transform="translate(10.288 -4)">
        <path id="Vector-2" data-name="Vector" d="M53.125,14.56a20.163,20.163,0,0,1-4.806-1.582c-.315-.158-.614-.325-.909-.508-2.674-1.676-4.5-4.445-6.638-6.653C31.6-3.635,15.514-.644,7.095,8.173A25.606,25.606,0,0,0,.3,21.78c-1.59,10.211,3.108,21.088,14.242,23.828,6.711,1.651,13.179-.172,19.838-.887a28.24,28.24,0,0,1,5.4-.035c.805.064,1.611.163,2.411.281,1.342.2,2.674.468,3.99.779,1.12.261,2.23.557,3.324.867.2.054.4.113.6.172,3,.892,6.143,2.1,9.323,3,.1.03.206.059.31.084A27.562,27.562,0,0,0,66.82,51c10.882.059,16.147-11.853,13.509-20.738-2.622-8.827-11.646-12.587-20.323-14.455-.49-.1-.976-.207-1.461-.3s-.95-.177-1.42-.261c-.3-.054-.594-.1-.893-.148-.325-.054-.65-.108-.97-.158l-.387-.059Q53.992,14.745,53.125,14.56Z" transform="translate(28 300)" fill="#d3c7ff" opacity="0.5" style="mix-blend-mode: multiply;isolation: isolate"/>
      </g>
      <g id="Frame" transform="translate(119.288 318)">
        <g id="Group">
          <g id="Group-2" data-name="Group">
            <path id="Vector-3" data-name="Vector" d="M0,1.143A1.132,1.132,0,0,1,1.28.01C5.8.6,21.362,2.416,34.205,1.365a1.047,1.047,0,0,1,1.133.977l2.815,48.231a1.2,1.2,0,0,1-1.124,1.273c-5.4.345-27.656,1.7-35.6.912a.958.958,0,0,1-.862-.936Z" transform="translate(0 -0.002)" fill="#8097ec"/>
            <path id="Vector-4" data-name="Vector" d="M0,1.1A1.09,1.09,0,0,1,1.231.009c4.349.567,19.326,2.316,31.686,1.3a1,1,0,0,1,1.091.944l2.708,46.416a1.156,1.156,0,0,1-1.083,1.224c-5.2.337-26.614,1.634-34.262.879a.922.922,0,0,1-.829-.9Z" transform="translate(0.542 1.248)" fill="#f2f6ff"/>
            <path id="Vector-5" data-name="Vector" d="M0,.715l.517,9.953a.634.634,0,0,0,.615.6c1.838.041,7.575.148,10.816-.041a.706.706,0,0,0,.665-.69A64.684,64.684,0,0,0,12.336.969.805.805,0,0,0,11.573.32L.691,0A.675.675,0,0,0,0,.715Z" transform="translate(4.586 5.198)" fill="#fff" opacity="0.78"/>
            <path id="Vector-6" data-name="Vector" d="M4.284,2.143A2.142,2.142,0,1,1,2.142,0,2.143,2.143,0,0,1,4.284,2.143Z" transform="translate(8.724 7.293)" fill="url(#linear-gradient)"/>
            <path id="Vector-7" data-name="Vector" d="M.559,3.008,7.37,2.975a.524.524,0,0,0,.435-.813A4.4,4.4,0,0,0,3.907,0,4.731,4.731,0,0,0,.1,2.146.55.55,0,0,0,.559,3.008Z" transform="translate(7.098 12.727)" fill="url(#linear-gradient-2)"/>
            <g id="Group-3" data-name="Group" opacity="0.6">
              <path id="Vector-8" data-name="Vector" d="M12.3.829a.326.326,0,0,0,.328-.337.358.358,0,0,0-.353-.337L.242,0A.221.221,0,0,0,.02.32l.09.255A.532.532,0,0,0,.562.9Z" transform="translate(19.577 5.806)" fill="#fff" opacity="0.6"/>
            </g>
            <g id="Group-4" data-name="Group" opacity="0.6">
              <path id="Vector-9" data-name="Vector" d="M.242,0A.221.221,0,0,0,.02.32l.09.246a.532.532,0,0,0,.451.32L12.3.829a.326.326,0,0,0,.328-.337.358.358,0,0,0-.353-.337Z" transform="translate(19.585 7.662)" fill="#fff" opacity="0.6"/>
            </g>
            <g id="Group-5" data-name="Group" opacity="0.6">
              <path id="Vector-10" data-name="Vector" d="M.242,0A.221.221,0,0,0,.02.32l.09.255A.532.532,0,0,0,.562.9L12.3.838A.326.326,0,0,0,12.626.5a.358.358,0,0,0-.353-.337Z" transform="translate(19.593 9.543)" fill="#fff" opacity="0.6"/>
            </g>
            <g id="Group-6" data-name="Group" opacity="0.6">
              <path id="Vector-11" data-name="Vector" d="M28.3.747a.319.319,0,0,0,.32-.337.379.379,0,0,0-.361-.337L.188,0C0,0-.058.115.065.263L.352.624A.8.8,0,0,0,.9.887Z" transform="translate(4.81 18.7)" fill="#fff" opacity="0.6"/>
            </g>
            <g id="Group-7" data-name="Group" opacity="0.6">
              <path id="Vector-12" data-name="Vector" d="M.188,0C0,0-.058.115.065.263L.352.624A.8.8,0,0,0,.9.887L28.3.747a.319.319,0,0,0,.32-.337.379.379,0,0,0-.361-.337Z" transform="translate(4.81 20.556)" fill="#fff" opacity="0.6"/>
            </g>
            <path id="Vector-13" data-name="Vector" d="M.4.1C1.077.041,2.333.017,3.03,0a.625.625,0,0,1,.624.476,10.2,10.2,0,0,1,.312,2.538.563.563,0,0,1-.558.55L.848,3.548A.614.614,0,0,1,.24,2.99L0,.592A.451.451,0,0,1,.4.1Z" transform="translate(4.528 23.553)" fill="#fff" opacity="0.6"/>
            <g id="Group-8" data-name="Group" opacity="0.6">
              <path id="Vector-14" data-name="Vector" d="M.292,0a.267.267,0,0,0-.287.32L.087.83a.411.411,0,0,0,.394.337l6.311-.033A.34.34,0,0,0,7.128.789v-.2A.36.36,0,0,0,6.784.238Z" transform="translate(9.334 24.612)" fill="#fff" opacity="0.6"/>
            </g>
            <path id="Vector-15" data-name="Vector" d="M.406.1C1.079.041,2.335.017,3.032,0a.625.625,0,0,1,.624.476,10.2,10.2,0,0,1,.312,2.538.563.563,0,0,1-.558.55L.849,3.548A.614.614,0,0,1,.242,2.99L0,.583A.437.437,0,0,1,.406.1Z" transform="translate(18.469 23.479)" fill="#fff" opacity="0.6"/>
            <g id="Group-9" data-name="Group" opacity="0.6">
              <path id="Vector-16" data-name="Vector" d="M.292,0a.267.267,0,0,0-.287.32L.087.83a.411.411,0,0,0,.394.337l6.311-.033A.34.34,0,0,0,7.128.789v-.2A.36.36,0,0,0,6.784.238Z" transform="translate(23.269 24.538)" fill="#fff" opacity="0.6"/>
            </g>
            <g id="Group-10" data-name="Group">
              <path id="Vector-17" data-name="Vector" d="M3.237,3.227.873,3.219a.629.629,0,0,1-.648-.534L0,.706A.447.447,0,0,1,.1.378.514.514,0,0,1,.463.2L1.235.131C1.858.074,2.638.008,3.073,0a.658.658,0,0,1,.665.46,9.7,9.7,0,0,1,.1,2.234A.57.57,0,0,1,3.237,3.227ZM.48.378A.347.347,0,0,0,.242.493.237.237,0,0,0,.184.682L.406,2.661a.457.457,0,0,0,.468.378l2.363.008h.008a.4.4,0,0,0,.419-.361A10.349,10.349,0,0,0,3.573.5.48.48,0,0,0,3.089.172C2.663.181,1.883.246,1.267.3.956.337.677.361.48.378Z" transform="translate(5.355 29.959)" fill="#fff"/>
              <path id="Vector-18" data-name="Vector" d="M.305.164C.8.131,1.881.016,2.389,0a.46.46,0,0,1,.46.312,8.03,8.03,0,0,1,.074,1.766.393.393,0,0,1-.41.361L.625,2.431A.44.44,0,0,1,.174,2.07L0,.485A.3.3,0,0,1,.305.164Z" transform="translate(5.784 30.377)" fill="#fff" opacity="0.6"/>
              <g id="Group-11" data-name="Group" opacity="0.6">
                <path id="Vector-19" data-name="Vector" d="M.02.756a.582.582,0,0,0,.574.435l21.838-.3a.436.436,0,0,0,.435-.452A.451.451,0,0,0,22.424,0L.586.016A.586.586,0,0,0,.02.756Z" transform="translate(10.64 31.108)" fill="#fff" opacity="0.6"/>
              </g>
              <path id="Vector-20" data-name="Vector" d="M3.237,3.236.873,3.227a.629.629,0,0,1-.648-.534L0,.706A.447.447,0,0,1,.1.378.514.514,0,0,1,.463.2L1.235.131C1.858.074,2.638.008,3.073,0h.008a.671.671,0,0,1,.657.46,9.7,9.7,0,0,1,.1,2.234A.577.577,0,0,1,3.237,3.236ZM.48.386A.365.365,0,0,0,.242.5.237.237,0,0,0,.184.69L.406,2.669a.457.457,0,0,0,.468.378l2.363.008h.008a.4.4,0,0,0,.419-.361A10.349,10.349,0,0,0,3.573.509.49.49,0,0,0,3.089.181C2.663.189,1.883.255,1.267.312.964.345.677.37.48.386Z" transform="translate(5.38 35.017)" fill="#fff"/>
              <path id="Vector-21" data-name="Vector" d="M.3.164C.8.131,1.881.016,2.389,0a.46.46,0,0,1,.46.312,8.03,8.03,0,0,1,.074,1.766.393.393,0,0,1-.41.361L.625,2.431A.44.44,0,0,1,.174,2.07L0,.485A.316.316,0,0,1,.3.164Z" transform="translate(5.809 35.436)" fill="#fff" opacity="0.6"/>
              <g id="Group-12" data-name="Group" opacity="0.6">
                <path id="Vector-22" data-name="Vector" d="M.02.756a.582.582,0,0,0,.574.435l21.838-.3a.436.436,0,0,0,.435-.452A.451.451,0,0,0,22.424,0L.578.016A.587.587,0,0,0,.02.756Z" transform="translate(10.665 36.167)" fill="#fff" opacity="0.6"/>
              </g>
              <path id="Vector-23" data-name="Vector" d="M3.237,3.227h0L.873,3.219a.629.629,0,0,1-.648-.534L0,.706A.447.447,0,0,1,.1.378.514.514,0,0,1,.463.2L1.235.131C1.858.074,2.638.008,3.073,0h.008a.671.671,0,0,1,.657.46,9.7,9.7,0,0,1,.1,2.234A.581.581,0,0,1,3.237,3.227ZM.471.378A.365.365,0,0,0,.233.493.237.237,0,0,0,.176.682L.4,2.661a.457.457,0,0,0,.468.378l2.363.008h.008a.4.4,0,0,0,.419-.361A10.349,10.349,0,0,0,3.565.5.48.48,0,0,0,3.081.172C2.654.181,1.875.246,1.259.3.956.337.677.361.471.378Z" transform="translate(5.413 40.084)" fill="#fff"/>
              <path id="Vector-24" data-name="Vector" d="M.3.164C.8.131,1.881.016,2.389,0a.46.46,0,0,1,.46.312,8.03,8.03,0,0,1,.074,1.766.393.393,0,0,1-.41.361L.625,2.431A.44.44,0,0,1,.174,2.07L0,.485A.311.311,0,0,1,.3.164Z" transform="translate(5.833 40.503)" fill="#fff" opacity="0.6"/>
              <g id="Group-13" data-name="Group" opacity="0.6">
                <path id="Vector-25" data-name="Vector" d="M.023.756A.582.582,0,0,0,.6,1.191l21.838-.3A.436.436,0,0,0,22.87.435.451.451,0,0,0,22.427,0L.581.016A.577.577,0,0,0,.023.756Z" transform="translate(10.695 41.234)" fill="#fff" opacity="0.6"/>
              </g>
              <path id="Vector-26" data-name="Vector" d="M3.245,3.227h0L.873,3.219a.629.629,0,0,1-.648-.534L0,.706A.447.447,0,0,1,.1.378.514.514,0,0,1,.463.2L1.235.131C1.858.074,2.638.008,3.073,0h.008a.671.671,0,0,1,.657.46,9.7,9.7,0,0,1,.1,2.234A.568.568,0,0,1,3.245,3.227ZM.48.378A.365.365,0,0,0,.242.493.237.237,0,0,0,.184.682L.406,2.661a.457.457,0,0,0,.468.378l2.363.008h.008a.4.4,0,0,0,.419-.361A10.349,10.349,0,0,0,3.573.5.48.48,0,0,0,3.089.172C2.663.181,1.883.246,1.267.3.964.337.685.361.48.378Z" transform="translate(5.429 45.151)" fill="#fff"/>
              <path id="Vector-27" data-name="Vector" d="M.3.164C.8.131,1.88.016,2.388,0a.46.46,0,0,1,.46.312,8.03,8.03,0,0,1,.074,1.766.393.393,0,0,1-.41.361L.624,2.431A.44.44,0,0,1,.173,2.07L0,.485A.322.322,0,0,1,.3.164Z" transform="translate(5.859 45.562)" fill="#fff" opacity="0.6"/>
              <g id="Group-14" data-name="Group" opacity="0.6">
                <path id="Vector-28" data-name="Vector" d="M.02.756a.582.582,0,0,0,.574.435l21.838-.3a.436.436,0,0,0,.435-.452A.451.451,0,0,0,22.424,0L.578.016A.587.587,0,0,0,.02.756Z" transform="translate(10.722 46.293)" fill="#fff" opacity="0.6"/>
              </g>
              <path id="Vector-29" data-name="Vector" d="M.186,1.705a.363.363,0,0,1,.5.131l.468.829a.116.116,0,0,0,.205-.008L2.5.079a.128.128,0,0,1,.246.057,5.051,5.051,0,0,1-1.461,3.54A2.72,2.72,0,0,1,.03,2.19.393.393,0,0,1,.186,1.705Z" transform="translate(6.084 44.333)" fill="url(#linear-gradient-3)"/>
            </g>
          </g>
          <g id="Group-15" data-name="Group">
            <path id="Vector-30" data-name="Vector" d="M0,1.143A1.124,1.124,0,0,1,1.272.01C5.794.6,21.354,2.416,34.2,1.365a1.047,1.047,0,0,1,1.133.977l2.815,48.231a1.2,1.2,0,0,1-1.124,1.273c-5.408.345-27.656,1.7-35.608.912a.958.958,0,0,1-.862-.936Z" transform="translate(2.856 3.004)" fill="#8097ec"/>
            <path id="Vector-31" data-name="Vector" d="M0,1.1A1.09,1.09,0,0,1,1.231.009c4.349.567,19.326,2.316,31.686,1.3a1,1,0,0,1,1.091.944l2.708,46.416a1.156,1.156,0,0,1-1.083,1.224c-5.2.337-26.622,1.634-34.262.879a.922.922,0,0,1-.829-.9Z" transform="translate(3.389 4.254)" fill="#f2eeff"/>
            <g id="Group-16" data-name="Group">
              <path id="Vector-32" data-name="Vector" d="M5.241,5.248H5.233L1.409,5.231a1.018,1.018,0,0,1-1.05-.871L.006,1.15A.658.658,0,0,1,.17.624a.856.856,0,0,1,.583-.3C1.072.3,1.532.263,2.008.222,3.017.131,4.281.016,4.987,0H5A1.073,1.073,0,0,1,6.062.747a15.811,15.811,0,0,1,.164,3.622A.965.965,0,0,1,5.241,5.248ZM.761.624A.527.527,0,0,0,.383.813a.424.424,0,0,0-.1.3L.637,4.328a.739.739,0,0,0,.763.608l3.824.016h.008a.649.649,0,0,0,.681-.591A15.577,15.577,0,0,0,5.758.821.788.788,0,0,0,4.971.3c-.7.016-1.953.123-2.954.214C1.54.558,1.089.6.761.624Z" transform="translate(6.519 26.904)" fill="#fff"/>
              <path id="Vector-33" data-name="Vector" d="M.487.263C1.292.206,3.04.017,3.869,0a.747.747,0,0,1,.747.509,12.833,12.833,0,0,1,.123,2.858.63.63,0,0,1-.673.583L1,3.934a.7.7,0,0,1-.722-.591L0,.78A.5.5,0,0,1,.487.263Z" transform="translate(7.202 27.593)" fill="#fff" opacity="0.6"/>
              <g id="Group-17" data-name="Group" opacity="0.6">
                <path id="Vector-34" data-name="Vector" d="M.02,1.215c.074.419.312.706.574.706l21.977-.485c.246-.008.443-.337.443-.739-.008-.386-.205-.7-.443-.7L.586.025C.2.016-.079.616.02,1.215Z" transform="translate(15.072 28.784)" fill="#9f87f7" opacity="0.6"/>
              </g>
              <path id="Vector-35" data-name="Vector" d="M5.25,5.248H5.241L1.409,5.231a1.018,1.018,0,0,1-1.05-.871L.006,1.15A.658.658,0,0,1,.17.624a.856.856,0,0,1,.583-.3C1.072.3,1.532.263,2.008.222,3.017.131,4.281.016,4.987,0H5A1.073,1.073,0,0,1,6.062.747a15.811,15.811,0,0,1,.164,3.622A.952.952,0,0,1,5.25,5.248ZM.769.632A.527.527,0,0,0,.391.821a.424.424,0,0,0-.1.3L.646,4.336a.739.739,0,0,0,.763.608l3.824.016h.008a.649.649,0,0,0,.681-.591A15.577,15.577,0,0,0,5.767.829.788.788,0,0,0,4.979.3c-.7.016-1.953.123-2.954.214C1.548.567,1.1.608.769.632Z" transform="translate(6.551 36.841)" fill="#fff"/>
              <path id="Vector-36" data-name="Vector" d="M.488.263C1.292.206,3.04.017,3.869,0a.747.747,0,0,1,.747.509,12.833,12.833,0,0,1,.123,2.858.63.63,0,0,1-.673.583L1,3.934a.7.7,0,0,1-.722-.591L0,.78A.481.481,0,0,1,.488.263Z" transform="translate(7.251 37.538)" fill="#fff" opacity="0.6"/>
              <g id="Group-18" data-name="Group" opacity="0.6">
                <path id="Vector-37" data-name="Vector" d="M.02,1.215c.066.419.3.706.558.706l21.378-.485c.238-.008.435-.337.427-.739-.008-.386-.2-.7-.435-.7L.57.025C.2.025-.079.616.02,1.215Z" transform="translate(15.113 38.721)" fill="#9f87f7" opacity="0.6"/>
              </g>
              <path id="Vector-38" data-name="Vector" d="M5.241,5.248H5.233L1.409,5.231a1.018,1.018,0,0,1-1.05-.871L.006,1.15A.658.658,0,0,1,.17.624a.856.856,0,0,1,.583-.3C1.072.3,1.532.263,2.008.222,3.017.131,4.281.016,4.987,0H5A1.073,1.073,0,0,1,6.062.747a15.811,15.811,0,0,1,.164,3.622A.96.96,0,0,1,5.241,5.248ZM.769.624A.527.527,0,0,0,.391.813a.424.424,0,0,0-.1.3L.646,4.328a.739.739,0,0,0,.763.608l3.824.016h.008a.649.649,0,0,0,.681-.591A15.577,15.577,0,0,0,5.767.821.778.778,0,0,0,4.979.3c-.7.016-1.953.123-2.954.214C1.548.558,1.1.6.769.624Z" transform="translate(6.863 46.786)" fill="#fff"/>
              <path id="Vector-39" data-name="Vector" d="M.487.263C1.292.206,3.04.017,3.869,0a.747.747,0,0,1,.747.509,12.833,12.833,0,0,1,.123,2.858.63.63,0,0,1-.673.583L1,3.934a.7.7,0,0,1-.722-.591L0,.78A.491.491,0,0,1,.487.263Z" transform="translate(7.555 47.475)" fill="#fff" opacity="0.6"/>
              <g id="Group-19" data-name="Group" opacity="0.6">
                <path id="Vector-40" data-name="Vector" d="M.02,1.224c.066.419.3.706.566.706l21.649-.493c.246-.008.443-.337.435-.739-.008-.386-.205-.7-.443-.7L.578.025C.2.025-.079.616.02,1.224Z" transform="translate(15.425 48.658)" fill="#9f87f7" opacity="0.6"/>
              </g>
              <path id="Vector-41" data-name="Vector" d="M.3,2.759a.59.59,0,0,1,.812.214L1.875,4.32A.19.19,0,0,0,2.211,4.3L4.058.123a.211.211,0,0,1,.4.09A8.244,8.244,0,0,1,2.1,5.954,4.444,4.444,0,0,1,.061,3.54.6.6,0,0,1,.3,2.759Z" transform="translate(7.915 45.48)" fill="#9f87f7"/>
              <path id="Vector-42" data-name="Vector" d="M.3,2.759a.59.59,0,0,1,.812.214L1.871,4.32A.19.19,0,0,0,2.208,4.3L4.054.123a.211.211,0,0,1,.4.09,8.244,8.244,0,0,1-2.363,5.74A4.444,4.444,0,0,1,.058,3.54.609.609,0,0,1,.3,2.759Z" transform="translate(7.443 35.215)" fill="#9f87f7"/>
              <path id="Vector-43" data-name="Vector" d="M.3,2.759a.59.59,0,0,1,.812.214L1.871,4.32A.19.19,0,0,0,2.208,4.3L4.054.123a.211.211,0,0,1,.4.09,8.244,8.244,0,0,1-2.363,5.74A4.444,4.444,0,0,1,.058,3.54.609.609,0,0,1,.3,2.759Z" transform="translate(7.443 25.294)" fill="#9f87f7"/>
            </g>
            <g id="Group-20" data-name="Group">
              <g id="Group-21" data-name="Group">
                <path id="Vector-44" data-name="Vector" d="M.017,1.117c.066.394.3.673.566.673l21.846-.016c.246,0,.451-.312.451-.682s-.189-.665-.435-.665L.6,0C.214,0-.074.55.017,1.117Z" transform="translate(9.667 6.767)" fill="#8097ec"/>
              </g>
              <path id="Vector-45" data-name="Vector" d="M5.05,5.051H5.042L1.357,5.034A1,1,0,0,1,.34,4.2L0,1.109A.688.688,0,0,1,.159.6.784.784,0,0,1,.717.32C1.029.3,1.472.263,1.932.214,2.908.123,4.115.016,4.8,0h.016A1.022,1.022,0,0,1,5.83.714,15.152,15.152,0,0,1,5.986,4.2.9.9,0,0,1,5.05,5.051ZM.742.608A.516.516,0,0,0,.372.788a.358.358,0,0,0-.09.3L.619,4.172a.707.707,0,0,0,.739.583l3.685.016H5.05A.629.629,0,0,0,5.707,4.2,15.351,15.351,0,0,0,5.559.8.75.75,0,0,0,4.8.3C4.131.3,2.925.419,1.956.5,1.488.542,1.054.583.742.608Z" transform="translate(5.865 18.429)" fill="#fff"/>
              <path id="Vector-46" data-name="Vector" d="M.478.255C1.249.2,2.932.017,3.728,0a.709.709,0,0,1,.714.493,12.861,12.861,0,0,1,.123,2.751.621.621,0,0,1-.648.567L.97,3.794a.676.676,0,0,1-.7-.567L0,.756A.485.485,0,0,1,.478.255Z" transform="translate(6.531 19.093)" fill="#fff" opacity="0.6"/>
              <g id="Group-22" data-name="Group" opacity="0.6">
                <path id="Vector-47" data-name="Vector" d="M.02,1.183c.066.4.3.682.574.673l21.747-.468c.246-.008.443-.328.435-.714S22.572,0,22.334,0L.586.025C.2.033-.079.6.02,1.183Z" transform="translate(14.104 20.227)" fill="#fff" opacity="0.6"/>
              </g>
              <path id="Vector-48" data-name="Vector" d="M5.05,5.051H5.042L1.357,5.034A1,1,0,0,1,.34,4.2L0,1.109A.688.688,0,0,1,.159.6.784.784,0,0,1,.717.32C1.029.3,1.464.255,1.923.214,2.9.123,4.106.016,4.787,0H4.8A1.022,1.022,0,0,1,5.822.714,15.152,15.152,0,0,1,5.977,4.2.9.9,0,0,1,5.05,5.051ZM.742.6A.516.516,0,0,0,.372.78a.358.358,0,0,0-.09.3L.619,4.164a.707.707,0,0,0,.739.583l3.685.016H5.05A.629.629,0,0,0,5.707,4.2,15.351,15.351,0,0,0,5.559.8.75.75,0,0,0,4.8.287C4.131.3,2.925.411,1.956.493,1.488.534,1.054.575.742.6Z" transform="translate(5.602 10.865)" fill="#fff"/>
              <path id="Vector-49" data-name="Vector" d="M.478.255C1.249.2,2.932.017,3.728,0a.709.709,0,0,1,.714.493,12.861,12.861,0,0,1,.123,2.751.621.621,0,0,1-.648.567L.97,3.794a.676.676,0,0,1-.7-.567L0,.756A.49.49,0,0,1,.478.255Z" transform="translate(6.26 11.522)" fill="#fff" opacity="0.6"/>
              <g id="Group-23" data-name="Group" opacity="0.6">
                <path id="Vector-50" data-name="Vector" d="M.02,1.183c.066.4.3.682.574.673l21.747-.468c.246-.008.443-.328.435-.714S22.572,0,22.334,0L.586.025C.2.025-.079.6.02,1.183Z" transform="translate(13.841 12.663)" fill="#fff" opacity="0.6"/>
              </g>
            </g>
          </g>
        </g>
      </g>
    </g>
  </g>
</svg>
