<svg xmlns="http://www.w3.org/2000/svg" width="300" height="289.831" viewBox="0 0 300 289.831">
  <g id="Group_8928" data-name="Group 8928" transform="translate(-27 -933)">
    <path id="Rectangle_17447" data-name="Rectangle 17447" d="M45.763,0H254.237A45.763,45.763,0,0,1,300,45.763v198.3a45.763,45.763,0,0,1-45.763,45.763H45.763A45.763,45.763,0,0,1,0,244.068V45.763A45.763,45.763,0,0,1,45.763,0Z" transform="translate(27 933)" fill="#9f87f7"/>
    <g id="Group" transform="translate(80.226 995.751)">
      <path id="Vector" d="M0,0H193.548V164.328H0Z" fill="#f1f2f3"/>
      <g id="Group-2" data-name="Group" transform="translate(13.452 18.823)">
        <g id="Group-3" data-name="Group" transform="translate(0 33.121)">
          <g id="Group-4" data-name="Group">
            <path id="Vector-2" data-name="Vector" d="M0,0H149.876V7.679H0Z" fill="#9f87f7"/>
            <path id="Vector-3" data-name="Vector" d="M0,0H97.1V7.679H0Z" transform="translate(0 14.346)" fill="#9f87f7"/>
          </g>
          <g id="Group-5" data-name="Group" transform="translate(0 34.517)">
            <path id="Vector-4" data-name="Vector" d="M0,0H149.876V7.679H0Z" fill="#9f87f7"/>
            <path id="Vector-5" data-name="Vector" d="M0,0H97.1V7.679H0Z" transform="translate(0 14.346)" fill="#9f87f7"/>
          </g>
          <g id="Group-6" data-name="Group" transform="translate(0 72.789)">
            <path id="Vector-6" data-name="Vector" d="M0,0H149.876V7.679H0Z" fill="#9f87f7"/>
            <path id="Vector-7" data-name="Vector" d="M0,0H97.1V7.679H0Z" transform="translate(0 14.346)" fill="#9f87f7"/>
          </g>
        </g>
        <g id="Group-7" data-name="Group" transform="translate(3.315)">
          <path id="Vector-8" data-name="Vector" d="M0,6.21a6.467,6.467,0,0,1,1.513-4.6A5.722,5.722,0,0,1,5.861,0a5.632,5.632,0,0,1,4.348,1.613,6.427,6.427,0,0,1,1.513,4.6V19.016a6.467,6.467,0,0,1-1.513,4.6A5.71,5.71,0,0,1,5.861,25.2a5.71,5.71,0,0,1-4.348-1.588A6.427,6.427,0,0,1,0,19.016ZM3.868,19.254a2.613,2.613,0,0,0,.553,1.877,1.972,1.972,0,0,0,1.465.554,1.972,1.972,0,0,0,1.465-.554A2.613,2.613,0,0,0,7.9,19.254V5.945a2.613,2.613,0,0,0-.553-1.877,1.972,1.972,0,0,0-1.465-.554,1.972,1.972,0,0,0-1.465.554,2.613,2.613,0,0,0-.553,1.877Z" fill="#9f87f7"/>
          <path id="Vector-9" data-name="Vector" d="M11.747,18.751a6.97,6.97,0,0,1-1.441,4.765,5.676,5.676,0,0,1-4.467,1.637,5.529,5.529,0,0,1-4.3-1.588,6.632,6.632,0,0,1-1.466-4.6v-.626H3.724v.893a2.613,2.613,0,0,0,.553,1.877,1.972,1.972,0,0,0,1.465.554,2.077,2.077,0,0,0,1.584-.629,3.686,3.686,0,0,0,.553-2.382v-4.5A3.645,3.645,0,0,1,4.3,16.344,3.776,3.776,0,0,1,1.083,14.9,6.9,6.9,0,0,1,0,10.711V6.21a6.467,6.467,0,0,1,1.513-4.6A5.722,5.722,0,0,1,5.861,0a5.632,5.632,0,0,1,4.348,1.613,6.427,6.427,0,0,1,1.513,4.6v12.54ZM5.886,12.782a2.011,2.011,0,0,0,1.465-.554A2.613,2.613,0,0,0,7.9,10.35V5.922a2.508,2.508,0,0,0-.553-1.854,1.959,1.959,0,0,0-1.465-.529,2,2,0,0,0-1.465.529,2.547,2.547,0,0,0-.553,1.854V10.35a2.613,2.613,0,0,0,.553,1.877A2.05,2.05,0,0,0,5.886,12.782Z" transform="translate(13.813 0.048)" fill="#9f87f7"/>
          <path id="Vector-10" data-name="Vector" d="M3.724,0V3.731H0V0Zm0,13.407v3.731H0V13.407Z" transform="translate(28.131 7.799)" fill="#9f87f7"/>
          <path id="Vector-11" data-name="Vector" d="M0,6.21a6.467,6.467,0,0,1,1.513-4.6A5.722,5.722,0,0,1,5.861,0a5.632,5.632,0,0,1,4.348,1.613,6.427,6.427,0,0,1,1.513,4.6V19.016a6.467,6.467,0,0,1-1.513,4.6A5.71,5.71,0,0,1,5.861,25.2a5.71,5.71,0,0,1-4.348-1.588A6.427,6.427,0,0,1,0,19.016ZM3.868,19.254a2.613,2.613,0,0,0,.553,1.877,1.972,1.972,0,0,0,1.465.554,2.011,2.011,0,0,0,1.465-.554A2.613,2.613,0,0,0,7.9,19.254V5.945a2.613,2.613,0,0,0-.553-1.877,1.972,1.972,0,0,0-1.465-.554,2.011,2.011,0,0,0-1.465.554,2.613,2.613,0,0,0-.553,1.877Z" transform="translate(34.352)" fill="#9f87f7"/>
          <path id="Vector-12" data-name="Vector" d="M3.652,16.681v2.287A2.508,2.508,0,0,0,4.2,20.821a1.959,1.959,0,0,0,1.465.529,2,2,0,0,0,1.465-.529,2.547,2.547,0,0,0,.553-1.854V13.552a2.613,2.613,0,0,0-.553-1.877,1.972,1.972,0,0,0-1.465-.554,2.011,2.011,0,0,0-1.465.554,2.613,2.613,0,0,0-.553,1.877V14.3H0L.7,0H10.882V3.514H4.18L3.868,9.387A3.651,3.651,0,0,1,7.231,7.582a3.776,3.776,0,0,1,3.216,1.444,6.908,6.908,0,0,1,1.081,4.188V18.7a6.565,6.565,0,0,1-1.465,4.6,5.527,5.527,0,0,1-4.3,1.588,5.517,5.517,0,0,1-4.3-1.588A6.637,6.637,0,0,1,0,18.7V16.657H3.652Z" transform="translate(48.406 0.289)" fill="#9f87f7"/>
        </g>
      </g>
    </g>
  </g>
</svg>
