<?xml version="1.0" standalone="no"?>
<!DOCTYPE svg PUBLIC "-//W3C//DTD SVG 20010904//EN"
 "http://www.w3.org/TR/2001/REC-SVG-20010904/DTD/svg10.dtd">
<svg version="1.0" xmlns="http://www.w3.org/2000/svg"
 width="512.000000pt" height="512.000000pt" viewBox="0 0 512.000000 512.000000"
 preserveAspectRatio="xMidYMid meet">
<metadata>
Created by potrace 1.16, written by Peter Selinger 2001-2019
</metadata>
<g transform="translate(0.000000,512.000000) scale(0.100000,-0.100000)"
fill="#000000" stroke="none">
<path d="M279 5094 l-24 -26 -3 -351 c-2 -235 0 -364 8 -389 13 -46 50 -68
115 -68 l45 0 0 -169 0 -168 -58 -22 c-127 -46 -237 -141 -300 -258 -66 -124
-63 -29 -60 -1770 l3 -1578 32 -67 c39 -82 101 -146 185 -190 l63 -33 1396 -3
c1314 -2 1400 -1 1455 16 56 16 62 16 124 0 75 -19 206 -23 282 -7 29 6 90 28
135 50 l81 39 55 -25 c114 -52 200 -69 367 -69 131 -1 168 3 240 22 345 93
614 374 684 714 25 121 21 314 -8 429 -70 276 -254 500 -509 619 -148 70 -220
85 -403 85 l-161 0 -6 185 c-5 205 -14 248 -75 364 -80 154 -264 283 -430 302
-26 3 -57 7 -69 10 l-22 4 -3 383 -4 382 -26 67 c-61 162 -193 289 -345 334
l-53 15 0 170 0 169 44 0 c53 0 94 14 112 38 10 13 13 101 14 398 l0 381 -23
21 -23 22 -1405 0 -1406 0 -24 -26z m311 -319 c0 -213 16 -255 95 -255 79 0
95 42 95 255 l0 165 80 0 80 0 0 -185 c0 -184 0 -186 25 -210 32 -33 84 -33
122 -1 l28 24 3 186 4 186 79 0 79 0 0 -185 c0 -184 0 -186 25 -210 34 -35 93
-34 126 1 23 25 24 31 27 210 l3 184 80 0 79 0 0 -184 0 -183 26 -27 c39 -38
93 -36 128 5 26 30 26 32 26 210 l0 179 80 0 80 0 0 -176 c0 -177 5 -205 39
-231 9 -7 32 -12 51 -12 19 0 42 5 51 12 34 26 39 54 39 231 l0 176 79 0 80 0
3 -184 c3 -179 4 -185 27 -210 34 -36 89 -36 125 0 l26 27 0 183 0 184 79 0
80 0 3 -184 c3 -179 4 -185 27 -210 33 -35 92 -36 126 -1 25 24 25 26 25 210
l0 185 80 0 80 0 0 -250 0 -250 -1275 0 -1275 0 0 250 0 250 80 0 80 0 0 -165z
m2220 -680 l0 -165 -1105 0 -1105 0 0 165 0 165 1105 0 1105 0 0 -165z m169
-364 c116 -36 210 -132 245 -250 12 -41 16 -98 16 -228 l0 -173 -1531 0 -1531
0 4 198 c3 190 4 199 30 254 46 98 150 184 252 209 17 4 576 7 1243 8 1159 1
1214 0 1272 -18z m261 -926 c0 -82 -2 -96 -17 -101 -10 -3 -51 -22 -91 -41
-133 -66 -248 -206 -296 -362 -19 -62 -20 -99 -24 -668 l-3 -603 -1315 0
-1314 0 0 935 0 935 1530 0 1530 0 0 -95z m356 -294 c121 -57 215 -186 234
-323 5 -35 10 -213 10 -395 l0 -333 -425 0 -425 0 0 333 c0 182 5 361 10 397
45 283 339 441 596 321z m799 -841 c80 -25 187 -78 228 -112 l28 -23 -316
-315 -315 -315 0 392 0 392 33 4 c17 3 86 4 152 2 90 -2 138 -8 190 -25z m418
-307 c45 -66 97 -186 112 -262 36 -172 13 -350 -68 -511 -34 -69 -60 -103
-137 -180 -105 -105 -180 -153 -314 -197 -72 -24 -96 -27 -221 -28 -119 0
-151 3 -212 23 -40 12 -73 25 -73 28 0 3 9 18 19 33 51 71 85 181 97 306 l6
70 376 378 c207 207 380 377 383 377 3 0 18 -17 32 -37z m-973 -425 c0 -189
-5 -370 -10 -403 -31 -187 -195 -338 -384 -352 -130 -10 -241 33 -331 128 -65
68 -100 138 -114 229 -6 36 -11 216 -11 403 l0 337 425 0 425 0 0 -342z
m-1027 -265 c6 -234 34 -326 134 -451 l34 -42 -1317 0 c-1316 0 -1318 0 -1361
21 -51 25 -96 76 -112 128 -7 24 -11 128 -11 280 l0 241 1314 0 1313 0 6 -177z"/>
<path d="M1503 2555 c-17 -7 -36 -22 -42 -34 -6 -11 -11 -79 -11 -160 l0 -141
-145 0 c-142 0 -147 -1 -170 -25 -25 -24 -25 -25 -25 -233 l0 -209 26 -24 c24
-23 33 -24 170 -27 l144 -3 0 -143 c0 -140 0 -143 26 -167 25 -24 27 -24 236
-24 l210 0 24 28 c23 27 24 35 24 167 l0 139 146 3 c146 3 146 3 170 31 24 28
24 31 24 231 0 202 0 203 -25 230 -24 26 -25 26 -170 26 l-145 0 0 135 c0 154
-10 186 -61 204 -48 17 -366 14 -406 -4z m287 -306 c0 -81 5 -149 11 -161 19
-36 69 -48 204 -48 l125 0 0 -80 0 -80 -142 0 c-197 -1 -198 -2 -198 -204 l0
-136 -79 0 -80 0 -3 144 c-3 137 -4 146 -27 170 -24 26 -27 26 -168 26 l-143
0 0 80 0 80 124 0 c207 0 216 9 216 215 l0 135 80 0 80 0 0 -141z"/>
</g>
</svg>
