<svg xmlns="http://www.w3.org/2000/svg" width="60" height="60" viewBox="0 0 60 60">
  <g id="Group_8923" data-name="Group 8923" transform="translate(-22 -339)">
    <rect id="Rectangle_17429" data-name="Rectangle 17429" width="60" height="60" rx="10" transform="translate(22 339)" fill="#c387f7"/>
    <path id="Vector" d="M19.973,2.027a6.922,6.922,0,0,1,0,9.788l-8.156,8.157a6.922,6.922,0,0,1-9.79-9.788l8.156-8.157a6.923,6.923,0,0,1,9.79,0ZM13.448,15.078,6.922,8.552,3.658,11.817a4.614,4.614,0,1,0,6.526,6.525l3.264-3.265Zm4.894-11.42a4.615,4.615,0,0,0-6.526,0L8.554,6.921l6.526,6.526,3.262-3.262a4.615,4.615,0,0,0,0-6.526Z" transform="translate(41 358)" fill="#fff"/>
  </g>
</svg>
