<?xml version="1.0" standalone="no"?>
<!DOCTYPE svg PUBLIC "-//W3C//DTD SVG 20010904//EN"
 "http://www.w3.org/TR/2001/REC-SVG-20010904/DTD/svg10.dtd">
<svg version="1.0" xmlns="http://www.w3.org/2000/svg"
 width="512.000000pt" height="512.000000pt" viewBox="0 0 512.000000 512.000000"
 preserveAspectRatio="xMidYMid meet">
<metadata>
Created by potrace 1.16, written by Peter Selinger 2001-2019
</metadata>
<g transform="translate(0.000000,512.000000) scale(0.100000,-0.100000)"
fill="#000000" stroke="none">
<path d="M2625 4641 c-77 -19 -142 -79 -164 -150 -7 -24 -11 -120 -11 -248 0
-209 0 -210 28 -264 17 -35 42 -64 70 -84 40 -27 52 -30 138 -33 l94 -4 0
-158 0 -158 -30 -7 c-44 -10 -140 -76 -187 -129 -76 -86 -112 -186 -113 -309
l0 -67 -42 30 c-93 67 -263 90 -387 51 -82 -25 -144 -67 -224 -150 -56 -58
-67 -75 -67 -103 0 -45 34 -78 80 -78 28 0 45 12 106 70 91 88 155 120 244
120 162 0 284 -123 285 -285 0 -118 -18 -144 -295 -420 l-240 -240 -205 205
-204 204 69 72 c57 58 70 78 70 103 0 43 -39 81 -82 81 -30 0 -66 -33 -409
-377 -316 -317 -382 -388 -407 -438 -50 -101 -63 -201 -41 -307 12 -54 60
-162 79 -173 31 -19 -12 -24 -223 -27 l-233 -3 -75 -37 c-93 -46 -168 -122
-212 -215 -30 -65 -32 -74 -32 -188 0 -114 2 -123 32 -187 53 -112 141 -194
258 -238 49 -18 82 -23 183 -24 119 -1 124 0 143 23 22 27 25 79 5 107 -12 16
-31 20 -128 25 -131 7 -189 27 -252 87 -119 114 -116 307 6 417 22 21 61 47
87 59 44 20 64 21 399 24 l352 4 0 -296 0 -296 -108 0 c-120 0 -136 -7 -148
-67 -4 -23 0 -36 19 -59 l25 -29 494 -3 c302 -2 523 1 572 7 198 27 354 178
386 374 32 201 -71 392 -258 480 l-67 32 -258 5 -257 5 480 480 480 480 0
-730 c0 -624 2 -739 15 -790 46 -176 193 -309 371 -335 93 -13 1805 -13 1899
0 150 22 283 121 348 257 l32 68 3 757 2 757 -22 20 c-28 27 -78 27 -106 1
l-22 -21 0 -545 0 -545 -652 3 -653 3 -58 24 c-78 31 -157 110 -188 188 l-24
58 0 515 0 515 29 63 c37 79 114 152 191 181 54 20 73 21 705 21 l650 0 0
-104 c0 -101 1 -105 26 -125 34 -27 64 -27 98 0 l26 20 0 299 c0 262 -2 305
-18 358 -24 74 -80 160 -135 205 -46 38 -138 87 -162 87 -13 0 -15 23 -15 160
l0 160 80 0 c120 0 186 35 231 123 19 35 20 56 17 281 l-3 243 -27 39 c-35 49
-80 80 -138 93 -52 12 -2276 13 -2325 2z m235 -386 l0 -235 -105 0 c-151 0
-145 -9 -145 226 0 112 4 193 11 205 16 30 45 38 147 38 l92 1 0 -235z m430 0
l0 -235 -135 0 -135 0 0 235 0 235 135 0 135 0 0 -235z m420 0 l0 -235 -130 0
-130 0 0 235 0 235 130 0 130 0 0 -235z m420 0 l0 -235 -130 0 -130 0 0 235 0
235 130 0 130 0 0 -235z m420 0 l0 -235 -130 0 -130 0 0 235 0 235 130 0 130
0 0 -235z m375 223 c39 -18 47 -63 43 -250 -4 -214 1 -208 -150 -208 l-108 0
0 235 0 235 95 0 c52 0 106 -5 120 -12z m-295 -788 c0 -234 12 -261 143 -310
69 -26 131 -85 163 -154 18 -40 26 -78 31 -159 l6 -107 -654 0 c-548 0 -664
-2 -712 -15 -164 -43 -296 -166 -350 -328 -20 -59 -21 -87 -25 -539 -4 -555 0
-614 54 -726 70 -145 212 -250 369 -272 40 -5 340 -10 694 -10 l624 0 -6 -97
c-3 -54 -13 -119 -22 -145 -23 -64 -84 -131 -153 -165 l-57 -28 -945 0 -945 0
-56 26 c-68 32 -118 81 -150 145 l-24 49 0 1165 0 1165 27 50 c36 69 75 104
171 150 125 61 127 66 127 291 l0 184 845 0 845 0 0 -170z m-3080 -2023 c-143
-143 -260 -251 -282 -260 -157 -73 -338 -1 -397 157 -27 72 -27 130 0 203 20
53 45 81 268 306 l246 247 205 -205 205 -205 -245 -243z m446 -475 c106 -48
177 -156 177 -267 0 -111 -71 -219 -177 -267 -50 -22 -60 -23 -398 -26 l-348
-3 0 296 0 297 348 -4 c336 -3 349 -4 398 -26z"/>
<path d="M4003 2615 c-58 -25 -68 -53 -71 -212 l-4 -143 -134 0 c-215 0 -224
-10 -224 -242 0 -169 5 -189 59 -225 31 -21 45 -23 167 -23 l134 0 0 -125 c0
-139 10 -178 55 -213 26 -21 39 -22 196 -22 165 0 168 0 198 26 41 34 51 77
51 217 l0 117 130 0 c147 0 178 9 210 63 18 28 20 51 20 185 0 232 -9 242
-224 242 l-134 0 -4 143 c-3 159 -12 182 -73 211 -44 21 -304 22 -352 1z m267
-298 c0 -173 5 -189 68 -207 20 -5 94 -10 165 -10 l127 0 0 -85 0 -85 -149 0
c-146 0 -150 -1 -180 -26 l-31 -26 0 -154 0 -154 -90 0 -90 0 0 151 0 151 -29
29 -29 29 -151 0 -151 0 0 85 0 85 128 0 c70 0 144 5 164 10 63 18 68 34 68
207 l0 153 90 0 90 0 0 -153z"/>
</g>
</svg>
