<svg xmlns="http://www.w3.org/2000/svg" xmlns:xlink="http://www.w3.org/1999/xlink" width="308.602" height="35.926" viewBox="0 0 308.602 35.926">
  <defs>
    <clipPath id="clip-path">
      <path id="Tracciato_232" data-name="Tracciato 232" d="M183.334-59h2.381v13.094h.072a6.8,6.8,0,0,1,5.663-3.138c4.293,0,6.349,2.417,6.349,6.6v10.713h-2.381v-9.342c0-3.751-1.046-5.808-4.581-5.808-.5,0-5.122.325-5.122,6.493v8.657h-2.381ZM213.85-42.082v-.433c0-2.922-1.407-4.364-4.328-4.364a7.5,7.5,0,0,0-5.158,1.984l-1.443-1.7c1.551-1.587,3.968-2.453,7.142-2.453,3.318,0,6.168,1.876,6.168,5.988v7.539a27.482,27.482,0,0,0,.289,3.787h-2.308a16.861,16.861,0,0,1-.217-2.741h-.072A6.317,6.317,0,0,1,207.97-31.3c-2.993,0-5.808-1.66-5.808-4.942,0-5.483,6.457-5.844,10.5-5.844h1.191Zm-1.226,1.947c-2.417,0-7.863.18-7.863,3.571,0,2.236,2.055,3.1,3.967,3.1,3.462,0,5.122-2.453,5.122-5.447v-1.226Zm9.018-3.21c0-1.515-.072-2.814-.144-5.267h2.345v3.138h.072a5.553,5.553,0,0,1,5.41-3.571,6.423,6.423,0,0,1,1.768.216l-.469,2.345a4,4,0,0,0-1.37-.181,5.282,5.282,0,0,0-5.231,5.411v9.522h-2.381V-43.345Zm12.011-1.515c0-1.263-.108-2.489-.18-3.752h2.561v2.561h.072a6.458,6.458,0,0,1,5.447-2.993,5.352,5.352,0,0,1,5.375,3.5,6.167,6.167,0,0,1,5.555-3.5c4.292,0,6.348,2.417,6.348,6.6v10.713h-2.381v-9.847c0-3.427-.974-5.3-4.256-5.3-3.535,0-4.761,3.03-4.761,6.168v8.982h-2.381v-9.847c0-3.427-.974-5.3-4.256-5.3-.578,0-4.762.325-4.762,6.493v8.657h-2.381V-44.86Zm41.193,2.777v-.433c0-2.922-1.407-4.364-4.328-4.364a7.5,7.5,0,0,0-5.158,1.984l-1.442-1.7c1.55-1.587,3.967-2.453,7.141-2.453,3.319,0,6.169,1.876,6.169,5.988v7.539a27.487,27.487,0,0,0,.288,3.787h-2.308a16.867,16.867,0,0,1-.216-2.741h-.073a6.317,6.317,0,0,1-5.952,3.174c-2.993,0-5.807-1.66-5.807-4.942,0-5.483,6.457-5.844,10.5-5.844h1.19Zm-1.226,1.947c-2.416,0-7.863.18-7.863,3.571,0,2.236,2.056,3.1,3.968,3.1,3.462,0,5.122-2.453,5.122-5.447v-1.226Zm21.066-4.509a5.065,5.065,0,0,0-4.22-2.236c-3.932-.072-6.349,2.85-6.349,6.709s2.417,6.781,6.349,6.709a5.064,5.064,0,0,0,4.22-2.236l1.948,1.479a8.167,8.167,0,0,1-6.168,2.921c-5.518.072-8.945-3.787-8.945-8.873s3.427-8.946,8.945-8.874a8.168,8.168,0,0,1,6.168,2.922l-1.948,1.479Zm11,9.992,5.158-13.96h2.886L305.289-27.33c-1.01,2.6-2.381,4.256-5.3,4.256a7.638,7.638,0,0,1-2.2-.252l.253-2.308a3.784,3.784,0,0,0,1.8.4c1.66,0,2.525-1.118,3.247-3.03l1.226-3.246-6.925-17.1h2.993l5.3,13.96Zm-231.841-18v2.689H70.122v4.448h3.723v4.675A36.668,36.668,0,0,0,74-35.456a4.944,4.944,0,0,0,4.033,3.8,14.5,14.5,0,0,0,6-.062l.672-.165V-34.2c0-1.272-.02-2.316-.031-2.316a4.194,4.194,0,0,0-.393.176,4.356,4.356,0,0,1-1.644.217c-1.262.041-1.3.031-1.861-.258a1.655,1.655,0,0,1-.827-.807l-.259-.506-.031-3.91-.031-3.909H84.7v-4.448H79.636v-5.378H73.845Zm51.92,0v2.689h-3.62V-48.6l-.331-.228a10.95,10.95,0,0,0-2.824-1.21,8.585,8.585,0,0,0-2.9-.28,9.4,9.4,0,0,0-2.772.228,9.393,9.393,0,0,0-6.681,5.213,7.44,7.44,0,0,0-.776,4.064,7.078,7.078,0,0,0,.279,2.669,8.922,8.922,0,0,0,2.286,3.847c2.813,2.8,7.726,3.713,11.79,2.182a7.961,7.961,0,0,0,2.317-1.438l.248-.258L120.9-35.735l-1.882-1.913-.486.393a3.192,3.192,0,0,1-2.234.92,4.293,4.293,0,0,1-3.579-1.292,4.8,4.8,0,0,1-1.127-4.034,4.119,4.119,0,0,1,3.785-3.754,3.778,3.778,0,0,1,3.258.931l.4.383,1.458-1.531a19.524,19.524,0,0,1,1.551-1.541,1.927,1.927,0,0,1,.093.827v.827h3.609l.031,4.934c.031,4.706.052,4.975.259,5.585.672,2.017,2.172,3.1,4.788,3.5a13.818,13.818,0,0,0,5.141-.228l.651-.155v-4.6l-.537.186a6.6,6.6,0,0,1-3.238,0,2,2,0,0,1-1.055-1.1c-.165-.372-.185-.827-.217-4.271l-.031-3.848h5.078v-4.448h-5.068v-5.378h-5.792Zm-89.93,2.441c-4.2.786-7.2,3.558-7.964,7.374a12.729,12.729,0,0,0,.144,4.613,9.489,9.489,0,0,0,7.4,6.6,16.221,16.221,0,0,0,5.1.042c3.951-.9,6.609-3.258,7.6-6.744a7.5,7.5,0,0,0,.228-2.586,6.786,6.786,0,0,0-.29-2.689,9.4,9.4,0,0,0-7.116-6.474,16.8,16.8,0,0,0-5.1-.135Zm3.724,4.923a4.125,4.125,0,0,1,3.03,3.6c.279,2.379-.569,4.106-2.462,5.006-.651.31-.713.321-2.068.321-1.728-.01-2.276-.186-3.206-1.055a4.726,4.726,0,0,1-1.376-4.209,4.158,4.158,0,0,1,2.234-3.32,5.8,5.8,0,0,1,3.848-.341Zm20.6-4.882a5.8,5.8,0,0,0-2.771,1.542,9.22,9.22,0,0,0-.849.941c-.155.248-.165.2-.165-1.014l-.01-1.262H50.884v18.2h5.668l.052-5.306c.051-5.605.072-5.905.559-6.847a2.975,2.975,0,0,1,1.427-1.3,3.122,3.122,0,0,1,1.448-.228,4.923,4.923,0,0,1,1.22.125,3.188,3.188,0,0,1,1.728,2.648c.052.393.1,3.02.1,5.823v5.089l2.875-.021,2.865-.031.031-5.068c.041-7.033-.114-8.719-.993-10.5A5.283,5.283,0,0,0,64-50.214a10.349,10.349,0,0,0-3.837.041Zm32.662-.051a12.7,12.7,0,0,0-5.141,2.12,3.052,3.052,0,0,0-.7.6c0,.041.673.745,1.489,1.562l1.489,1.49.6-.528c2.141-1.913,5.275-2.172,6.919-.569a3.04,3.04,0,0,1,.88,1.81v.393H97.043c-5.326.01-8.967,1.127-10.394,3.216a4.976,4.976,0,0,0-.889,2.782,4.878,4.878,0,0,0,1.51,4.127,6.073,6.073,0,0,0,2.886,1.583,11.033,11.033,0,0,0,4.509,0A5.957,5.957,0,0,0,97.6-33.262l.744-.745.031,1.1.031,1.1h5.275v-5.378c0-5.626-.062-6.588-.475-8.2a6.269,6.269,0,0,0-4.851-4.685,19.742,19.742,0,0,0-5.533-.145Zm5.533,11.449a2.8,2.8,0,0,1-.972,2.441C95.492-34.6,91.6-34.9,91.272-36.81a2.147,2.147,0,0,1,1.448-2.3,9.032,9.032,0,0,1,3.961-.611l1.676-.01v.951Zm46.387-11.439a12.343,12.343,0,0,0-5.586,2.451l-.31.259L140.4-46l1.551,1.489.528-.444a5.908,5.908,0,0,1,4.075-1.614,3.767,3.767,0,0,1,2.679.848,3.091,3.091,0,0,1,1.076,1.924l.052.424-2.089.062a20.062,20.062,0,0,0-6.32.91c-2.958.983-4.478,3.082-4.261,5.885.2,2.421,1.748,4.158,4.385,4.882a11.134,11.134,0,0,0,4.53,0,5.943,5.943,0,0,0,2.989-1.676,7.536,7.536,0,0,1,.734-.724,6.03,6.03,0,0,1,.052,1.138v1.138h5.275v-5a46.949,46.949,0,0,0-.321-7.829,6.394,6.394,0,0,0-5.833-5.637,19.263,19.263,0,0,0-4.759.01Zm5.605,11.48a3.01,3.01,0,0,1-1.665,2.876c-1.707,1.024-4.427.838-5.2-.341a2.11,2.11,0,0,1,0-1.986,4.321,4.321,0,0,1,2.865-1.428c.31-.052,1.355-.093,2.317-.1l1.748-.01-.062.993Z" transform="translate(-27.726 59)" fill="none"/>
    </clipPath>
    <clipPath id="clip-path-2">
      <path id="Tracciato_234" data-name="Tracciato 234" d="M491.1-25.084a3.559,3.559,0,0,0-2.627,3.454,3.519,3.519,0,0,0,2.761,3.475,3.45,3.45,0,0,0,3.351-.952,3.231,3.231,0,0,0,1-2.524A2.886,2.886,0,0,0,495.358-23a3.6,3.6,0,0,0-2.45-2.089,2.922,2.922,0,0,0-1.81.01Z" transform="translate(-488.471 25.232)" fill="none"/>
    </clipPath>
    <clipPath id="clip-path-3">
      <path id="Tracciato_236" data-name="Tracciato 236" d="M16.859-42.752l-.579-.527-.331-.227a10.95,10.95,0,0,0-2.824-1.21,8.588,8.588,0,0,0-2.9-.279,9.428,9.428,0,0,0-2.772.227A9.4,9.4,0,0,0,.776-39.556,7.449,7.449,0,0,0,0-35.491a7.06,7.06,0,0,0,.28,2.668,8.917,8.917,0,0,0,2.286,3.848c2.813,2.8,7.726,3.713,11.79,2.182a7.973,7.973,0,0,0,2.317-1.437l.248-.259-1.882-1.924-1.882-1.913-.486.393a3.187,3.187,0,0,1-2.234.92,4.291,4.291,0,0,1-3.579-1.292A4.8,4.8,0,0,1,5.73-36.34a4.119,4.119,0,0,1,3.785-3.754,3.779,3.779,0,0,1,3.258.931l.4.383,1.458-1.531" transform="translate(0.001 44.996)" fill="none"/>
    </clipPath>
    <clipPath id="clip-path-4">
      <path id="Tracciato_238" data-name="Tracciato 238" d="M269.3-46.668h-3.619v-3.619h-4.879v3.619h-3.619v4.879h3.619v3.619h4.879v-3.619H269.3Z" transform="translate(-257.187 50.287)" fill="none"/>
    </clipPath>
    <clipPath id="clip-path-5">
      <path id="Tracciato_240" data-name="Tracciato 240" d="M253.871-34.548a4.909,4.909,0,0,1-4.9,4.9,4.909,4.909,0,0,1-4.9-4.9,4.909,4.909,0,0,1,4.9-4.9v-4.88a9.794,9.794,0,0,0-9.783,9.783v16.023h4.88v-7.563a9.72,9.72,0,0,0,4.9,1.323,9.794,9.794,0,0,0,9.783-9.783h-4.879Z" transform="translate(-239.185 44.331)" fill="none"/>
    </clipPath>
  </defs>
  <g id="Raggruppa_167" data-name="Raggruppa 167" transform="translate(62 -429)">
    <g id="Raggruppa_166" data-name="Raggruppa 166" transform="translate(-62 429)">
      <g id="Raggruppa_161" data-name="Raggruppa 161" transform="translate(17.113 0)" clip-path="url(#clip-path)">
        <path id="Tracciato_231" data-name="Tracciato 231" d="M22.726-64H314.9v42.1H22.726Z" transform="translate(-25.812 60.914)" fill="#fff"/>
      </g>
      <g id="Raggruppa_162" data-name="Raggruppa 162" transform="translate(301.486 20.841)" clip-path="url(#clip-path-2)">
        <path id="Tracciato_233" data-name="Tracciato 233" d="M483.471-30.232h13.288v13.361H483.471Z" transform="translate(-486.557 27.146)" fill="#fff"/>
      </g>
      <g id="Raggruppa_163" data-name="Raggruppa 163" transform="translate(0 8.643)" clip-path="url(#clip-path-3)">
        <path id="Tracciato_235" data-name="Tracciato 235" d="M-5-50H18.092v25.113H-5Z" transform="translate(1.915 46.91)" fill="#fff"/>
      </g>
      <g id="Raggruppa_164" data-name="Raggruppa 164" transform="translate(158.737 5.378)" clip-path="url(#clip-path-4)">
        <path id="Tracciato_237" data-name="Tracciato 237" d="M252.187-55.287h18.289V-37H252.187Z" transform="translate(-255.273 52.201)" fill="#fff"/>
      </g>
      <g id="Raggruppa_165" data-name="Raggruppa 165" transform="translate(147.626 9.054)" clip-path="url(#clip-path-5)">
        <path id="Tracciato_239" data-name="Tracciato 239" d="M234.185-49.331h25.737v31.977H234.185Z" transform="translate(-237.271 46.245)" fill="#fff"/>
      </g>
    </g>
  </g>
</svg>
