<svg xmlns="http://www.w3.org/2000/svg" width="15" height="15" viewBox="0 0 15 15">
  <path id="Vector" d="M14.912,4.6a.439.439,0,0,0-.351-.176H11.418a2.637,2.637,0,0,0-5.2,0H3.487L2.913.378A.439.439,0,0,0,2.478,0H.439a.439.439,0,0,0,0,.879H2.1L2.67,4.925h0L3.334,9.6a2.2,2.2,0,0,0,.691,1.309A1.318,1.318,0,0,0,4.517,13.2a1.318,1.318,0,1,0,2.468.046h3.667a1.318,1.318,0,1,0,1.243-.879H4.863a.439.439,0,0,1,0-.879h6.584A2.206,2.206,0,0,0,13.56,9.892l1.423-4.907a.44.44,0,0,0-.071-.386Z" fill="#fff"/>
</svg>
