<svg xmlns="http://www.w3.org/2000/svg" width="34" height="34" viewBox="0 0 34 34">
  <g id="Group_2812" data-name="Group 2812" transform="translate(-309 -267)">
    <rect id="Rectangle_1592" data-name="Rectangle 1592" width="34" height="34" rx="17" transform="translate(309 267)" fill="#fff"/>
    <path id="Path_2878" data-name="Path 2878" d="M3.213-16.873a9.506,9.506,0,0,1,6.975-2.893,9.473,9.473,0,0,1,6.955,2.873,9.473,9.473,0,0,1,2.873,6.955,9.473,9.473,0,0,1-2.873,6.955A9.473,9.473,0,0,1,10.188-.109,9.473,9.473,0,0,1,3.233-2.983,9.473,9.473,0,0,1,.359-9.938,9.441,9.441,0,0,1,3.213-16.873Zm11.81,9.511L12.407-9.938l2.616-2.576a.437.437,0,0,0,0-.674l-1.585-1.585a.437.437,0,0,0-.674,0l-2.576,2.616L7.612-14.772a.437.437,0,0,0-.674,0L5.353-13.187a.437.437,0,0,0,0,.674L7.968-9.938,5.353-7.362a.437.437,0,0,0,0,.674L6.938-5.1a.437.437,0,0,0,.674,0l2.576-2.616L12.763-5.1a.437.437,0,0,0,.674,0l1.585-1.585A.437.437,0,0,0,15.022-7.362Z" transform="translate(315.926 294.051)" fill="#4f4f4f"/>
  </g>
</svg>
