<svg id="Livello_1" data-name="Livello 1" xmlns="http://www.w3.org/2000/svg" viewBox="0 0 48 48"><polygon points="25.447 10.45 20 10.457 20.014 5.642 25.447 10.45"/><path d="M41.86162,4.56233l0,.00579V34.05341h0a1.758,1.758,0,0,1-1.74929,1.758l-.418.017-8.74175.04972-.02686-21.59533A4.08084,4.08084,0,0,0,29.22987,11.124l-9.1872-8.26538L39.69434,2.7931h.41342a1.754,1.754,0,0,1,1.75387,1.775h0"/><path d="M7.93,12.47905A1.77959,1.77959,0,0,0,6.13824,14.2586V43.4203h0a1.7866,1.7866,0,0,0,1.8183,1.78632L6.593,45.19532h20.2277a1.77419,1.77419,0,0,0,1.77419-1.775h0V14.25859a1.77419,1.77419,0,0,0-1.77419-1.775h-.68052M23.868,33.91749a.43753.43753,0,0,1-.38421.47595H11.24926a.43754.43754,0,0,1-.38422-.47595V32.69624a.43742.43742,0,0,1,.38422-.47583H23.48382a.43741.43741,0,0,1,.38421.47583Zm0-4.62921a.43754.43754,0,0,1-.38421.476H11.24926a.43754.43754,0,0,1-.38422-.476V28.067a.43742.43742,0,0,1,.38422-.47583H23.48382a.43742.43742,0,0,1,.38421.47583Zm0-4.62921a.43752.43752,0,0,1-.38421.47589H11.24926a.43752.43752,0,0,1-.38422-.47589V23.43775a.43746.43746,0,0,1,.38422-.47583H23.48382a.43745.43745,0,0,1,.38421.47583Z"/></svg>