<svg id="Livello_1" data-name="Livello 1" xmlns="http://www.w3.org/2000/svg" viewBox="0 0 41.53649 37.56572"><path d="M20.35,24.5H43a1.69686,1.69686,0,0,1,1.275.55,1.64955,1.64955,0,0,1,.475,1.3,16.662,16.662,0,0,1-3.8,8.625,20.17191,20.17191,0,0,1-8.1,5.775V43.1a1.79252,1.79252,0,0,1-1.8,1.8H16.95a1.714,1.714,0,0,1-1.3-.525,1.78082,1.78082,0,0,1-.5-1.275V40.75A20.11665,20.11665,0,0,1,7,34.975,16.32854,16.32854,0,0,1,3.25,26.35a1.36179,1.36179,0,0,1,.4-1.3A1.8354,1.8354,0,0,1,5,24.5H7.1m8.05,0H17.4m-7.4,0h2.25" transform="translate(-3.21786 -7.33428)"/><path d="M31.9093,23.1936l6.56732-12.33471a1.783,1.783,0,0,0-.60748-2.33643l-1.401-.9035a1.783,1.783,0,0,0-2.379.41052L22.41,23.1936Z" transform="translate(-3.21786 -7.33428)"/></svg>