<svg xmlns="http://www.w3.org/2000/svg" viewBox="0 0 182.38 182.38"><g id="Livello_2" data-name="Livello 2"><g id="Livello_2-2" data-name="Livello 2"><path d="M86.29,89.79A2.68,2.68,0,0,0,90,88.91c13.15-21.43-3.39-33.65-9.49-37.23a2.63,2.63,0,0,0-3.51.78C73,58.22,63.62,75.94,86.29,89.79Z" fill="#070000"/><path d="M126.72,70.12C120.07,68,100.42,64.21,93.85,90a2.69,2.69,0,0,0,1.9,3.25c24.3,6.34,31.12-13.09,32.75-20A2.66,2.66,0,0,0,126.72,70.12Z" fill="#070000"/><path d="M75.19,120.76a2.68,2.68,0,0,0,3.66-.88C92,98.45,75.46,86.23,69.36,82.65a2.64,2.64,0,0,0-3.51.78C61.89,89.19,52.52,106.92,75.19,120.76Z" fill="#070000"/><path d="M115.62,101.09C109,99,89.32,95.19,82.75,121a2.68,2.68,0,0,0,1.9,3.24c24.3,6.34,31.12-13.09,32.75-20A2.65,2.65,0,0,0,115.62,101.09Z" fill="#070000"/><path d="M58.27,113.62a2.64,2.64,0,0,0-3.52.79c-4,5.76-13.33,23.48,9.34,37.32a2.68,2.68,0,0,0,3.66-.87C80.9,129.42,64.36,117.2,58.27,113.62Z" fill="#070000"/><path d="M104.52,132.07c-6.65-2.11-26.3-5.91-32.87,19.87a2.68,2.68,0,0,0,1.91,3.25c24.29,6.33,31.11-13.09,32.74-20A2.65,2.65,0,0,0,104.52,132.07Z" fill="#070000"/><path d="M103.67,63.54c23.11-9.83,16.7-29.39,13.8-35.85a2.64,2.64,0,0,0-3.32-1.4c-6.56,2.39-24.44,11.39-14,35.84A2.68,2.68,0,0,0,103.67,63.54Z" fill="#070000"/><path d="M91.19,5a86.19,86.19,0,1,0,86.19,86.19h0A86.28,86.28,0,0,0,91.19,5Zm57.26,136.38-24.64-23.64a36.61,36.61,0,0,1-5.6,8.54l23.17,22.17A76.13,76.13,0,0,1,33.94,41L59.87,65.94a.82.82,0,0,1-.06-.26c.32-1.49-.31-9.23.82-13.12L41,33.94A76.13,76.13,0,0,1,148.45,141.38Z" fill="#070000"/><path d="M91.19,182.38a91.19,91.19,0,1,1,91.19-91.19A91.19,91.19,0,0,1,91.19,182.38ZM10,91.19a81.28,81.28,0,0,0,81.19,81.19A81.28,81.28,0,0,1,10,91.19Zm136,59.88-1.29,1.14a81.05,81.05,0,0,1-53.37,20.17A80.85,80.85,0,0,0,146,151.07ZM34.38,48.37a71.13,71.13,0,0,0,99.45,99.77l-22.56-21.58,3.2-3.6a31.22,31.22,0,0,0,4.82-7.37l3-6.26L148,134A71.13,71.13,0,0,0,48.58,34.23L66.29,51,65.43,54a33.6,33.6,0,0,0-.79,7.75c0,1.41.28,3,.23,3.75l2.71,14.82Zm138,42.94a81,81,0,0,1-20.17,53.36L151.06,146a80.86,80.86,0,0,0,21.32-54.67Zm-47.45,34.48,18.76,18-18.74-18ZM31.3,36.43A80.86,80.86,0,0,0,10,91.08,81.09,81.09,0,0,1,30.18,37.71Zm6.43,1.29L55.2,54.51c0-.06,0-.13,0-.19ZM91.08,10A80.86,80.86,0,0,0,36.43,31.3l1.28-1.12A81.09,81.09,0,0,1,91.08,10Z" fill="#070000"/></g></g></svg>