<svg xmlns="http://www.w3.org/2000/svg" width="26.956" height="20.217" viewBox="0 0 26.956 20.217">
  <path id="Path_2880" data-name="Path 2880" d="M17.532-9.022a.655.655,0,0,1-.474-.211.655.655,0,0,1-.211-.474v-7.055a.655.655,0,0,1,.211-.474.655.655,0,0,1,.474-.211h2a.655.655,0,0,1,.474.211.655.655,0,0,1,.211.474v7.055a.655.655,0,0,1-.211.474.655.655,0,0,1-.474.211Zm5.054,0a.655.655,0,0,1-.474-.211.655.655,0,0,1-.211-.474V-21.816a.655.655,0,0,1,.211-.474.655.655,0,0,1,.474-.211h2a.655.655,0,0,1,.474.211.655.655,0,0,1,.211.474V-9.706a.655.655,0,0,1-.211.474.655.655,0,0,1-.474.211Zm-15.163,0a.655.655,0,0,1-.474-.211.655.655,0,0,1-.211-.474v-3.685a.655.655,0,0,1,.211-.474.655.655,0,0,1,.474-.211h2a.655.655,0,0,1,.474.211.655.655,0,0,1,.211.474v3.685a.655.655,0,0,1-.211.474.655.655,0,0,1-.474.211Zm5.054,0A.655.655,0,0,1,12-9.232a.655.655,0,0,1-.211-.474V-20.131A.655.655,0,0,1,12-20.6a.655.655,0,0,1,.474-.211h2a.655.655,0,0,1,.474.211.655.655,0,0,1,.211.474V-9.706a.655.655,0,0,1-.211.474.655.655,0,0,1-.474.211Zm13.636,3.37a.82.82,0,0,1,.605.237.82.82,0,0,1,.237.605v1.685a.82.82,0,0,1-.237.605.82.82,0,0,1-.605.237H1.685A1.619,1.619,0,0,1,.5-2.783,1.619,1.619,0,0,1,0-3.967v-17.69a.82.82,0,0,1,.237-.605A.82.82,0,0,1,.842-22.5H2.527a.82.82,0,0,1,.605.237.82.82,0,0,1,.237.605V-5.652Z" transform="translate(0 22.5)" fill="#19b2a5"/>
</svg>
