<svg xmlns="http://www.w3.org/2000/svg" width="17.818" height="18.858" viewBox="0 0 17.818 18.858">
  <g id="Group_8209" data-name="Group 8209" transform="translate(-315.382 -24.509)">
    <path id="Vector" d="M2.887,2.357A2.951,2.951,0,0,0,5.774,0H0A2.952,2.952,0,0,0,2.887,2.357Z" transform="translate(320.353 41.01)" fill="#4a4b4d"/>
    <path id="Vector-2" data-name="Vector" d="M13.368,7.857h-.009a5.507,5.507,0,0,1-5.5-5.5A5.451,5.451,0,0,1,8.384.027C8.211.01,8.036,0,7.858,0a5.5,5.5,0,0,0-5.5,5.5V7.691A5.269,5.269,0,0,1,.481,11.724a1.375,1.375,0,0,0-.432,1.411,1.441,1.441,0,0,0,1.413,1.008H14.25a1.44,1.44,0,0,0,1.436-1.09,1.377,1.377,0,0,0-.469-1.345,5.229,5.229,0,0,1-1.85-3.852Z" transform="translate(315.382 26.081)" fill="#4a4b4d"/>
    <g id="Group_8211" data-name="Group 8211">
      <g id="Group_8210" data-name="Group 8210">
        <circle id="Ellipse_19" data-name="Ellipse 19" cx="4.009" cy="4.009" r="4.009" transform="translate(325.182 24.509)" fill="#19b2a5"/>
      </g>
    </g>
  </g>
</svg>
