<svg xmlns="http://www.w3.org/2000/svg" xmlns:xlink="http://www.w3.org/1999/xlink" width="78.605" height="99.766" viewBox="0 0 78.605 99.766">
  <defs>
    <clipPath id="clip-path">
      <path id="Path_228" data-name="Path 228" d="M59.192-36.041H46.945V-48.287H30.434v12.246H18.187v16.512H30.434V-7.283H46.945V-19.529H59.192Z" transform="translate(-18.187 48.287)" fill="none"/>
    </clipPath>
    <clipPath id="clip-path-2">
      <path id="Path_230" data-name="Path 230" d="M49.884-9.226A16.614,16.614,0,0,1,33.29,7.366,16.612,16.612,0,0,1,16.7-9.226,16.612,16.612,0,0,1,33.29-25.818V-42.331a33.142,33.142,0,0,0-33.1,33.1V44.995H16.7V19.4A32.894,32.894,0,0,0,33.29,23.879a33.142,33.142,0,0,0,33.1-33.1H49.884Z" transform="translate(-0.185 42.331)" fill="none"/>
    </clipPath>
  </defs>
  <g id="Group_160" data-name="Group 160" transform="translate(-0.185 48.287)">
    <g id="Group_158" data-name="Group 158" transform="translate(37.786 -48.287)" clip-path="url(#clip-path)">
      <path id="Path_227" data-name="Path 227" d="M13.187-53.287H75.078V8.6H13.187Z" transform="translate(-23.631 42.844)" fill="#19b1a4"/>
    </g>
    <g id="Group_159" data-name="Group 159" transform="translate(0.185 -35.847)" clip-path="url(#clip-path-2)">
      <path id="Path_229" data-name="Path 229" d="M-4.815-47.331h87.1V60.881h-87.1Z" transform="translate(-5.628 36.888)" fill="#00837d"/>
    </g>
  </g>
</svg>
