<svg xmlns="http://www.w3.org/2000/svg" width="377" height="204.91" viewBox="0 0 377 204.91">
  <g id="Raggruppa_2820" data-name="Raggruppa 2820" transform="translate(0 27.907)">
    <path id="Rectangle_17559" data-name="Rectangle 17559" d="M0,0H377V150a25,25,0,0,1-25,25H25A25,25,0,0,1,0,150Z" fill="#19b2a5"/>
    <g id="Raggruppa_6" data-name="Raggruppa 6" transform="translate(35.026 57)" opacity="0.2">
      <g id="cross_1" data-name="cross 1" transform="translate(186.722 35.356)" opacity="0.3">
        <g id="Group" transform="translate(0 0)">
          <path id="Vector" d="M41.663,13.228h-9.3V3.969A3.982,3.982,0,0,0,28.381,0H17.268a3.982,3.982,0,0,0-3.986,3.969v9.259h-9.3A3.982,3.982,0,0,0,0,17.2V28.264a3.982,3.982,0,0,0,3.986,3.969h9.3v9.259a3.982,3.982,0,0,0,3.986,3.969H28.381a3.982,3.982,0,0,0,3.986-3.969V32.233h9.3a3.982,3.982,0,0,0,3.986-3.969V17.2a3.982,3.982,0,0,0-3.985-3.969Zm2.2,15.036a2.2,2.2,0,0,1-2.2,2.193H31.475a.89.89,0,0,0-.892.888V41.491a2.2,2.2,0,0,1-2.2,2.193H17.268a2.2,2.2,0,0,1-2.2-2.193V31.345a.89.89,0,0,0-.892-.888H3.986a2.2,2.2,0,0,1-2.2-2.193V17.2A2.2,2.2,0,0,1,3.986,15H14.174a.89.89,0,0,0,.892-.888V3.969a2.2,2.2,0,0,1,2.2-2.193H28.381a2.2,2.2,0,0,1,2.2,2.193V14.116a.89.89,0,0,0,.892.888H41.663a2.2,2.2,0,0,1,2.2,2.193Z" fill="#00837d"/>
          <path id="Vector-2" data-name="Vector" d="M36.555,13.228H24.164V.888A.89.89,0,0,0,23.272,0h-9.1a.89.89,0,0,0-.892.888v12.34H.892A.89.89,0,0,0,0,14.116v9.06a.89.89,0,0,0,.892.888H13.283V36.4a.89.89,0,0,0,.892.888h9.1a.89.89,0,0,0,.892-.888V24.064H36.555a.89.89,0,0,0,.892-.888v-9.06a.89.89,0,0,0-.892-.888Zm-.892,9.06H23.272a.89.89,0,0,0-.892.888v12.34H15.066V23.176a.89.89,0,0,0-.892-.888H1.783V15H14.174a.89.89,0,0,0,.892-.888V1.776h7.315v12.34a.89.89,0,0,0,.892.888H35.663Z" transform="translate(4.101 4.084)" fill="#00837d"/>
        </g>
      </g>
      <path id="Vector-3" data-name="Vector" d="M59.039,34.962a2.5,2.5,0,0,1-1.361-1.877h.028a2.22,2.22,0,0,0,2.225-2.222l-.006-3.054a2.241,2.241,0,0,0-2.234-2.231l-19.366-.038A2.22,2.22,0,0,0,36.1,27.761l.006,3.054a2.241,2.241,0,0,0,1.852,2.2A2.47,2.47,0,0,1,36.6,34.918a4.362,4.362,0,0,0-2.432,3.937l.042,21.589A4.8,4.8,0,0,0,39,65.225l17.76.035A4.757,4.757,0,0,0,61.528,60.5l-.042-21.589A4.4,4.4,0,0,0,59.039,34.962Zm-21.027-7.2a.317.317,0,0,1,.318-.317l19.366.038a.32.32,0,0,1,.319.319l.006,3.054a.317.317,0,0,1-.318.317l-19.366-.038a.32.32,0,0,1-.319-.319ZM59.618,60.494a2.855,2.855,0,0,1-2.861,2.857L39,63.316a2.882,2.882,0,0,1-2.872-2.869l-.007-3.406,23.494.046ZM59.58,41.485l-5.434-.011a.954.954,0,1,0,0,1.909l5.434.011.023,11.786-23.494-.046L36.09,43.347l13.6.027a.954.954,0,1,0,0-1.909l-13.6-.027-.005-2.58a2.473,2.473,0,0,1,1.378-2.232,4.357,4.357,0,0,0,2.416-3.577l15.881.031a4.4,4.4,0,0,0,2.43,3.587A2.5,2.5,0,0,1,59.575,38.9ZM17.008,33.55l-2.293,0A1.713,1.713,0,0,0,13,35.26l.008,3.817L9.184,39.07a1.713,1.713,0,0,0-1.717,1.714l0,2.29A1.729,1.729,0,0,0,9.2,44.8l3.822.008.008,3.817a1.729,1.729,0,0,0,1.723,1.721l2.293,0a1.713,1.713,0,0,0,1.717-1.714l-.008-3.817,3.822.008a1.713,1.713,0,0,0,1.717-1.714l0-2.29A1.729,1.729,0,0,0,22.561,39.1l-3.822-.008-.008-3.817A1.729,1.729,0,0,0,17.008,33.55ZM22.374,41l0,1.909-4.2-.008a1.332,1.332,0,0,0-1.335,1.333l.008,4.2-1.911,0-.008-4.2a1.345,1.345,0,0,0-1.34-1.339l-4.2-.008,0-1.909,4.2.008a1.332,1.332,0,0,0,1.335-1.333l-.008-4.2,1.911,0,.008,4.2A1.345,1.345,0,0,0,18.17,41Zm.882-27.947-.006-2.815a2.334,2.334,0,0,0,2.086-2.319l-.008-4.151A3.754,3.754,0,0,0,21.578.042L10.013.02A3.719,3.719,0,0,0,6.278,3.734l.008,4.151a2.356,2.356,0,0,0,2.095,2.327l.006,2.815L1.545,19.822a5.037,5.037,0,0,0-1.5,3.609L.075,38.1a.956.956,0,0,0,1.911,0L1.97,29.878l27.769.055.047,24.082L2.017,53.959l-.022-11.4a.956.956,0,0,0-1.911,0L.118,60.043a5.151,5.151,0,0,0,5.146,5.116l21.32.042a5.1,5.1,0,0,0,5.126-5.1l-.072-36.612a5.078,5.078,0,0,0-1.513-3.615ZM29.8,60.1a3.2,3.2,0,0,1-3.218,3.191L5.26,63.25a3.23,3.23,0,0,1-3.231-3.2l-.008-4.178,27.769.055ZM8.2,7.889,8.189,3.738a1.816,1.816,0,0,1,1.828-1.81l11.565.023a1.833,1.833,0,0,1,1.835,1.817l.008,4.151a.432.432,0,0,1-.437.429L8.636,8.32A.436.436,0,0,1,8.2,7.889ZM21.34,10.253l0,2.243L10.3,12.474l0-2.243Zm8.4,17.77L1.966,27.969l-.009-4.535A3.15,3.15,0,0,1,2.9,21.178l6.843-6.8,12.171.024,6.87,6.823a3.175,3.175,0,0,1,.947,2.261Z" transform="translate(60.007 -48.783) rotate(-35.97)" fill="#00837d" opacity="0.3"/>
      <path id="Vector-4" data-name="Vector" d="M59.039,34.962a2.5,2.5,0,0,1-1.361-1.877h.028a2.22,2.22,0,0,0,2.225-2.222l-.006-3.054a2.241,2.241,0,0,0-2.234-2.231l-19.366-.038A2.22,2.22,0,0,0,36.1,27.761l.006,3.054a2.241,2.241,0,0,0,1.852,2.2A2.47,2.47,0,0,1,36.6,34.918a4.362,4.362,0,0,0-2.432,3.937l.042,21.589A4.8,4.8,0,0,0,39,65.225l17.76.035A4.757,4.757,0,0,0,61.528,60.5l-.042-21.589A4.4,4.4,0,0,0,59.039,34.962Zm-21.027-7.2a.317.317,0,0,1,.318-.317l19.366.038a.32.32,0,0,1,.319.319l.006,3.054a.317.317,0,0,1-.318.317l-19.366-.038a.32.32,0,0,1-.319-.319ZM59.618,60.494a2.855,2.855,0,0,1-2.861,2.857L39,63.316a2.882,2.882,0,0,1-2.872-2.869l-.007-3.406,23.494.046ZM59.58,41.485l-5.434-.011a.954.954,0,1,0,0,1.909l5.434.011.023,11.786-23.494-.046L36.09,43.347l13.6.027a.954.954,0,1,0,0-1.909l-13.6-.027-.005-2.58a2.473,2.473,0,0,1,1.378-2.232,4.357,4.357,0,0,0,2.416-3.577l15.881.031a4.4,4.4,0,0,0,2.43,3.587A2.5,2.5,0,0,1,59.575,38.9ZM17.008,33.55l-2.293,0A1.713,1.713,0,0,0,13,35.26l.008,3.817L9.184,39.07a1.713,1.713,0,0,0-1.717,1.714l0,2.29A1.729,1.729,0,0,0,9.2,44.8l3.822.008.008,3.817a1.729,1.729,0,0,0,1.723,1.721l2.293,0a1.713,1.713,0,0,0,1.717-1.714l-.008-3.817,3.822.008a1.713,1.713,0,0,0,1.717-1.714l0-2.29A1.729,1.729,0,0,0,22.561,39.1l-3.822-.008-.008-3.817A1.729,1.729,0,0,0,17.008,33.55ZM22.374,41l0,1.909-4.2-.008a1.332,1.332,0,0,0-1.335,1.333l.008,4.2-1.911,0-.008-4.2a1.345,1.345,0,0,0-1.34-1.339l-4.2-.008,0-1.909,4.2.008a1.332,1.332,0,0,0,1.335-1.333l-.008-4.2,1.911,0,.008,4.2A1.345,1.345,0,0,0,18.17,41Zm.882-27.947-.006-2.815a2.334,2.334,0,0,0,2.086-2.319l-.008-4.151A3.754,3.754,0,0,0,21.578.042L10.013.02A3.719,3.719,0,0,0,6.278,3.734l.008,4.151a2.356,2.356,0,0,0,2.095,2.327l.006,2.815L1.545,19.822a5.037,5.037,0,0,0-1.5,3.609L.075,38.1a.956.956,0,0,0,1.911,0L1.97,29.878l27.769.055.047,24.082L2.017,53.959l-.022-11.4a.956.956,0,0,0-1.911,0L.118,60.043a5.151,5.151,0,0,0,5.146,5.116l21.32.042a5.1,5.1,0,0,0,5.126-5.1l-.072-36.612a5.078,5.078,0,0,0-1.513-3.615ZM29.8,60.1a3.2,3.2,0,0,1-3.218,3.191L5.26,63.25a3.23,3.23,0,0,1-3.231-3.2l-.008-4.178,27.769.055ZM8.2,7.889,8.189,3.738a1.816,1.816,0,0,1,1.828-1.81l11.565.023a1.833,1.833,0,0,1,1.835,1.817l.008,4.151a.432.432,0,0,1-.437.429L8.636,8.32A.436.436,0,0,1,8.2,7.889ZM21.34,10.253l0,2.243L10.3,12.474l0-2.243Zm8.4,17.77L1.966,27.969l-.009-4.535A3.15,3.15,0,0,1,2.9,21.178l6.843-6.8,12.171.024,6.87,6.823a3.175,3.175,0,0,1,.947,2.261Z" transform="translate(240.241 -24.296) rotate(-35.97)" fill="#00837d" opacity="0.3"/>
      <g id="Group-2" data-name="Group" transform="translate(60.007 24.382)" opacity="0.3">
        <path id="Vector-5" data-name="Vector" d="M30.917,24.567a.87.87,0,0,0,.558-1.1,11.39,11.39,0,0,1-.571-3.573c0-4.4,6.141-12.4,11.492-18.028C47.748,7.491,53.889,15.5,53.889,19.894a11.5,11.5,0,0,1-20.645,6.922.873.873,0,0,0-1.392,1.055,13.253,13.253,0,0,0,23.787-7.977c0-6.247-9.328-16.468-12.187-19.452a1.479,1.479,0,0,0-2.109,0C38.483,3.426,29.155,13.647,29.155,19.894a13.122,13.122,0,0,0,.658,4.117.876.876,0,0,0,1.1.556ZM55.557,38.7A4.035,4.035,0,0,0,52.5,37.658L33.612,39.233a3.824,3.824,0,0,0-.928-3.993l-9.138-8.933a4.528,4.528,0,0,0-3.183-1.3H.875a.871.871,0,1,0,0,1.742H20.363a2.785,2.785,0,0,1,1.957.8l9.138,8.933a2.084,2.084,0,0,1,.021,2.932,2.108,2.108,0,0,1-2.961-.008L24.678,35.5a.873.873,0,0,0-1.25,1.219l3.84,3.907a3.871,3.871,0,0,0,4.9.476l20.48-1.708A2.255,2.255,0,0,1,53.5,43.8L44.5,46.524a.871.871,0,1,0,.509,1.667l8.994-2.724A3.994,3.994,0,0,0,55.557,38.7Zm-12-27.182H41.237a1.646,1.646,0,0,0-1.648,1.641V17.1H35.634a1.646,1.646,0,0,0-1.648,1.641v2.309a1.646,1.646,0,0,0,1.648,1.641H39.59v3.94a1.646,1.646,0,0,0,1.648,1.641h2.319A1.646,1.646,0,0,0,45.2,26.629v-3.94H49.16a1.646,1.646,0,0,0,1.648-1.641V18.739A1.646,1.646,0,0,0,49.16,17.1H45.2v-3.94a1.646,1.646,0,0,0-1.648-1.641Zm5.5,7.323v2.106H44.715A1.26,1.26,0,0,0,43.454,22.2v4.324H41.339V22.2a1.26,1.26,0,0,0-1.261-1.256H35.735V18.841h4.343a1.26,1.26,0,0,0,1.261-1.256V13.26h2.115v4.325a1.26,1.26,0,0,0,1.261,1.256ZM40.613,47.7,31.72,50.4A8.233,8.233,0,0,1,23.991,48.8L12.313,38.939a4.5,4.5,0,0,0-2.905-1.062H.875a.871.871,0,1,0,0,1.742H9.408a2.746,2.746,0,0,1,1.773.648l11.678,9.864a10,10,0,0,0,9.37,1.932l8.893-2.694a.871.871,0,1,0-.509-1.667Z" transform="translate(0 0)" fill="#00837d"/>
      </g>
      <g id="Group-3" data-name="Group" transform="translate(0.663 -195.797)" opacity="0.3">
        <g id="Group-4" data-name="Group" transform="translate(0 240.627)">
          <path id="Vector-6" data-name="Vector" d="M40.205,4.624A20.254,20.254,0,0,0,28.4.815L25.471.809c-.035,0-.069,0-.1.005A4.2,4.2,0,0,0,22.95.043h-.664A7.62,7.62,0,0,0,16.172,3.06l-1.87,0a1.134,1.134,0,1,0,0,2.268l1.862,0a7.674,7.674,0,0,0,6.175,3.107h.622a4.173,4.173,0,0,0,2.5-.823h.016l2.929.006A13.54,13.54,0,0,1,41.907,21.152l0,1.7A13.441,13.441,0,0,1,28.467,36.329l-5.392-.01,0-.958A19.514,19.514,0,0,0,39.227,16.123l0-1.531a1.14,1.14,0,0,0-1.138-1.136l-36.925-.07A1.13,1.13,0,0,0,.027,14.518l0,1.531a19.7,19.7,0,0,0,16.226,19.3l0,1.184-1,0a6.017,6.017,0,1,0,.023,12.033l1,0,0,1.145L12.193,49.7a7.24,7.24,0,0,0-7.257,7.245,1.14,1.14,0,0,0,1.138,1.136l27.267.051A1.13,1.13,0,0,0,34.476,57a7.307,7.307,0,0,0-6.287-7.2l0-1.353a6.242,6.242,0,0,0-3.014-5.322l3.308.006A20.229,20.229,0,0,0,48.727,22.861l0-1.7A20.464,20.464,0,0,0,40.205,4.624ZM22.962,6.168H22.34a5.406,5.406,0,0,1-4.172-1.961,5.37,5.37,0,0,1,4.123-1.9h.664a1.928,1.928,0,1,1,.007,3.856ZM3.251,21.669l21.591.041a1.134,1.134,0,1,0,0-2.268L2.635,19.4A17.3,17.3,0,0,1,2.3,16.054v-.4l34.652.065v.4A17.252,17.252,0,0,1,19.661,33.383,17.436,17.436,0,0,1,3.251,21.669ZM20.8,35.62l.012,6.6-2.272,0-.012-6.6c.376.022.755.035,1.136.036S20.426,35.641,20.8,35.62ZM27.2,52a5.029,5.029,0,0,1,4.876,3.865L7.337,55.818A4.982,4.982,0,0,1,12.2,51.971Zm-8.64-2.285,0-1.145,3.722.007a.572.572,0,1,1,0,1.145l-3.722-.007Zm7.358-1.269,0,1.283-.851,0a2.851,2.851,0,0,0-2.794-3.419l-7-.013a3.748,3.748,0,1,1-.014-7.5l1,0,.006,3.413h-.427a.238.238,0,0,1-.237-.237,1.136,1.136,0,0,0-2.272,0,2.521,2.521,0,0,0,2.514,2.509l6.107.012A3.971,3.971,0,0,1,25.914,48.446Zm2.562-7.579-5.392-.01,0-2.268,5.392.01A15.7,15.7,0,0,0,44.182,22.853l0-1.7a15.868,15.868,0,0,0-9-14.266,15.68,15.68,0,0,0-6.766-1.539l-1.393,0a4.172,4.172,0,0,0-.023-2.268l1.412,0A18.1,18.1,0,0,1,46.451,21.16l0,1.7A17.966,17.966,0,0,1,28.476,40.866Z" transform="matrix(0.839, -0.544, 0.544, 0.839, 0, 26.414)" fill="#00837d"/>
        </g>
      </g>
      <g id="bacterias_1" data-name="bacterias 1" transform="translate(-23.42 -54.453)" opacity="0.3">
        <g id="Group-5" data-name="Group" transform="translate(0 0)">
          <g id="Group-6" data-name="Group">
            <path id="Vector-7" data-name="Vector" d="M81.451,56.527A11.877,11.877,0,0,0,66.817,58.77l-7.548-4.34A16.5,16.5,0,0,0,60.4,48.411,16.7,16.7,0,0,0,46.24,31.956v-8.68a11.827,11.827,0,1,0-5.119,0v8.68a16.7,16.7,0,0,0-14.16,16.455,16.5,16.5,0,0,0,1.131,6.019l-7.548,4.34A11.812,11.812,0,0,0,1.582,72.617,11.741,11.741,0,0,0,8.765,78.1a11.966,11.966,0,0,0,3.086.407,11.82,11.82,0,0,0,11.393-8.733,11.658,11.658,0,0,0-.14-6.59l7.555-4.344a16.741,16.741,0,0,0,26.044,0l7.555,4.344a11.77,11.77,0,0,0,5.366,13.743,11.778,11.778,0,0,0,5.887,1.58A11.963,11.963,0,0,0,78.6,78.1a11.76,11.76,0,0,0,2.853-21.573ZM18.3,68.455a6.639,6.639,0,0,1-3.121,4.058,6.687,6.687,0,1,1-1.619-12.234A6.663,6.663,0,0,1,18.3,68.455ZM36.972,11.778a6.708,6.708,0,1,1,6.708,6.681A6.7,6.7,0,0,1,36.972,11.778Zm6.708,48.185a11.553,11.553,0,1,1,11.6-11.553A11.59,11.59,0,0,1,43.681,59.964Zm37.666,10.1a6.732,6.732,0,0,1-9.164,2.445A6.668,6.668,0,0,1,73.8,60.279a6.793,6.793,0,0,1,1.753-.231,6.687,6.687,0,0,1,5.791,10.021Z" fill="#00837d"/>
          </g>
        </g>
      </g>
      <g id="medicine_1_1" data-name="medicine (1) 1" transform="translate(249.964 44.764)" opacity="0.3">
        <g id="XMLID_987" data-name="XMLID 987" transform="translate(0 0)">
          <g id="XMLID_488" data-name="XMLID 488">
            <path id="XMLID_504" data-name="XMLID 504" d="M26.983,4.6a15.875,15.875,0,0,0-22.36,0,15.778,15.778,0,0,0,22.36,22.267A15.717,15.717,0,0,0,26.983,4.6Zm-2,1.992a12.906,12.906,0,0,1,.945,17.233L7.679,5.655A13.039,13.039,0,0,1,24.983,6.6ZM6.623,24.88A12.906,12.906,0,0,1,5.679,7.647L23.927,25.821A13.039,13.039,0,0,1,6.623,24.88Z" transform="translate(0 23.245)" fill="#00837d"/>
            <path id="XMLID_950" data-name="XMLID 950" d="M42.1,3.59A12.33,12.33,0,0,0,31.048.225a1.409,1.409,0,1,0,.538,2.765A9.442,9.442,0,0,1,40.1,18.926l-9.55,9.511-13.4-13.345,5.05-5.029a1.4,1.4,0,0,0,0-1.992,1.419,1.419,0,0,0-2,0L3.6,24.6A12.279,12.279,0,0,0,21,41.931L42.1,20.918a12.231,12.231,0,0,0,0-17.328ZM19,39.939a9.514,9.514,0,0,1-13.4,0,9.419,9.419,0,0,1,0-13.345l9.55-9.511,13.4,13.345Z" transform="translate(26.712 26.59)" fill="#00837d"/>
            <path id="XMLID_1162" data-name="XMLID 1162" d="M5.2,22.731a20.193,20.193,0,0,0,12.049,3.747A20.192,20.192,0,0,0,29.3,22.731c3.357-2.507,5.205-5.878,5.205-9.492S32.659,6.254,29.3,3.747A20.192,20.192,0,0,0,17.254,0,20.193,20.193,0,0,0,5.2,3.747C1.849,6.254,0,9.625,0,13.239S1.848,20.224,5.2,22.731ZM17.254,2.817c7.954,0,14.425,4.675,14.425,10.422S25.208,23.661,17.254,23.661,2.828,18.986,2.828,13.239,9.3,2.817,17.254,2.817Z" transform="translate(24.209)" fill="#00837d"/>
            <path id="XMLID_1221" data-name="XMLID 1221" d="M1.414,0A1.412,1.412,0,0,0,0,1.408a1.414,1.414,0,1,0,2.414-1A1.428,1.428,0,0,0,1.414,0Z" transform="translate(50.996 29.766)" fill="#00837d"/>
          </g>
        </g>
      </g>
      <g id="injection_1" data-name="injection 1" transform="translate(140.286 -43.807)" opacity="0.3">
        <g id="Group-7" data-name="Group" transform="translate(0 0)">
          <g id="Group-8" data-name="Group">
            <path id="Vector-8" data-name="Vector" d="M71.994.412a1.418,1.418,0,0,0-2,0L60.514,9.854a4.327,4.327,0,0,0-4.906.827l-3.075,3.062L51.375,12.59a7.852,7.852,0,0,0-11.049,0L21,31.886l-2.488-2.477a4.476,4.476,0,1,0-6.343,6.317l8.637,8.6L10.555,54.535,6.716,50.712a3.927,3.927,0,0,0-5.565,5.542l14.77,14.709a3.927,3.927,0,0,0,5.565-5.542L17.647,61.6,27.9,51.39l8.637,8.6a4.476,4.476,0,1,0,6.343-6.317L40.39,51.2,59.765,31.95h0l0,0a7.773,7.773,0,0,0,0-11l-1.158-1.154,3.075-3.062a4.271,4.271,0,0,0,.83-4.884L71.994,2.4A1.4,1.4,0,0,0,71.994.412Zm-52.508,67a1.1,1.1,0,0,1-1.565,1.559L3.151,54.263A1.1,1.1,0,0,1,4.716,52.7Zm-3.838-7.806-3.093-3.08L22.805,46.318,25.9,49.4ZM59.22,26.454a4.934,4.934,0,0,1-.6,2.364l-2.153-2.144a1.411,1.411,0,1,0-2,1.992l2.3,2.287-2.073,2.059L49.1,27.443a1.411,1.411,0,1,0-2,1.992L52.69,35,50.617,37.06l-2.289-2.279a1.411,1.411,0,0,0-2,1.992l2.286,2.277-2.073,2.059L40.96,35.55a1.419,1.419,0,0,0-2,0,1.4,1.4,0,0,0,0,1.992L44.539,43.1l-2.073,2.059-2.278-2.269a1.411,1.411,0,1,0-2,1.992l2.276,2.267L38.39,49.206l-5.571-5.548a1.411,1.411,0,0,0-2,1.992l6.567,6.54,0,0,3.489,3.474A1.653,1.653,0,0,1,38.535,58L14.169,33.734A1.653,1.653,0,0,1,16.511,31.4L20,34.875a1.417,1.417,0,0,0,1,.413h0a1.417,1.417,0,0,0,1-.414L42.329,14.58a5.015,5.015,0,0,1,7.047,0l8.391,8.357A4.921,4.921,0,0,1,59.22,26.454Zm.463-11.714L56.608,17.8l-2.074-2.066,3.075-3.062a1.464,1.464,0,1,1,2.075,2.066Z" transform="translate(0 0)" fill="#00837d"/>
          </g>
        </g>
        <g id="Group-9" data-name="Group" transform="translate(43.682 24.038)">
          <g id="Group-10" data-name="Group">
            <path id="Vector-9" data-name="Vector" d="M2.445.443,2.412.41a1.411,1.411,0,1,0-2,2l.033.032a1.411,1.411,0,1,0,2-2Z" transform="translate(0 0)" fill="#00837d"/>
          </g>
        </g>
        <g id="Group-11" data-name="Group" transform="translate(35.541 32.145)">
          <g id="Group-12" data-name="Group">
            <path id="Vector-10" data-name="Vector" d="M2.447.445,2.414.412a1.411,1.411,0,0,0-2,1.992l.032.032a1.411,1.411,0,0,0,2-1.992Z" transform="translate(0 0)" fill="#00837d"/>
          </g>
        </g>
        <g id="Group-13" data-name="Group" transform="translate(27.401 40.252)">
          <g id="Group-14" data-name="Group">
            <path id="Vector-11" data-name="Vector" d="M2.448.446,2.415.414a1.411,1.411,0,0,0-2,1.99l.032.032a1.411,1.411,0,1,0,2-1.989Z" transform="translate(0 0)" fill="#00837d"/>
          </g>
        </g>
      </g>
    </g>
  </g>
</svg>
