<svg xmlns="http://www.w3.org/2000/svg" viewBox="0 0 100 115.24" xmlns:v="https://vecta.io/nano"><path d="M50 87.8c6.875 0 12.5-4.939 12.5-10.975S56.875 65.852 50 65.852s-12.5 4.939-12.5 10.975S43.125 87.8 50 87.8zm37.5-49.387h-6.25V27.438C81.25 12.292 67.25 0 50 0S18.75 12.292 18.75 27.438v10.975H12.5C5.625 38.413 0 43.352 0 49.389v54.876c0 6.036 5.625 10.975 12.5 10.975h75c6.875 0 12.5-4.939 12.5-10.975V49.389c0-6.037-5.625-10.976-12.5-10.976zM30.625 27.438c0-9.384 8.688-17.012 19.375-17.012s19.375 7.628 19.375 17.012v10.975h-38.75zM87.5 104.265h-75V49.389h75z" fill="#19b2a5"/></svg>