<svg xmlns="http://www.w3.org/2000/svg" width="21.382" height="21.382" viewBox="0 0 21.382 21.382">
  <g id="Group_8731" data-name="Group 8731" transform="translate(-284 -23.618)">
    <path id="Ellipse_211" data-name="Ellipse 211" d="M10.691,0A10.691,10.691,0,1,1,0,10.691,10.691,10.691,0,0,1,10.691,0Z" transform="translate(284 23.618)" fill="#fff"/>
    <path id="Vector" d="M6.576,13.152a6.576,6.576,0,1,1,6.576-6.576A6.576,6.576,0,0,1,6.576,13.152Zm0-1.315A5.261,5.261,0,1,0,2.856,10.3a5.261,5.261,0,0,0,3.72,1.541Zm.658-5.261h2.63V7.891H5.918v-4.6H7.233Z" transform="translate(288.073 27.691)" fill="#0f938f"/>
  </g>
</svg>
